# Blender v2.82 (sub 7) OBJ File: 'tower_top.blend'
# www.blender.org
mtllib tower_top.mtl
o tower_top
v 0.000000 0.000000 0.000000
v 0.000000 3.335034 0.000000
v -0.802329 0.998982 -0.802328
v -1.134664 0.998982 -0.000000
v 0.707107 0.000000 -0.707107
v 0.537705 1.625690 -0.537705
v -0.000000 0.764081 1.000000
v 0.707107 0.764081 0.707107
v 0.000000 0.764081 -1.000000
v -0.707107 0.764081 -0.707107
v -1.000000 0.764081 -0.000000
v -0.707107 0.764081 0.707107
v -0.707107 0.000000 0.707107
v -0.537705 1.625690 0.537705
v 0.802328 0.998982 0.802328
v 1.134664 0.998982 0.000000
v -0.802329 0.998982 0.802328
v -0.000000 0.998982 1.134664
v 1.000000 0.764081 0.000000
v 0.707107 0.764081 -0.707107
v -0.000000 0.000000 1.000000
v -0.000000 1.625690 0.760430
v 0.760430 1.625690 0.000000
v 1.000000 0.000000 0.000000
v 0.707107 0.000000 0.707107
v 0.537705 1.625690 0.537705
v 0.000000 0.000000 -1.000000
v -0.000000 1.625690 -0.760430
v 0.802328 0.998982 -0.802328
v 0.000000 0.998982 -1.134664
v -0.760430 1.625690 -0.000000
v -1.000000 0.000000 -0.000000
v -0.707107 0.000000 -0.707107
v -0.537705 1.625690 -0.537705
v 0.000000 1.017361 -1.578173
v -1.115937 1.017361 -1.115937
v -1.578173 1.017361 -0.000000
v -0.000000 1.017361 1.578173
v 1.578173 1.017361 0.000000
v 1.115937 1.017361 1.115937
v -1.115937 1.017361 1.115937
v 1.115937 1.017361 -1.115937
vt 0.540427 0.647896
vt 0.411210 0.594372
vt 0.486903 0.518678
vt 0.593950 0.518678
vt 0.669644 0.594372
vt 0.999839 0.107208
vt 0.892972 0.107208
vt 0.892972 0.000161
vt 0.999839 0.000161
vt 0.669644 0.701419
vt 0.999839 0.321302
vt 0.892972 0.321302
vt 0.892972 0.214255
vt 0.999839 0.214255
vt 0.593950 0.777113
vt 0.486903 0.777113
vt 0.411210 0.701419
vt 0.629717 0.094853
vt 0.618293 0.058138
vt 0.745075 0.058675
vt 0.733656 0.094439
vt 0.544747 0.155889
vt 0.513873 0.132450
vt 0.999839 0.428349
vt 0.892972 0.428349
vt 0.999839 0.856538
vt 0.892972 0.856538
vt 0.892972 0.749490
vt 0.999839 0.749490
vt 0.892972 0.642443
vt 0.999839 0.642443
vt 0.999839 0.535396
vt 0.892972 0.535396
vt 0.510964 0.255566
vt 0.470247 0.255009
vt 0.819769 0.367433
vt 0.844973 0.394728
vt 0.740484 0.460904
vt 0.730466 0.422690
vt 0.611438 0.455203
vt 0.624899 0.418898
vt 0.841426 0.127720
vt 0.816822 0.151266
vt 0.541872 0.355549
vt 0.511643 0.376689
vt 0.410888 0.372051
vt 0.171515 0.488350
vt 0.146822 0.401876
vt 0.000161 0.426110
vt 0.049263 0.565057
vt 0.225041 0.558821
vt 0.144172 0.672028
vt 0.298038 0.603092
vt 0.377216 0.613794
vt 0.249523 0.168158
vt 0.326888 0.140810
vt 0.335537 0.000161
vt 0.173754 0.041585
vt 0.184678 0.228525
vt 0.061357 0.147574
vt 0.144343 0.310628
vt 0.270963 0.732360
vt 0.410888 0.731183
vt 0.002939 0.279960
vt 0.592602 0.513423
vt 0.460491 0.412542
vt 0.411210 0.254461
vt 0.597733 0.001020
vt 0.762465 0.000161
vt 0.892650 0.097140
vt 0.758707 0.518357
vt 0.892650 0.426720
vt 0.463896 0.097887
vn 0.0000 -1.0000 0.0000
vn 0.3827 0.0000 0.9239
vn 0.9239 0.0000 -0.3827
vn 0.8164 -0.4680 0.3382
vn 0.8164 -0.4680 -0.3382
vn 0.9239 0.0000 0.3827
vn 0.3827 0.0000 -0.9239
vn -0.3827 0.0000 0.9239
vn -0.9239 0.0000 0.3827
vn -0.3827 0.0000 -0.9239
vn -0.9239 0.0000 -0.3827
vn 0.3382 -0.4680 -0.8164
vn -0.3382 -0.4680 0.8164
vn -0.8164 -0.4680 0.3382
vn 0.3382 -0.4680 0.8164
vn -0.3382 -0.4680 -0.8164
vn -0.8164 -0.4680 -0.3382
vn 0.3540 0.3801 -0.8545
vn 0.2400 0.7789 -0.5794
vn 0.8545 0.3801 -0.3540
vn 0.5794 0.7789 -0.2400
vn 0.8545 0.3801 0.3540
vn 0.3540 0.3801 0.8545
vn -0.3540 0.3801 0.8545
vn -0.2400 0.7789 0.5794
vn -0.8545 0.3801 0.3540
vn -0.5794 0.7789 0.2400
vn -0.8545 0.3801 -0.3540
vn -0.3540 0.3801 -0.8545
vn 0.2400 0.7789 0.5794
vn 0.5794 0.7789 0.2400
vn -0.2400 0.7789 -0.5794
vn -0.5794 0.7789 -0.2400
vn -0.0414 -0.9990 -0.0171
vn -0.0171 -0.9990 -0.0414
vn 0.0414 -0.9990 0.0171
vn 0.0171 -0.9990 0.0414
vn -0.0414 -0.9990 0.0171
vn -0.0171 -0.9990 0.0414
vn 0.0414 -0.9990 -0.0171
vn 0.0171 -0.9990 -0.0414
usemtl mat1
s off
f 1/1/1 27/2/1 5/3/1
f 1/1/1 5/3/1 24/4/1
f 1/1/1 24/4/1 25/5/1
f 25/6/2 8/7/2 7/8/2 21/9/2
f 1/1/1 25/5/1 21/10/1
f 5/11/3 20/12/3 19/13/3 24/14/3
f 1/1/1 21/10/1 13/15/1
f 1/1/1 13/15/1 32/16/1
f 1/1/1 32/16/1 33/17/1
f 19/18/4 16/19/4 15/20/4 8/21/4
f 1/1/1 33/17/1 27/2/1
f 20/22/5 29/23/5 16/19/5 19/18/5
f 24/14/6 19/13/6 8/7/6 25/6/6
f 27/24/7 9/25/7 20/12/7 5/11/7
f 21/26/8 7/27/8 12/28/8 13/29/8
f 13/29/9 12/28/9 11/30/9 32/31/9
f 27/24/10 33/32/10 10/33/10 9/25/10
f 32/31/11 11/30/11 10/33/11 33/32/11
f 9/34/12 30/35/12 29/23/12 20/22/12
f 7/36/13 18/37/13 17/38/13 12/39/13
f 12/39/14 17/38/14 4/40/14 11/41/14
f 8/21/15 15/20/15 18/42/15 7/43/15
f 9/34/16 10/44/16 3/45/16 30/35/16
f 11/41/17 4/40/17 3/45/17 10/44/17
usemtl mat2
f 2/46/18 6/47/18 28/48/18
f 35/49/19 28/48/19 6/47/19 42/50/19
f 2/46/20 23/51/20 6/47/20
f 42/50/21 6/47/21 23/51/21 39/52/21
f 2/46/22 26/53/22 23/51/22
f 2/46/23 22/54/23 26/53/23
f 2/46/24 14/55/24 22/56/24
f 38/57/25 22/56/25 14/55/25 41/58/25
f 2/46/26 31/59/26 14/55/26
f 41/58/27 14/55/27 31/59/27 37/60/27
f 2/46/28 34/61/28 31/59/28
f 2/46/29 28/48/29 34/61/29
f 40/62/30 26/53/30 22/54/30 38/63/30
f 39/52/31 23/51/31 26/53/31 40/62/31
f 35/49/32 36/64/32 34/61/32 28/48/32
f 37/60/33 31/59/33 34/61/33 36/64/33
f 4/40/34 37/65/34 36/66/34 3/45/34
f 30/35/35 3/45/35 36/66/35 35/67/35
f 16/19/36 39/68/36 40/69/36 15/20/36
f 15/20/37 40/69/37 38/70/37 18/42/37
f 17/38/38 41/71/38 37/65/38 4/40/38
f 18/37/39 38/72/39 41/71/39 17/38/39
f 29/23/40 42/73/40 39/68/40 16/19/40
f 30/35/41 35/67/41 42/73/41 29/23/41
