# Blender v2.82 (sub 7) OBJ File: 'test_wall_indoor.blend'
# www.blender.org
mtllib test_wall_indoor.mtl
o test_wall_indoor
v 20.000000 19.000000 -20.000000
v 20.000000 19.000000 20.000000
v -20.000000 19.000000 -20.000000
v -20.000000 19.000000 20.000000
v -2.000000 7.000000 -20.000000
v -2.000000 1.000000 -20.000000
v -2.000000 7.000000 -2.000000
v -2.000000 1.000000 -2.000000
v -20.000000 -1.000000 -20.000000
v -20.000000 7.000000 -2.000000
v -20.000000 1.000000 -2.000000
v 20.000000 -1.000000 -20.000000
v 20.000000 7.000000 -2.000000
v 20.000000 1.000000 -2.000000
v 2.000000 7.000000 -20.000000
v 2.000000 1.000000 -20.000000
v 2.000000 7.000000 -2.000000
v 2.000000 1.000000 -2.000000
v 20.000000 7.000000 2.000000
v 20.000000 1.000000 2.000000
v 20.000000 -1.000000 20.000000
v 2.000000 7.000000 2.000000
v 2.000000 1.000000 2.000000
v 2.000000 7.000000 20.000000
v 2.000000 1.000000 20.000000
v -2.000000 7.000000 2.000000
v -2.000000 1.000000 2.000000
v -2.000000 7.000000 20.000000
v -2.000000 1.000000 20.000000
v -20.000000 7.000000 2.000000
v -20.000000 1.000000 2.000000
v -20.000000 -1.000000 20.000000
vt 0.387050 0.000304
vt 0.387050 0.387050
vt 0.000304 0.387050
vt 0.000304 0.000304
vt 0.774404 0.000304
vt 0.774404 0.387050
vt 0.387658 0.387050
vt 0.387658 0.000304
vt 0.603156 0.968385
vt 0.603155 0.775012
vt 0.777191 0.891036
vt 0.777190 0.949048
vt 0.603157 0.387659
vt 0.796529 0.387658
vt 0.680505 0.561693
vt 0.622493 0.561693
vt 0.816474 0.600368
vt 0.874487 0.600368
vt 0.990510 0.774404
vt 0.797137 0.774404
vt 0.815866 0.949048
vt 0.815866 0.891036
vt 0.989902 0.775012
vt 0.989902 0.968386
vt 0.622493 0.600368
vt 0.680505 0.600368
vt 0.796529 0.774404
vt 0.603155 0.774404
vt 0.000305 0.882457
vt 0.000304 0.689084
vt 0.174339 0.805107
vt 0.174339 0.863120
vt 0.797138 0.387659
vt 0.990510 0.387658
vt 0.874487 0.561693
vt 0.816474 0.561693
vt 0.213014 0.863120
vt 0.213014 0.805107
vt 0.387050 0.689083
vt 0.387050 0.882457
vt 0.602548 0.661129
vt 0.575200 0.688476
vt 0.452138 0.565414
vt 0.479486 0.538067
vt 0.301729 0.415005
vt 0.329076 0.387658
vt 0.452138 0.510720
vt 0.424791 0.538067
vt 0.575200 0.387658
vt 0.602548 0.415005
vt 0.329077 0.688476
vt 0.301729 0.661129
vt 0.150713 0.565414
vt 0.027651 0.688476
vt 0.000304 0.661129
vt 0.123366 0.538067
vt 0.000304 0.415005
vt 0.027651 0.387658
vt 0.150713 0.510720
vt 0.273775 0.688476
vt 0.178060 0.538067
vt 0.301122 0.661129
vt 0.301122 0.415005
vt 0.273775 0.387658
vt 0.775011 0.000304
vt 0.833023 0.000304
vt 0.833023 0.174340
vt 0.775011 0.174340
vt 0.833023 0.348375
vt 0.775011 0.348375
vt 0.833631 0.174340
vt 0.891643 0.174340
vt 0.891643 0.348375
vt 0.833631 0.348375
vt 0.833631 0.000304
vt 0.891643 0.000304
vt 0.174340 0.941684
vt 0.174340 0.999696
vt 0.000304 0.999696
vt 0.000304 0.941684
vt 0.348375 0.941684
vt 0.348375 0.999696
vt 0.174340 0.941077
vt 0.174340 0.883065
vt 0.348375 0.883065
vt 0.348375 0.941077
vt 0.000304 0.941077
vt 0.000304 0.883065
vn 0.0000 1.0000 0.0000
vn 0.0000 -1.0000 0.0000
vn 0.0000 0.0000 -1.0000
vn 1.0000 0.0000 0.0000
vn -1.0000 0.0000 0.0000
vn 0.0000 0.0000 1.0000
usemtl mat1
s off
f 3/1/1 4/2/1 2/3/1 1/4/1
f 32/5/2 9/6/2 12/7/2 21/8/2
usemtl mat2
f 9/9/3 3/10/3 5/11/3 6/12/3
f 12/13/4 1/14/4 13/15/4 14/16/4
f 11/17/5 10/18/5 3/19/5 9/20/5
f 16/21/3 15/22/3 1/23/3 12/24/3
f 20/25/4 19/26/4 2/27/4 21/28/4
f 21/29/6 2/30/6 24/31/6 25/32/6
f 32/33/5 4/34/5 30/35/5 31/36/5
f 29/37/6 28/38/6 4/39/6 32/40/6
f 31/36/5 11/17/5 9/20/5 32/33/5
f 25/32/6 29/37/6 32/40/6 21/29/6
f 6/12/3 16/21/3 12/24/3 9/9/3
f 5/11/3 3/10/3 1/23/3 15/22/3
f 24/31/6 2/30/6 4/39/6 28/38/6
f 13/15/4 1/14/4 2/27/4 19/26/4
f 30/35/5 4/34/5 3/19/5 10/18/5
f 14/16/4 20/25/4 21/28/4 12/13/4
usemtl mat3
f 24/41/2 28/42/2 26/43/2 22/44/2
f 5/45/2 15/46/2 17/47/2 7/48/2
f 13/49/2 19/50/2 22/44/2 17/47/2
f 30/51/2 10/52/2 7/48/2 26/43/2
f 23/53/1 20/54/1 14/55/1 18/56/1
f 18/56/1 16/57/1 6/58/1 8/59/1
f 25/60/1 23/53/1 27/61/1 29/62/1
f 18/56/1 8/59/1 27/61/1 23/53/1
f 31/63/1 27/61/1 8/59/1 11/64/1
f 17/47/2 22/44/2 26/43/2 7/48/2
f 6/65/4 5/66/4 7/67/4 8/68/4
f 8/68/6 7/67/6 10/69/6 11/70/6
f 18/71/5 17/72/5 15/73/5 16/74/5
f 14/75/6 13/76/6 17/72/6 18/71/6
f 23/77/3 22/78/3 19/79/3 20/80/3
f 25/81/5 24/82/5 22/78/5 23/77/5
f 27/83/4 26/84/4 28/85/4 29/86/4
f 31/87/3 30/88/3 26/84/3 27/83/3
