# Blender v2.82 (sub 7) OBJ File: 'wall_indoor.blend'
# www.blender.org
mtllib wall_indoor.mtl
o wall_indoor
v 18.000000 19.000000 -18.000000
v 18.000000 -1.000000 -18.000000
v 18.000000 19.000000 18.000000
v 18.000000 -1.000000 18.000000
v -18.000000 19.000000 -18.000000
v -18.000000 -1.000000 -18.000000
v -18.000000 19.000000 18.000000
v -18.000000 -1.000000 18.000000
vt 0.000000 0.000000
vt 0.473684 0.000000
vt 0.473684 0.500000
vt 0.000000 0.500000
vt 0.473684 1.000000
vt 0.000000 1.000000
vt 0.000000 0.500000
vt 0.473684 0.500000
vt 1.000000 0.500000
vt 0.736842 0.500000
vt 0.736842 0.000000
vt 1.000000 0.000000
vt 0.736842 0.500000
vt 0.473684 0.500000
vt 0.473684 0.000000
vt 0.736842 0.000000
vt 0.736842 1.000000
vt 0.473684 1.000000
vt 0.473684 0.500000
vt 0.736842 0.500000
vt 0.736842 0.500000
vt 1.000000 0.500000
vt 1.000000 1.000000
vn 0.0000 -1.0000 0.0000
vn 0.0000 1.0000 0.0000
vn 0.0000 0.0000 -1.0000
vn 1.0000 0.0000 0.0000
vn -1.0000 0.0000 0.0000
vn 0.0000 0.0000 1.0000
usemtl mat1
s off
f 6/1/1 2/2/1 4/3/1 8/4/1
f 1/5/2 5/6/2 7/7/2 3/8/2
usemtl mat2
f 6/9/3 5/10/3 1/11/3 2/12/3
f 2/13/4 1/14/4 3/15/4 4/16/4
f 8/17/5 7/18/5 5/19/5 6/20/5
f 4/21/6 3/22/6 7/23/6 8/17/6
