# Blender v2.82 (sub 7) OBJ File: 'wall_half.blend'
# www.blender.org
mtllib wall_half.mtl
o wall_half
v 20.000000 10.000000 -20.000000
v 20.000000 0.000000 -20.000000
v 20.000000 10.000000 20.000000
v 20.000000 0.000000 20.000000
v -20.000000 10.000000 -20.000000
v -20.000000 0.000000 -20.000000
v -20.000000 10.000000 20.000000
v -20.000000 0.000000 20.000000
vt 0.000078 0.100062
vt 0.100062 0.100062
vt 0.100062 0.500000
vt 0.000077 0.500000
vt 0.100062 0.599985
vt 0.500000 0.500000
vt 0.500000 0.599985
vt 0.999922 0.100062
vt 0.999922 0.500000
vt 0.599984 0.500000
vt 0.599985 0.100062
vt 0.500000 0.000078
vt 0.500000 0.100062
vt 0.100062 0.000077
vn 0.0000 0.0000 -1.0000
vn 1.0000 0.0000 0.0000
vn 0.0000 -1.0000 0.0000
vn -1.0000 0.0000 0.0000
vn 0.0000 1.0000 0.0000
vn 0.0000 0.0000 1.0000
usemtl mat1
s off
f 6/1/1 5/2/1 1/3/1 2/4/1
f 2/5/2 1/3/2 3/6/2 4/7/2
f 6/8/3 2/9/3 4/10/3 8/11/3
f 8/12/4 7/13/4 5/2/4 6/14/4
f 1/3/5 5/2/5 7/13/5 3/6/5
f 4/10/6 3/6/6 7/13/6 8/11/6
