# Blender v2.82 (sub 7) OBJ File: 'wall_outdoor.blend'
# www.blender.org
mtllib wall_outdoor.mtl
o wall_outdoor
v 18.000000 3.000000 -18.000000
v 18.000000 -1.000000 -18.000000
v 18.000000 3.000000 18.000000
v 18.000000 -1.000000 18.000000
v -18.000000 3.000000 -18.000000
v -18.000000 -1.000000 -18.000000
v -18.000000 3.000000 18.000000
v -18.000000 -1.000000 18.000000
v -17.000000 -1.000000 17.000000
v -17.000000 3.000000 17.000000
v -17.000000 -1.000000 -17.000000
v -17.000000 3.000000 -17.000000
v 17.000000 -1.000000 17.000000
v 17.000000 3.000000 17.000000
v 17.000000 -1.000000 -17.000000
v 17.000000 3.000000 -17.000000
vt 0.529411 0.500000
vt 0.000000 0.500000
vt 0.014706 0.486111
vt 0.514705 0.486111
vt 0.529411 0.000000
vt 0.514705 0.013889
vt 0.000000 0.000000
vt 0.014706 0.013889
vt 0.529411 1.000000
vt 0.000000 1.000000
vt 0.014706 0.986111
vt 0.514705 0.986111
vt 0.000000 0.500000
vt 0.529411 0.500000
vt 0.514705 0.513889
vt 0.014706 0.513889
vt 0.705882 0.500000
vt 0.647059 0.500000
vt 0.647059 0.000000
vt 0.705882 0.000000
vt 0.588235 0.500000
vt 0.588235 0.000000
vt 0.882353 0.472222
vt 0.882353 0.000000
vt 0.941176 0.000000
vt 0.941176 0.472222
vt 0.764706 0.500000
vt 0.705882 0.500000
vt 0.705882 0.000000
vt 0.764706 0.000000
vt 0.823529 0.000000
vt 0.823529 0.472222
vt 0.764706 0.472222
vt 0.764706 0.000000
vt 0.647058 0.000000
vt 0.647059 0.500000
vt 0.588235 0.500000
vt 1.000000 0.000000
vt 1.000000 0.472222
vt 0.941177 0.472222
vt 0.882353 0.000000
vt 0.882353 0.472222
vt 0.823529 0.472222
vt 0.823529 0.000000
vn 0.0000 1.0000 0.0000
vn 0.0000 -1.0000 0.0000
vn 0.0000 0.0000 -1.0000
vn 1.0000 0.0000 0.0000
vn 0.0000 0.0000 1.0000
vn -1.0000 0.0000 0.0000
usemtl mat1
s off
f 1/1/1 5/2/1 12/3/1 16/4/1
f 3/5/1 1/1/1 16/4/1 14/6/1
f 7/7/1 3/5/1 14/6/1 10/8/1
f 5/2/1 7/7/1 10/8/1 12/3/1
f 4/9/2 8/10/2 9/11/2 13/12/2
f 6/13/2 2/14/2 15/15/2 11/16/2
f 2/14/2 4/9/2 13/12/2 15/15/2
f 8/10/2 6/13/2 11/16/2 9/11/2
usemtl mat2
f 6/17/3 5/18/3 1/19/3 2/20/3
f 2/21/4 1/1/4 3/5/4 4/22/4
f 11/23/5 15/24/5 16/25/5 12/26/5
f 8/27/6 7/28/6 5/29/6 6/30/6
f 9/31/4 11/32/4 12/33/4 10/34/4
f 4/22/5 3/35/5 7/36/5 8/37/5
f 15/38/6 13/39/6 14/40/6 16/25/6
f 13/41/3 9/42/3 10/43/3 14/44/3
