{
    "asset" : {
        "generator" : "Khronos glTF Blender I/O v1.1.45",
        "version" : "2.0"
    },
    "scene" : 0,
    "scenes" : [
        {
            "name" : "Scene",
            "nodes" : [
                0,
                1
            ]
        }
    ],
    "nodes" : [
        {
            "mesh" : 0,
            "name" : "mesh"
        },
        {
            "mesh" : 1,
            "name" : "col"
        }
    ],
    "materials" : [
        {
            "doubleSided" : true,
            "name" : "mat1",
            "pbrMetallicRoughness" : {}
        },
        {
            "doubleSided" : true,
            "name" : "mat2",
            "pbrMetallicRoughness" : {}
        },
        {
            "doubleSided" : true,
            "name" : "mat3",
            "pbrMetallicRoughness" : {}
        },
        {
            "doubleSided" : true,
            "name" : "mat4",
            "pbrMetallicRoughness" : {}
        }
    ],
    "meshes" : [
        {
            "name" : "mesh",
            "primitives" : [
                {
                    "attributes" : {
                        "POSITION" : 0,
                        "NORMAL" : 1,
                        "TEXCOORD_0" : 2
                    },
                    "indices" : 3,
                    "material" : 0
                },
                {
                    "attributes" : {
                        "POSITION" : 4,
                        "NORMAL" : 5,
                        "TEXCOORD_0" : 6
                    },
                    "indices" : 7,
                    "material" : 1
                },
                {
                    "attributes" : {
                        "POSITION" : 8,
                        "NORMAL" : 9,
                        "TEXCOORD_0" : 10
                    },
                    "indices" : 11,
                    "material" : 2
                },
                {
                    "attributes" : {
                        "POSITION" : 12,
                        "NORMAL" : 13,
                        "TEXCOORD_0" : 14
                    },
                    "indices" : 7,
                    "material" : 3
                }
            ]
        },
        {
            "name" : "col",
            "primitives" : [
                {
                    "attributes" : {
                        "POSITION" : 15,
                        "NORMAL" : 16,
                        "TEXCOORD_0" : 17
                    },
                    "indices" : 18
                }
            ]
        }
    ],
    "accessors" : [
        {
            "bufferView" : 0,
            "componentType" : 5126,
            "count" : 24,
            "max" : [
                13.017144203186035,
                -0.024918511509895325,
                9.570772171020508
            ],
            "min" : [
                -4.001433849334717,
                -8.654741287231445,
                -4.856134414672852
            ],
            "type" : "VEC3"
        },
        {
            "bufferView" : 1,
            "componentType" : 5126,
            "count" : 24,
            "type" : "VEC3"
        },
        {
            "bufferView" : 2,
            "componentType" : 5126,
            "count" : 24,
            "type" : "VEC2"
        },
        {
            "bufferView" : 3,
            "componentType" : 5123,
            "count" : 36,
            "type" : "SCALAR"
        },
        {
            "bufferView" : 4,
            "componentType" : 5126,
            "count" : 60,
            "max" : [
                0.8944249749183655,
                4.227012634277344,
                0.8506399989128113
            ],
            "min" : [
                -0.8944249749183655,
                2.2270126342773438,
                -0.8506399989128113
            ],
            "type" : "VEC3"
        },
        {
            "bufferView" : 5,
            "componentType" : 5126,
            "count" : 60,
            "type" : "VEC3"
        },
        {
            "bufferView" : 6,
            "componentType" : 5126,
            "count" : 60,
            "type" : "VEC2"
        },
        {
            "bufferView" : 7,
            "componentType" : 5123,
            "count" : 60,
            "type" : "SCALAR"
        },
        {
            "bufferView" : 8,
            "componentType" : 5126,
            "count" : 108,
            "max" : [
                13.017144203186035,
                3.730862855911255,
                9.570772171020508
            ],
            "min" : [
                -4.001433849334717,
                -8.654741287231445,
                -4.856134414672852
            ],
            "type" : "VEC3"
        },
        {
            "bufferView" : 9,
            "componentType" : 5126,
            "count" : 108,
            "type" : "VEC3"
        },
        {
            "bufferView" : 10,
            "componentType" : 5126,
            "count" : 108,
            "type" : "VEC2"
        },
        {
            "bufferView" : 11,
            "componentType" : 5123,
            "count" : 132,
            "type" : "SCALAR"
        },
        {
            "bufferView" : 12,
            "componentType" : 5126,
            "count" : 60,
            "max" : [
                9.826916694641113,
                3.0830986499786377,
                -0.8353508114814758
            ],
            "min" : [
                8.936185836791992,
                2.0830986499786377,
                -1.7075445652008057
            ],
            "type" : "VEC3"
        },
        {
            "bufferView" : 13,
            "componentType" : 5126,
            "count" : 60,
            "type" : "VEC3"
        },
        {
            "bufferView" : 14,
            "componentType" : 5126,
            "count" : 60,
            "type" : "VEC2"
        },
        {
            "bufferView" : 15,
            "componentType" : 5126,
            "count" : 72,
            "max" : [
                13.017144203186035,
                -0.024918511509895325,
                9.570772171020508
            ],
            "min" : [
                -4.001433849334717,
                -8.654741287231445,
                -4.856134414672852
            ],
            "type" : "VEC3"
        },
        {
            "bufferView" : 16,
            "componentType" : 5126,
            "count" : 72,
            "type" : "VEC3"
        },
        {
            "bufferView" : 17,
            "componentType" : 5126,
            "count" : 72,
            "type" : "VEC2"
        },
        {
            "bufferView" : 18,
            "componentType" : 5123,
            "count" : 108,
            "type" : "SCALAR"
        }
    ],
    "bufferViews" : [
        {
            "buffer" : 0,
            "byteLength" : 288,
            "byteOffset" : 0
        },
        {
            "buffer" : 0,
            "byteLength" : 288,
            "byteOffset" : 288
        },
        {
            "buffer" : 0,
            "byteLength" : 192,
            "byteOffset" : 576
        },
        {
            "buffer" : 0,
            "byteLength" : 72,
            "byteOffset" : 768
        },
        {
            "buffer" : 0,
            "byteLength" : 720,
            "byteOffset" : 840
        },
        {
            "buffer" : 0,
            "byteLength" : 720,
            "byteOffset" : 1560
        },
        {
            "buffer" : 0,
            "byteLength" : 480,
            "byteOffset" : 2280
        },
        {
            "buffer" : 0,
            "byteLength" : 120,
            "byteOffset" : 2760
        },
        {
            "buffer" : 0,
            "byteLength" : 1296,
            "byteOffset" : 2880
        },
        {
            "buffer" : 0,
            "byteLength" : 1296,
            "byteOffset" : 4176
        },
        {
            "buffer" : 0,
            "byteLength" : 864,
            "byteOffset" : 5472
        },
        {
            "buffer" : 0,
            "byteLength" : 264,
            "byteOffset" : 6336
        },
        {
            "buffer" : 0,
            "byteLength" : 720,
            "byteOffset" : 6600
        },
        {
            "buffer" : 0,
            "byteLength" : 720,
            "byteOffset" : 7320
        },
        {
            "buffer" : 0,
            "byteLength" : 480,
            "byteOffset" : 8040
        },
        {
            "buffer" : 0,
            "byteLength" : 864,
            "byteOffset" : 8520
        },
        {
            "buffer" : 0,
            "byteLength" : 864,
            "byteOffset" : 9384
        },
        {
            "buffer" : 0,
            "byteLength" : 576,
            "byteOffset" : 10248
        },
        {
            "buffer" : 0,
            "byteLength" : 216,
            "byteOffset" : 10824
        }
    ],
    "buffers" : [
        {
            "byteLength" : 11040,
            "uri" : "data:application/octet-stream;base64,"
        }
    ]
}
