# Blender v2.82 (sub 7) OBJ File: 'bridge.blend'
# www.blender.org
mtllib bridge.mtl
o bridge
v 0.612766 2.439486 -2.466419
v 0.612766 2.439486 2.432872
v -0.612766 2.439486 -0.016774
v -0.612766 2.439486 -2.466419
v -0.612766 2.439486 2.432872
v -0.612766 1.825772 1.461202
v 0.612766 2.065207 -0.009038
v 0.612766 1.825772 1.461202
v 0.612766 1.825772 -1.479277
v -0.612766 1.825772 -1.479277
v 0.612766 1.377797 -1.981843
v -0.612766 1.377797 -1.981843
v -0.612766 1.377797 1.947049
v -0.612766 2.065207 -0.009038
v 0.612766 2.439486 -0.016774
v 0.612766 1.377797 1.947049
v 0.612766 -0.043366 -2.466419
v 0.612766 -0.043366 2.432872
v -0.612766 -0.043366 -2.466419
v -0.612766 -0.043366 2.432872
v 0.612766 -0.043366 -2.335217
v -0.612766 -0.043366 -2.335217
v -0.612766 -0.043366 2.300424
v 0.612766 -0.043366 2.300424
v -0.538447 2.372103 2.234468
v -0.538447 2.590412 1.944307
v -0.538447 2.372103 -2.234468
v -0.538447 2.590412 -1.977970
v -0.428757 2.372103 2.234468
v -0.428757 2.590412 1.944307
v -0.428757 2.372103 -2.234468
v -0.428757 2.590412 -1.977970
v 0.437241 2.372103 2.234468
v 0.437241 2.590412 1.944307
v 0.437241 2.372103 -2.234468
v 0.437241 2.590412 -1.977970
v 0.546931 2.372103 2.234468
v 0.546931 2.590412 1.944307
v 0.546931 2.372103 -2.234468
v 0.546931 2.590412 -1.977970
vt 0.251767 0.000169
vt 0.144182 0.049399
vt 0.000169 0.013590
vt 0.000169 0.000169
vt 0.314295 0.396604
vt 0.252105 0.496635
vt 0.252105 0.248402
vt 0.290032 0.247618
vt 0.252105 0.000169
vt 0.314295 0.098632
vt 0.752755 0.379904
vt 0.628567 0.379904
vt 0.628567 0.228955
vt 0.752755 0.228955
vt 0.189577 0.098632
vt 0.628229 0.500000
vt 0.504041 0.500000
vt 0.504041 0.251767
vt 0.628229 0.251767
vt 0.752755 0.599075
vt 0.628567 0.599075
vt 0.628567 0.530852
vt 0.752755 0.530852
vt 0.359690 0.447531
vt 0.213840 0.247618
vt 0.251767 0.248402
vt 0.251767 0.496635
vt 0.189577 0.396604
vt 0.752755 0.747472
vt 0.628567 0.747472
vt 0.144182 0.447531
vt 0.359690 0.049399
vt 0.628567 0.161988
vt 0.752755 0.161988
vt 0.628229 0.748233
vt 0.504041 0.748233
vt 0.503703 0.483340
vt 0.503703 0.496635
vt 0.628567 0.013590
vt 0.752755 0.013590
vt 0.628229 0.999831
vt 0.504041 0.999831
vt 0.000169 0.496635
vt 0.000169 0.483340
vt 0.504041 0.000169
vt 0.628229 0.000169
vt 0.503703 0.000169
vt 0.503703 0.013590
vt 0.628567 0.000169
vt 0.752755 0.000169
vt 0.752755 0.760768
vt 0.628567 0.760768
vt 0.753093 0.007565
vt 0.775215 0.036968
vt 0.775216 0.434423
vt 0.753093 0.460416
vt 0.775216 0.468555
vt 0.786331 0.434423
vt 0.786331 0.468555
vt 0.808453 0.460415
vt 0.786331 0.036968
vt 0.808453 0.007564
vt 0.786331 0.000169
vt 0.775215 0.000169
vt 0.808791 0.007565
vt 0.830913 0.036968
vt 0.830915 0.434423
vt 0.808792 0.460416
vt 0.830915 0.468555
vt 0.842030 0.434423
vt 0.842030 0.468555
vt 0.864152 0.460415
vt 0.842029 0.036968
vt 0.864152 0.007564
vt 0.842029 0.000169
vt 0.830913 0.000169
vn -1.0000 -0.0000 0.0000
vn 1.0000 -0.0000 0.0000
vn 0.0000 -0.9870 -0.1607
vn 0.0000 1.0000 0.0000
vn 0.0000 -0.7465 0.6654
vn 0.0000 -0.2413 0.9704
vn 0.0000 -0.7352 -0.6779
vn 0.0000 -0.9870 0.1607
vn 0.0000 -0.2413 -0.9704
vn 0.0000 0.0000 -1.0000
vn 0.0000 0.0000 1.0000
vn 0.0000 -1.0000 -0.0000
vn 0.0000 0.7615 -0.6481
vn 0.0000 0.7991 0.6012
usemtl mat1
s off
f 5/1/1 13/2/1 23/3/1 20/4/1
f 9/5/2 1/6/2 15/7/2 7/8/2
f 7/8/2 15/7/2 2/9/2 8/10/2
f 14/11/3 7/12/3 8/13/3 6/14/3
f 13/2/1 5/1/1 6/15/1
f 15/16/4 3/17/4 5/18/4 2/19/4
f 12/20/5 11/21/5 9/22/5 10/23/5
f 11/24/2 1/6/2 9/5/2
f 14/25/1 3/26/1 4/27/1 10/28/1
f 11/21/6 12/20/6 22/29/6 21/30/6
f 10/28/1 4/27/1 12/31/1
f 8/10/2 2/9/2 16/32/2
f 6/14/7 8/13/7 16/33/7 13/34/7
f 10/23/8 9/22/8 7/12/8 14/11/8
f 1/35/4 4/36/4 3/17/4 15/16/4
f 6/15/1 5/1/1 3/26/1 14/25/1
f 1/6/2 11/24/2 21/37/2 17/38/2
f 13/34/9 16/33/9 24/39/9 23/40/9
f 4/36/10 1/35/10 17/41/10 19/42/10
f 12/31/1 4/27/1 19/43/1 22/44/1
f 2/19/11 5/18/11 20/45/11 18/46/11
f 16/32/2 2/9/2 18/47/2 24/48/2
f 23/40/12 24/39/12 18/49/12 20/50/12
f 19/51/12 17/52/12 21/30/12 22/29/12
usemtl mat2
f 25/53/1 26/54/1 28/55/1 27/56/1
f 27/57/13 28/55/13 32/58/13 31/59/13
f 31/60/2 32/58/2 30/61/2 29/62/2
f 29/63/14 30/61/14 26/54/14 25/64/14
f 33/65/1 34/66/1 36/67/1 35/68/1
f 32/58/4 28/55/4 26/54/4 30/61/4
f 35/69/13 36/67/13 40/70/13 39/71/13
f 39/72/2 40/70/2 38/73/2 37/74/2
f 37/75/14 38/73/14 34/66/14 33/76/14
f 40/70/4 36/67/4 34/66/4 38/73/4
