# Blender v2.82 (sub 7) OBJ File: 'gate.blend'
# www.blender.org
mtllib gate.mtl
o gate
v 0.000000 3.005433 -0.200629
v 1.000000 0.000000 -0.200629
v 0.000000 3.005433 0.200629
v 1.000000 0.000000 0.200629
v -1.000000 0.000000 -0.200629
v -1.000000 0.000000 0.200629
v 1.000000 1.766158 0.200629
v -1.000000 1.766158 -0.200629
v -1.000000 1.766158 0.200629
v 1.000000 1.766158 -0.200629
v -0.597030 2.748602 0.200629
v 0.597030 2.748602 0.200629
v -0.597030 2.748602 -0.200629
v 0.597030 2.748602 -0.200629
v 0.938426 2.275985 0.200629
v -0.938426 2.275985 -0.200629
v 0.938426 2.275985 -0.200629
v -0.938426 2.275985 0.200629
v 0.000000 0.000000 0.200629
v 0.000000 0.000000 -0.200629
v 0.000000 1.766158 0.200629
v 0.000000 1.766158 -0.200629
vt 0.500137 0.833708
vt 0.500137 0.575802
vt 0.624385 0.780259
vt 0.291753 0.804007
vt 0.291753 0.939264
vt 0.208247 0.939264
vt 0.208247 0.804007
vt 0.291753 0.000137
vt 0.291753 0.208247
vt 0.208247 0.208247
vt 0.208247 0.000137
vt 0.000137 0.833708
vt 0.000137 0.575802
vt 0.124385 0.780259
vt 0.791753 0.804007
vt 0.791753 0.939263
vt 0.708247 0.939263
vt 0.708247 0.804007
vt 0.791753 0.208247
vt 0.791753 0.575802
vt 0.708247 0.575802
vt 0.708247 0.208247
vt 0.999863 0.208247
vt 0.999863 0.575802
vt 0.291753 0.575802
vt 0.208247 0.575802
vt 0.499863 0.208247
vt 0.499863 0.575802
vt 0.791753 0.682674
vt 0.708247 0.682674
vt 0.875615 0.780259
vt 0.804567 0.681903
vt 0.291753 0.682674
vt 0.208247 0.682674
vt 0.375615 0.780259
vt 0.304567 0.681903
vt 0.195433 0.681903
vt 0.695433 0.681903
vt 0.500137 0.208247
vt 0.000137 0.208247
vt 0.708247 0.000137
vt 0.791753 0.000137
vt 0.999863 0.833708
vt 0.499863 0.833708
vn -0.0000 0.0000 -1.0000
vn 0.3952 0.9186 0.0000
vn 0.0000 -1.0000 0.0000
vn 0.0000 0.0000 1.0000
vn -0.3952 0.9186 0.0000
vn -1.0000 0.0000 0.0000
vn 1.0000 0.0000 0.0000
vn -0.8106 0.5856 0.0000
vn 0.8106 0.5856 0.0000
vn 0.9928 0.1199 0.0000
vn -0.9928 0.1199 0.0000
usemtl mat1
s off
f 1/1/1 22/2/1 13/3/1
f 14/4/2 1/5/2 3/6/2 12/7/2
f 20/8/3 2/9/3 4/10/3 19/11/3
f 3/12/4 21/13/4 12/14/4
f 11/15/5 3/16/5 1/17/5 13/18/5
f 6/19/6 9/20/6 8/21/6 5/22/6
f 19/23/4 21/24/4 9/20/4 6/19/4
f 2/9/7 10/25/7 7/26/7 4/10/7
f 20/27/1 22/28/1 10/25/1 2/9/1
f 18/29/8 11/15/8 13/18/8 16/30/8
f 21/24/4 11/31/4 18/32/4
f 17/33/9 14/4/9 12/7/9 15/34/9
f 22/28/1 14/35/1 17/36/1
f 22/28/1 17/36/1 10/25/1
f 10/25/10 17/33/10 15/34/10 7/26/10
f 21/24/4 18/32/4 9/20/4
f 9/20/11 18/29/11 16/30/11 8/21/11
f 7/26/4 15/37/4 21/13/4
f 8/21/1 16/38/1 22/2/1
f 16/38/1 13/3/1 22/2/1
f 15/37/4 12/14/4 21/13/4
f 5/22/1 8/21/1 22/2/1 20/39/1
f 4/10/4 7/26/4 21/13/4 19/40/4
f 5/22/3 20/41/3 19/42/3 6/19/3
f 3/43/4 11/31/4 21/24/4
f 1/44/1 14/35/1 22/28/1
