{
    "asset" : {
        "generator" : "Khronos glTF Blender I/O v1.1.45",
        "version" : "2.0"
    },
    "scene" : 0,
    "scenes" : [
        {
            "name" : "Scene",
            "nodes" : [
                0,
                1
            ]
        }
    ],
    "nodes" : [
        {
            "mesh" : 0,
            "name" : "bridge_stone"
        },
        {
            "mesh" : 1,
            "name" : "REF",
            "translation" : [
                0,
                1,
                0
            ]
        }
    ],
    "materials" : [
        {
            "doubleSided" : true,
            "name" : "mat1",
            "pbrMetallicRoughness" : {}
        },
        {
            "doubleSided" : true,
            "name" : "mat2",
            "pbrMetallicRoughness" : {}
        },
        {
            "doubleSided" : true,
            "name" : "mat3",
            "pbrMetallicRoughness" : {}
        },
        {
            "doubleSided" : true,
            "name" : "mat4",
            "pbrMetallicRoughness" : {}
        },
        {
            "doubleSided" : true,
            "name" : "mat5",
            "pbrMetallicRoughness" : {}
        },
        {
            "doubleSided" : true,
            "name" : "mat6",
            "pbrMetallicRoughness" : {}
        }
    ],
    "meshes" : [
        {
            "name" : "bridge_stone",
            "primitives" : [
                {
                    "attributes" : {
                        "POSITION" : 0,
                        "NORMAL" : 1,
                        "TEXCOORD_0" : 2
                    },
                    "indices" : 3,
                    "material" : 0
                },
                {
                    "attributes" : {
                        "POSITION" : 4,
                        "NORMAL" : 5,
                        "TEXCOORD_0" : 6
                    },
                    "indices" : 7,
                    "material" : 1
                },
                {
                    "attributes" : {
                        "POSITION" : 8,
                        "NORMAL" : 9,
                        "TEXCOORD_0" : 10
                    },
                    "indices" : 11,
                    "material" : 2
                },
                {
                    "attributes" : {
                        "POSITION" : 12,
                        "NORMAL" : 13,
                        "TEXCOORD_0" : 14
                    },
                    "indices" : 15,
                    "material" : 3
                },
                {
                    "attributes" : {
                        "POSITION" : 16,
                        "NORMAL" : 17,
                        "TEXCOORD_0" : 18
                    },
                    "indices" : 19,
                    "material" : 4
                },
                {
                    "attributes" : {
                        "POSITION" : 20,
                        "NORMAL" : 21,
                        "TEXCOORD_0" : 22
                    },
                    "indices" : 23,
                    "material" : 5
                }
            ]
        },
        {
            "name" : "REF",
            "primitives" : [
                {
                    "attributes" : {
                        "POSITION" : 24,
                        "NORMAL" : 25
                    },
                    "indices" : 26
                }
            ]
        }
    ],
    "accessors" : [
        {
            "bufferView" : 0,
            "componentType" : 5126,
            "count" : 104,
            "max" : [
                10.085794448852539,
                0.7797688245773315,
                35.67240524291992
            ],
            "min" : [
                -10.147966384887695,
                -16.1594295501709,
                -99.48438262939453
            ],
            "type" : "VEC3"
        },
        {
            "bufferView" : 1,
            "componentType" : 5126,
            "count" : 104,
            "type" : "VEC3"
        },
        {
            "bufferView" : 2,
            "componentType" : 5126,
            "count" : 104,
            "type" : "VEC2"
        },
        {
            "bufferView" : 3,
            "componentType" : 5123,
            "count" : 156,
            "type" : "SCALAR"
        },
        {
            "bufferView" : 4,
            "componentType" : 5126,
            "count" : 4,
            "max" : [
                113.56494903564453,
                -14.633405685424805,
                17.821331024169922
            ],
            "min" : [
                -110.51091766357422,
                -14.633405685424805,
                -80.02046203613281
            ],
            "type" : "VEC3"
        },
        {
            "bufferView" : 5,
            "componentType" : 5126,
            "count" : 4,
            "type" : "VEC3"
        },
        {
            "bufferView" : 6,
            "componentType" : 5126,
            "count" : 4,
            "type" : "VEC2"
        },
        {
            "bufferView" : 7,
            "componentType" : 5123,
            "count" : 6,
            "type" : "SCALAR"
        },
        {
            "bufferView" : 8,
            "componentType" : 5126,
            "count" : 72,
            "max" : [
                9.2304048538208,
                4.438475608825684,
                14.941524505615234
            ],
            "min" : [
                -9.243850708007812,
                -0.9766979217529297,
                -80.15301513671875
            ],
            "type" : "VEC3"
        },
        {
            "bufferView" : 9,
            "componentType" : 5126,
            "count" : 72,
            "type" : "VEC3"
        },
        {
            "bufferView" : 10,
            "componentType" : 5126,
            "count" : 72,
            "type" : "VEC2"
        },
        {
            "bufferView" : 11,
            "componentType" : 5123,
            "count" : 108,
            "type" : "SCALAR"
        },
        {
            "bufferView" : 12,
            "componentType" : 5126,
            "count" : 228,
            "max" : [
                118.63711547851562,
                42.69248580932617,
                93.06261444091797
            ],
            "min" : [
                -115.39604949951172,
                -25.67510414123535,
                -146.2215576171875
            ],
            "type" : "VEC3"
        },
        {
            "bufferView" : 13,
            "componentType" : 5126,
            "count" : 228,
            "type" : "VEC3"
        },
        {
            "bufferView" : 14,
            "componentType" : 5126,
            "count" : 228,
            "type" : "VEC2"
        },
        {
            "bufferView" : 15,
            "componentType" : 5123,
            "count" : 342,
            "type" : "SCALAR"
        },
        {
            "bufferView" : 16,
            "componentType" : 5126,
            "count" : 48,
            "max" : [
                118.63711547851562,
                -9.933395385742188,
                18.49812126159668
            ],
            "min" : [
                -115.30082702636719,
                -17.476760864257812,
                -79.7665786743164
            ],
            "type" : "VEC3"
        },
        {
            "bufferView" : 17,
            "componentType" : 5126,
            "count" : 48,
            "type" : "VEC3"
        },
        {
            "bufferView" : 18,
            "componentType" : 5126,
            "count" : 48,
            "type" : "VEC2"
        },
        {
            "bufferView" : 19,
            "componentType" : 5123,
            "count" : 72,
            "type" : "SCALAR"
        },
        {
            "bufferView" : 20,
            "componentType" : 5126,
            "count" : 180,
            "max" : [
                17.545087814331055,
                44.69895553588867,
                40.53728485107422
            ],
            "min" : [
                -14.981362342834473,
                -8.650386810302734,
                -98.19457244873047
            ],
            "type" : "VEC3"
        },
        {
            "bufferView" : 21,
            "componentType" : 5126,
            "count" : 180,
            "type" : "VEC3"
        },
        {
            "bufferView" : 22,
            "componentType" : 5126,
            "count" : 180,
            "type" : "VEC2"
        },
        {
            "bufferView" : 23,
            "componentType" : 5123,
            "count" : 252,
            "type" : "SCALAR"
        },
        {
            "bufferView" : 24,
            "componentType" : 5126,
            "count" : 24,
            "max" : [
                1,
                1,
                1
            ],
            "min" : [
                -1,
                -1,
                -1
            ],
            "type" : "VEC3"
        },
        {
            "bufferView" : 25,
            "componentType" : 5126,
            "count" : 24,
            "type" : "VEC3"
        },
        {
            "bufferView" : 26,
            "componentType" : 5123,
            "count" : 36,
            "type" : "SCALAR"
        }
    ],
    "bufferViews" : [
        {
            "buffer" : 0,
            "byteLength" : 1248,
            "byteOffset" : 0
        },
        {
            "buffer" : 0,
            "byteLength" : 1248,
            "byteOffset" : 1248
        },
        {
            "buffer" : 0,
            "byteLength" : 832,
            "byteOffset" : 2496
        },
        {
            "buffer" : 0,
            "byteLength" : 312,
            "byteOffset" : 3328
        },
        {
            "buffer" : 0,
            "byteLength" : 48,
            "byteOffset" : 3640
        },
        {
            "buffer" : 0,
            "byteLength" : 48,
            "byteOffset" : 3688
        },
        {
            "buffer" : 0,
            "byteLength" : 32,
            "byteOffset" : 3736
        },
        {
            "buffer" : 0,
            "byteLength" : 12,
            "byteOffset" : 3768
        },
        {
            "buffer" : 0,
            "byteLength" : 864,
            "byteOffset" : 3780
        },
        {
            "buffer" : 0,
            "byteLength" : 864,
            "byteOffset" : 4644
        },
        {
            "buffer" : 0,
            "byteLength" : 576,
            "byteOffset" : 5508
        },
        {
            "buffer" : 0,
            "byteLength" : 216,
            "byteOffset" : 6084
        },
        {
            "buffer" : 0,
            "byteLength" : 2736,
            "byteOffset" : 6300
        },
        {
            "buffer" : 0,
            "byteLength" : 2736,
            "byteOffset" : 9036
        },
        {
            "buffer" : 0,
            "byteLength" : 1824,
            "byteOffset" : 11772
        },
        {
            "buffer" : 0,
            "byteLength" : 684,
            "byteOffset" : 13596
        },
        {
            "buffer" : 0,
            "byteLength" : 576,
            "byteOffset" : 14280
        },
        {
            "buffer" : 0,
            "byteLength" : 576,
            "byteOffset" : 14856
        },
        {
            "buffer" : 0,
            "byteLength" : 384,
            "byteOffset" : 15432
        },
        {
            "buffer" : 0,
            "byteLength" : 144,
            "byteOffset" : 15816
        },
        {
            "buffer" : 0,
            "byteLength" : 2160,
            "byteOffset" : 15960
        },
        {
            "buffer" : 0,
            "byteLength" : 2160,
            "byteOffset" : 18120
        },
        {
            "buffer" : 0,
            "byteLength" : 1440,
            "byteOffset" : 20280
        },
        {
            "buffer" : 0,
            "byteLength" : 504,
            "byteOffset" : 21720
        },
        {
            "buffer" : 0,
            "byteLength" : 288,
            "byteOffset" : 22224
        },
        {
            "buffer" : 0,
            "byteLength" : 288,
            "byteOffset" : 22512
        },
        {
            "buffer" : 0,
            "byteLength" : 72,
            "byteOffset" : 22800
        }
    ],
    "buffers" : [
        {
            "byteLength" : 22872,
            "uri" : "data:application/octet-stream;base64,"
        }
    ]
}
