{
    "asset" : {
        "generator" : "Khronos glTF Blender I/O v1.1.45",
        "version" : "2.0"
    },
    "scene" : 0,
    "scenes" : [
        {
            "name" : "Scene",
            "nodes" : [
                0,
                1
            ]
        }
    ],
    "nodes" : [
        {
            "mesh" : 0,
            "name" : "bridge_stone"
        },
        {
            "mesh" : 1,
            "name" : "REF",
            "translation" : [
                0,
                1,
                0
            ]
        }
    ],
    "materials" : [
        {
            "doubleSided" : true,
            "name" : "mat1",
            "pbrMetallicRoughness" : {}
        },
        {
            "doubleSided" : true,
            "name" : "mat2",
            "pbrMetallicRoughness" : {}
        },
        {
            "doubleSided" : true,
            "name" : "mat3",
            "pbrMetallicRoughness" : {}
        },
        {
            "doubleSided" : true,
            "name" : "mat4",
            "pbrMetallicRoughness" : {}
        },
        {
            "doubleSided" : true,
            "name" : "mat5",
            "pbrMetallicRoughness" : {}
        }
    ],
    "meshes" : [
        {
            "name" : "bridge_stone",
            "primitives" : [
                {
                    "attributes" : {
                        "POSITION" : 0,
                        "NORMAL" : 1,
                        "TEXCOORD_0" : 2
                    },
                    "indices" : 3,
                    "material" : 0
                },
                {
                    "attributes" : {
                        "POSITION" : 4,
                        "NORMAL" : 5,
                        "TEXCOORD_0" : 6
                    },
                    "indices" : 7,
                    "material" : 1
                },
                {
                    "attributes" : {
                        "POSITION" : 8,
                        "NORMAL" : 9,
                        "TEXCOORD_0" : 10
                    },
                    "indices" : 11,
                    "material" : 2
                },
                {
                    "attributes" : {
                        "POSITION" : 12,
                        "NORMAL" : 13,
                        "TEXCOORD_0" : 14
                    },
                    "indices" : 15,
                    "material" : 3
                },
                {
                    "attributes" : {
                        "POSITION" : 16,
                        "NORMAL" : 17,
                        "TEXCOORD_0" : 18
                    },
                    "indices" : 19,
                    "material" : 4
                }
            ]
        },
        {
            "name" : "REF",
            "primitives" : [
                {
                    "attributes" : {
                        "POSITION" : 20,
                        "NORMAL" : 21
                    },
                    "indices" : 22
                }
            ]
        }
    ],
    "accessors" : [
        {
            "bufferView" : 0,
            "componentType" : 5126,
            "count" : 104,
            "max" : [
                10.085794448852539,
                1.1221364736557007,
                8.589109420776367
            ],
            "min" : [
                -10.147966384887695,
                -15.817062377929688,
                -89.53359985351562
            ],
            "type" : "VEC3"
        },
        {
            "bufferView" : 1,
            "componentType" : 5126,
            "count" : 104,
            "type" : "VEC3"
        },
        {
            "bufferView" : 2,
            "componentType" : 5126,
            "count" : 104,
            "type" : "VEC2"
        },
        {
            "bufferView" : 3,
            "componentType" : 5123,
            "count" : 156,
            "type" : "SCALAR"
        },
        {
            "bufferView" : 4,
            "componentType" : 5126,
            "count" : 4,
            "max" : [
                113.56494903564453,
                -14.291037559509277,
                8.675310134887695
            ],
            "min" : [
                -110.51091766357422,
                -14.291037559509277,
                -89.1664810180664
            ],
            "type" : "VEC3"
        },
        {
            "bufferView" : 5,
            "componentType" : 5126,
            "count" : 4,
            "type" : "VEC3"
        },
        {
            "bufferView" : 6,
            "componentType" : 5126,
            "count" : 4,
            "type" : "VEC2"
        },
        {
            "bufferView" : 7,
            "componentType" : 5123,
            "count" : 6,
            "type" : "SCALAR"
        },
        {
            "bufferView" : 8,
            "componentType" : 5126,
            "count" : 40,
            "max" : [
                9.2304048538208,
                2.4235215187072754,
                -4.521566390991211
            ],
            "min" : [
                -9.243850708007812,
                -0.5280545949935913,
                -76.80584716796875
            ],
            "type" : "VEC3"
        },
        {
            "bufferView" : 9,
            "componentType" : 5126,
            "count" : 40,
            "type" : "VEC3"
        },
        {
            "bufferView" : 10,
            "componentType" : 5126,
            "count" : 40,
            "type" : "VEC2"
        },
        {
            "bufferView" : 11,
            "componentType" : 5123,
            "count" : 60,
            "type" : "SCALAR"
        },
        {
            "bufferView" : 12,
            "componentType" : 5126,
            "count" : 228,
            "max" : [
                118.63711547851562,
                43.034854888916016,
                83.91659545898438
            ],
            "min" : [
                -115.39604949951172,
                -25.33273696899414,
                -154.15174865722656
            ],
            "type" : "VEC3"
        },
        {
            "bufferView" : 13,
            "componentType" : 5126,
            "count" : 228,
            "type" : "VEC3"
        },
        {
            "bufferView" : 14,
            "componentType" : 5126,
            "count" : 228,
            "type" : "VEC2"
        },
        {
            "bufferView" : 15,
            "componentType" : 5123,
            "count" : 342,
            "type" : "SCALAR"
        },
        {
            "bufferView" : 16,
            "componentType" : 5126,
            "count" : 48,
            "max" : [
                118.63711547851562,
                -10.564245223999023,
                9.352099418640137
            ],
            "min" : [
                -115.30082702636719,
                -17.1343936920166,
                -87.6985092163086
            ],
            "type" : "VEC3"
        },
        {
            "bufferView" : 17,
            "componentType" : 5126,
            "count" : 48,
            "type" : "VEC3"
        },
        {
            "bufferView" : 18,
            "componentType" : 5126,
            "count" : 48,
            "type" : "VEC2"
        },
        {
            "bufferView" : 19,
            "componentType" : 5123,
            "count" : 72,
            "type" : "SCALAR"
        },
        {
            "bufferView" : 20,
            "componentType" : 5126,
            "count" : 24,
            "max" : [
                1,
                1,
                1
            ],
            "min" : [
                -1,
                -1,
                -1
            ],
            "type" : "VEC3"
        },
        {
            "bufferView" : 21,
            "componentType" : 5126,
            "count" : 24,
            "type" : "VEC3"
        },
        {
            "bufferView" : 22,
            "componentType" : 5123,
            "count" : 36,
            "type" : "SCALAR"
        }
    ],
    "bufferViews" : [
        {
            "buffer" : 0,
            "byteLength" : 1248,
            "byteOffset" : 0
        },
        {
            "buffer" : 0,
            "byteLength" : 1248,
            "byteOffset" : 1248
        },
        {
            "buffer" : 0,
            "byteLength" : 832,
            "byteOffset" : 2496
        },
        {
            "buffer" : 0,
            "byteLength" : 312,
            "byteOffset" : 3328
        },
        {
            "buffer" : 0,
            "byteLength" : 48,
            "byteOffset" : 3640
        },
        {
            "buffer" : 0,
            "byteLength" : 48,
            "byteOffset" : 3688
        },
        {
            "buffer" : 0,
            "byteLength" : 32,
            "byteOffset" : 3736
        },
        {
            "buffer" : 0,
            "byteLength" : 12,
            "byteOffset" : 3768
        },
        {
            "buffer" : 0,
            "byteLength" : 480,
            "byteOffset" : 3780
        },
        {
            "buffer" : 0,
            "byteLength" : 480,
            "byteOffset" : 4260
        },
        {
            "buffer" : 0,
            "byteLength" : 320,
            "byteOffset" : 4740
        },
        {
            "buffer" : 0,
            "byteLength" : 120,
            "byteOffset" : 5060
        },
        {
            "buffer" : 0,
            "byteLength" : 2736,
            "byteOffset" : 5180
        },
        {
            "buffer" : 0,
            "byteLength" : 2736,
            "byteOffset" : 7916
        },
        {
            "buffer" : 0,
            "byteLength" : 1824,
            "byteOffset" : 10652
        },
        {
            "buffer" : 0,
            "byteLength" : 684,
            "byteOffset" : 12476
        },
        {
            "buffer" : 0,
            "byteLength" : 576,
            "byteOffset" : 13160
        },
        {
            "buffer" : 0,
            "byteLength" : 576,
            "byteOffset" : 13736
        },
        {
            "buffer" : 0,
            "byteLength" : 384,
            "byteOffset" : 14312
        },
        {
            "buffer" : 0,
            "byteLength" : 144,
            "byteOffset" : 14696
        },
        {
            "buffer" : 0,
            "byteLength" : 288,
            "byteOffset" : 14840
        },
        {
            "buffer" : 0,
            "byteLength" : 288,
            "byteOffset" : 15128
        },
        {
            "buffer" : 0,
            "byteLength" : 72,
            "byteOffset" : 15416
        }
    ],
    "buffers" : [
        {
            "byteLength" : 15488,
            "uri" : "data:application/octet-stream;base64,"
        }
    ]
}
