# Blender v2.82 (sub 7) OBJ File: 'floor_pyramids.blend'
# www.blender.org
mtllib floor_pyramids.mtl
o floor_pyramids
v 20.000000 2.000000 -20.000000
v 20.000000 0.000000 -20.000000
v 20.000000 2.000000 20.000000
v 20.000000 0.000000 20.000000
v -20.000000 2.000000 -20.000000
v -20.000000 0.000000 -20.000000
v -20.000000 2.000000 20.000000
v -20.000000 0.000000 20.000000
v -18.000000 2.000000 -9.000000
v -14.000000 20.000000 -13.000000
v -18.000000 2.000000 -17.000000
v -10.000000 2.000000 -9.000000
v -10.000000 2.000000 -17.000000
v 5.000000 2.000000 11.000000
v 9.000000 19.000000 7.000000
v 5.000000 2.000000 3.000000
v 13.000000 2.000000 11.000000
v 13.000000 2.000000 3.000000
v 17.000000 2.000000 -13.000000
v 17.000000 2.000000 -5.000000
v 9.000000 2.000000 -13.000000
v 13.000000 15.000000 -9.000000
v 9.000000 2.000000 -5.000000
v -8.000000 2.000000 8.000000
v -7.000000 2.000000 5.000000
v -3.000000 20.000000 1.000000
v -7.000000 2.000000 -3.000000
v 1.000000 2.000000 5.000000
v 1.000000 2.000000 -3.000000
v -8.000000 2.000000 16.000000
v -16.000000 2.000000 8.000000
v -12.000000 17.000000 12.000000
v -16.000000 2.000000 16.000000
vt 0.023988 0.999812
vt 0.023988 0.976011
vt 0.500000 0.976012
vt 0.500000 0.999812
vt 0.523801 0.976012
vt 0.500000 0.500000
vt 0.523801 0.500000
vt 0.023989 0.000188
vt 0.500000 0.000188
vt 0.500000 0.476200
vt 0.023989 0.476199
vt 0.000188 0.500000
vt 0.023989 0.500000
vt 0.000188 0.976011
vt 0.524176 0.000188
vt 0.746571 0.031113
vt 0.531353 0.095119
vt 0.577220 0.178544
vt 0.653532 0.235464
vt 0.746571 0.255647
vt 0.733135 0.772666
vt 0.525305 0.725065
vt 0.733135 0.677464
vt 0.691698 0.591752
vt 0.617087 0.532620
vt 0.524176 0.511857
vt 0.746946 0.086669
vt 0.913883 0.111104
vt 0.760296 0.180931
vt 0.786751 0.000188
vt 0.822549 0.252959
vt 0.913883 0.279820
vt 0.653532 0.491299
vt 0.746571 0.286947
vt 0.746571 0.511481
vt 0.577220 0.434378
vt 0.524176 0.256022
vt 0.531353 0.350954
vt 0.762544 0.600958
vt 0.923968 0.702633
vt 0.733510 0.691625
vt 0.831777 0.535611
vt 0.923968 0.511857
vt 0.751905 0.785034
vn 0.0000 0.0000 -1.0000
vn 1.0000 0.0000 0.0000
vn 0.0000 -1.0000 0.0000
vn -1.0000 0.0000 0.0000
vn 0.0000 1.0000 0.0000
vn 0.0000 0.0000 1.0000
vn -0.9762 0.2169 0.0000
vn 0.0000 0.2169 -0.9762
vn 0.9762 0.2169 0.0000
vn 0.0000 0.2169 0.9762
vn -0.9734 0.2290 0.0000
vn 0.0000 0.2290 -0.9734
vn 0.9734 0.2290 0.0000
vn 0.0000 0.2290 0.9734
vn 0.0000 0.2941 -0.9558
vn -0.9558 0.2941 0.0000
vn 0.9558 0.2941 0.0000
vn 0.0000 0.2941 0.9558
vn 0.9662 0.2577 0.0000
vn 0.0000 0.2577 -0.9662
vn -0.9662 0.2577 0.0000
vn 0.0000 0.2577 0.9662
usemtl mat1
s off
f 6/1/1 5/2/1 1/3/1 2/4/1
f 2/5/2 1/3/2 3/6/2 4/7/2
f 6/8/3 2/9/3 4/10/3 8/11/3
f 8/12/4 7/13/4 5/2/4 6/14/4
f 1/3/5 5/2/5 7/13/5 3/6/5
f 4/10/6 3/6/6 7/13/6 8/11/6
usemtl mat2
f 9/15/7 10/16/7 11/17/7
f 11/17/8 10/16/8 13/18/8
f 13/18/9 10/16/9 12/19/9
f 12/19/10 10/16/10 9/20/10
f 14/21/11 15/22/11 16/23/11
f 16/23/12 15/22/12 18/24/12
f 18/24/13 15/22/13 17/25/13
f 17/25/14 15/22/14 14/26/14
f 21/27/15 22/28/15 19/29/15
f 23/30/16 22/28/16 21/27/16
f 19/29/17 22/28/17 20/31/17
f 20/31/18 22/28/18 23/32/18
f 28/33/10 26/34/10 25/35/10
f 29/36/9 26/34/9 28/33/9
f 25/37/7 26/34/7 27/38/7
f 27/38/8 26/34/8 29/36/8
f 24/39/19 32/40/19 30/41/19
f 31/42/20 32/40/20 24/39/20
f 33/43/21 32/40/21 31/42/21
f 30/41/22 32/40/22 33/44/22
