# Blender v2.82 (sub 7) OBJ File: 'floor.blend'
# www.blender.org
mtllib floor.mtl
o floor
v 18.000000 1.000000 -18.000000
v 18.000000 -1.000000 -18.000000
v 18.000000 1.000000 18.000000
v 18.000000 -1.000000 18.000000
v -18.000000 1.000000 -18.000000
v -18.000000 -1.000000 -18.000000
v -18.000000 1.000000 18.000000
v -18.000000 -1.000000 18.000000
vt 0.909091 0.500000
vt 0.863636 0.500000
vt 0.863636 0.000000
vt 0.909091 0.000000
vt 0.863636 0.500000
vt 0.818182 0.500000
vt 0.818181 0.000000
vt 0.863636 0.000000
vt 0.000000 0.000000
vt 0.818181 0.000000
vt 0.818181 0.500000
vt 0.000000 0.500000
vt 1.000000 0.500000
vt 0.954545 0.500000
vt 0.954545 0.000000
vt 1.000000 0.000000
vt 0.818181 1.000000
vt 0.000000 1.000000
vt 0.000000 0.500000
vt 0.818181 0.500000
vt 0.909091 0.000000
vt 0.954545 0.000000
vt 0.909091 0.500000
vn 0.0000 0.0000 -1.0000
vn 1.0000 0.0000 0.0000
vn 0.0000 -1.0000 0.0000
vn -1.0000 0.0000 0.0000
vn 0.0000 1.0000 0.0000
vn 0.0000 0.0000 1.0000
usemtl mat1
s off
f 6/1/1 5/2/1 1/3/1 2/4/1
f 2/5/2 1/6/2 3/7/2 4/8/2
f 6/9/3 2/10/3 4/11/3 8/12/3
f 8/13/4 7/14/4 5/15/4 6/16/4
f 1/17/5 5/18/5 7/19/5 3/20/5
f 4/21/6 3/22/6 7/14/6 8/23/6
