# Blender v2.82 (sub 7) OBJ File: 'floor_bridge.blend'
# www.blender.org
mtllib floor_bridge.mtl
o floor_bridge
v 20.000000 2.000000 -20.000000
v 20.000000 0.000000 -20.000000
v 20.000000 2.000000 20.000000
v 20.000000 0.000000 20.000000
v -20.000000 2.000000 -20.000000
v -20.000000 0.000000 -20.000000
v -20.000000 2.000000 20.000000
v -20.000000 0.000000 20.000000
v -16.000000 0.000000 16.000000
v -16.000000 2.000000 16.000000
v -16.000000 0.000000 -16.000000
v -16.000000 2.000000 -16.000000
v 16.000000 0.000000 16.000000
v 16.000000 2.000000 16.000000
v 16.000000 0.000000 -16.000000
v 16.000000 2.000000 -16.000000
v -4.000000 2.000000 16.000000
v -4.000000 0.000000 16.000000
v 4.000000 0.000000 16.000000
v 4.000000 2.000000 16.000000
v -4.000000 0.000000 -16.000000
v -4.000000 2.000000 -16.000000
v 4.000000 2.000000 -16.000000
v 4.000000 0.000000 -16.000000
vt 0.022822 0.954455
vt 0.022822 0.931732
vt 0.477277 0.931732
vt 0.477277 0.954454
vt 0.499999 0.931732
vt 0.477277 0.477277
vt 0.499999 0.477277
vt 0.500198 0.136436
vt 0.500198 0.000099
vt 0.522921 0.000099
vt 0.522921 0.136436
vt 0.000099 0.477277
vt 0.022822 0.477277
vt 0.000099 0.931732
vt 0.477277 0.454554
vt 0.022822 0.454554
vt 0.545842 0.136435
vt 0.545842 0.499999
vt 0.523119 0.500000
vt 0.523119 0.136435
vt 0.500198 0.636336
vt 0.500198 0.500000
vt 0.522921 0.500000
vt 0.522921 0.636336
vt 0.545842 0.000099
vt 0.523119 0.000099
vt 0.545842 0.636336
vt 0.523119 0.636336
vt 0.523119 0.999901
vt 0.545842 0.999901
vt 0.522921 0.999901
vt 0.500198 0.999901
vt 0.295495 0.522722
vt 0.204604 0.522722
vt 0.431831 0.522722
vt 0.431831 0.886286
vt 0.295495 0.886286
vt 0.204604 0.886286
vt 0.068267 0.886286
vt 0.068267 0.522722
vt 0.431831 0.045545
vt 0.295495 0.045545
vt 0.477277 0.000099
vt 0.204604 0.045545
vt 0.068267 0.045545
vt 0.022822 0.000100
vt 0.431831 0.409109
vt 0.295495 0.409109
vt 0.204604 0.409109
vt 0.068268 0.409109
vn 0.0000 0.0000 -1.0000
vn 1.0000 0.0000 0.0000
vn -1.0000 0.0000 0.0000
vn 0.0000 0.0000 1.0000
vn 0.0000 1.0000 0.0000
vn 0.0000 -1.0000 0.0000
usemtl mat1
s off
f 6/1/1 5/2/1 1/3/1 2/4/1
f 2/5/2 1/3/2 3/6/2 4/7/2
f 13/8/1 19/9/1 20/10/1 14/11/1
f 8/12/3 7/13/3 5/2/3 6/14/3
f 4/15/4 3/6/4 7/13/4 8/16/4
f 9/17/2 11/18/2 12/19/2 10/20/2
f 24/21/4 15/22/4 16/23/4 23/24/4
f 15/22/3 13/8/3 14/11/3 16/23/3
f 18/25/1 9/17/1 10/20/1 17/26/1
f 11/18/4 21/27/4 22/28/4 12/19/4
f 17/29/3 22/28/3 21/27/3 18/30/3
f 20/31/2 19/32/2 24/21/2 23/24/2
f 7/13/5 3/6/5 20/33/5 17/34/5
f 20/33/5 3/6/5 14/35/5
f 3/6/5 1/3/5 16/36/5 14/35/5
f 16/36/5 1/3/5 23/37/5
f 1/3/5 5/2/5 22/38/5 23/37/5
f 22/38/5 5/2/5 12/39/5
f 10/40/5 7/13/5 17/34/5
f 5/2/5 7/13/5 10/40/5 12/39/5
f 22/38/5 17/34/5 20/33/5 23/37/5
f 15/41/6 24/42/6 2/43/6
f 21/44/6 11/45/6 6/46/6
f 6/46/6 2/43/6 24/42/6 21/44/6
f 2/43/6 4/15/6 13/47/6 15/41/6
f 13/47/6 4/15/6 19/48/6
f 4/15/6 8/16/6 18/49/6 19/48/6
f 18/49/6 8/16/6 9/50/6
f 8/16/6 6/46/6 11/45/6 9/50/6
f 21/44/6 24/42/6 19/48/6 18/49/6
