# Blender v2.82 (sub 7) OBJ File: 'floor_blocks.blend'
# www.blender.org
mtllib floor_blocks.mtl
o floor_blocks
v 20.000000 2.000000 -20.000000
v 20.000000 0.000000 -20.000000
v 20.000000 2.000000 20.000000
v 20.000000 0.000000 20.000000
v -20.000000 2.000000 -20.000000
v -20.000000 0.000000 -20.000000
v -20.000000 2.000000 20.000000
v -20.000000 0.000000 20.000000
v -16.000000 2.000000 -10.000000
v -16.000000 10.000000 -10.000000
v -16.000000 2.000000 -16.000000
v -16.000000 10.000000 -16.000000
v -10.000000 2.000000 -10.000000
v -10.000000 10.000000 -10.000000
v -10.000000 2.000000 -16.000000
v -10.000000 10.000000 -16.000000
v 7.000000 2.000000 -2.000000
v 7.000000 14.000000 -2.000000
v 7.000000 2.000000 -12.000000
v 7.000000 14.000000 -12.000000
v 13.000000 2.000000 -2.000000
v 13.000000 14.000000 -2.000000
v 13.000000 2.000000 -12.000000
v 13.000000 14.000000 -12.000000
v -16.000000 2.000000 18.000000
v -16.000000 20.000000 18.000000
v -16.000000 2.000000 10.000000
v -16.000000 20.000000 10.000000
v 0.000000 2.000000 18.000000
v 0.000000 20.000000 18.000000
v 0.000000 2.000000 10.000000
v 0.000000 20.000000 10.000000
v 10.000000 2.000000 8.000000
v 10.000000 10.000000 8.000000
v 10.000000 2.000000 2.000000
v 10.000000 10.000000 2.000000
v 16.000000 2.000000 8.000000
v 16.000000 10.000000 8.000000
v 16.000000 2.000000 2.000000
v 16.000000 10.000000 2.000000
vt 0.022261 0.927215
vt 0.022261 0.905143
vt 0.463702 0.905143
vt 0.463702 0.927215
vt 0.485774 0.905143
vt 0.463702 0.463702
vt 0.485774 0.463702
vt 0.022261 0.000189
vt 0.463702 0.000189
vt 0.463702 0.441630
vt 0.022261 0.441630
vt 0.000189 0.463702
vt 0.022261 0.463702
vt 0.000189 0.905143
vt 0.876712 0.999811
vt 0.814282 0.937382
vt 0.861104 0.890560
vt 0.923533 0.952989
vt 0.923533 0.828131
vt 0.814282 0.843738
vt 0.876712 0.781309
vt 0.751853 0.781309
vt 0.767461 0.890560
vt 0.705031 0.828131
vt 0.705031 0.952989
vt 0.751853 0.999811
vt 0.798298 0.546822
vt 0.704654 0.640466
vt 0.626617 0.562429
vt 0.720261 0.468785
vt 0.532974 0.468785
vt 0.579795 0.609251
vt 0.486152 0.515607
vt 0.486152 0.702895
vt 0.657832 0.687288
vt 0.564188 0.780931
vt 0.751476 0.780931
vt 0.798297 0.734109
vt 0.486152 0.405979
vt 0.626617 0.265513
vt 0.689046 0.327942
vt 0.548581 0.468408
vt 0.829512 0.468408
vt 0.813905 0.203084
vt 0.954370 0.343549
vt 0.954370 0.062618
vt 0.751476 0.140655
vt 0.891941 0.000189
vt 0.611010 0.000189
vt 0.486152 0.125047
vt 0.657832 0.999811
vt 0.595403 0.937382
vt 0.642224 0.890560
vt 0.704654 0.952989
vt 0.704654 0.828131
vt 0.595403 0.843738
vt 0.657832 0.781309
vt 0.532973 0.781309
vt 0.548581 0.890560
vt 0.486152 0.828131
vt 0.486152 0.952989
vt 0.532973 0.999811
vn 0.0000 0.0000 -1.0000
vn 1.0000 0.0000 0.0000
vn 0.0000 -1.0000 0.0000
vn -1.0000 0.0000 0.0000
vn 0.0000 1.0000 0.0000
vn 0.0000 0.0000 1.0000
usemtl mat1
s off
f 6/1/1 5/2/1 1/3/1 2/4/1
f 2/5/2 1/3/2 3/6/2 4/7/2
f 6/8/3 2/9/3 4/10/3 8/11/3
f 8/12/4 7/13/4 5/2/4 6/14/4
f 1/3/5 5/2/5 7/13/5 3/6/5
f 4/10/6 3/6/6 7/13/6 8/11/6
usemtl mat2
f 9/15/4 10/16/4 12/17/4 11/18/4
f 11/19/1 12/17/1 16/20/1 15/21/1
f 15/22/2 16/20/2 14/23/2 13/24/2
f 13/25/6 14/23/6 10/16/6 9/26/6
f 17/27/4 18/28/4 20/29/4 19/30/4
f 16/20/5 12/17/5 10/16/5 14/23/5
f 19/31/1 20/29/1 24/32/1 23/33/1
f 23/34/2 24/32/2 22/35/2 21/36/2
f 21/37/6 22/35/6 18/28/6 17/38/6
f 24/32/5 20/29/5 18/28/5 22/35/5
f 25/39/4 26/40/4 28/41/4 27/42/4
f 27/43/1 28/41/1 32/44/1 31/45/1
f 31/46/2 32/44/2 30/47/2 29/48/2
f 29/49/6 30/47/6 26/40/6 25/50/6
f 32/44/5 28/41/5 26/40/5 30/47/5
f 33/51/4 34/52/4 36/53/4 35/54/4
f 35/55/1 36/53/1 40/56/1 39/57/1
f 39/58/2 40/56/2 38/59/2 37/60/2
f 37/61/6 38/59/6 34/52/6 33/62/6
f 40/56/5 36/53/5 34/52/5 38/59/5
