# Blender v2.82 (sub 7) OBJ File: 'test_flat.blend'
# www.blender.org
mtllib test_flat.mtl
o test_flat
v 20.000000 1.000000 -20.000000
v 20.000000 -1.000000 -20.000000
v 20.000000 1.000000 20.000000
v 20.000000 -1.000000 20.000000
v -20.000000 1.000000 -20.000000
v -20.000000 -1.000000 -20.000000
v -20.000000 1.000000 20.000000
v -20.000000 -1.000000 20.000000
vt 0.499855 0.000145
vt 0.499855 0.499855
vt 0.000145 0.499855
vt 0.000145 0.000145
vt 0.999855 0.000145
vt 0.999855 0.499855
vt 0.500144 0.499855
vt 0.500144 0.000145
vt 0.525131 0.999855
vt 0.500145 0.999855
vt 0.500145 0.500144
vt 0.525131 0.500144
vt 0.000145 0.550405
vt 0.000145 0.525419
vt 0.499856 0.525420
vt 0.499856 0.550405
vt 0.499856 0.550694
vt 0.499856 0.575680
vt 0.000145 0.575680
vt 0.000145 0.550694
vt 0.000145 0.525130
vt 0.000145 0.500144
vt 0.499856 0.500145
vt 0.499856 0.525130
vn 0.0000 -1.0000 0.0000
vn 0.0000 1.0000 0.0000
vn 0.0000 0.0000 -1.0000
vn 1.0000 0.0000 0.0000
vn -1.0000 0.0000 0.0000
vn 0.0000 0.0000 1.0000
usemtl mat1
s off
f 6/1/1 2/2/1 4/3/1 8/4/1
f 1/5/2 5/6/2 7/7/2 3/8/2
usemtl mat2
f 6/9/3 5/10/3 1/11/3 2/12/3
f 2/13/4 1/14/4 3/15/4 4/16/4
f 8/17/5 7/18/5 5/19/5 6/20/5
f 4/21/6 3/22/6 7/23/6 8/24/6
