# Blender v2.82 (sub 7) OBJ File: 'test_stairs.blend'
# www.blender.org
mtllib test_stairs.mtl
o tile_test_v
v 20.000000 1.000000 -20.000000
v 20.000000 -1.000000 -20.000000
v 20.000000 1.000000 20.000000
v 20.000000 -1.000000 20.000000
v -20.000000 1.000000 -20.000000
v -20.000000 -1.000000 -20.000000
v -20.000000 1.000000 20.000000
v -20.000000 -1.000000 20.000000
v 12.000000 -1.000000 16.000000
v 12.000000 1.000000 16.000000
v 12.000000 -1.000000 4.000000
v 12.000000 1.000000 4.000000
v 16.000000 -1.000000 16.000000
v 16.000000 1.000000 16.000000
v 16.000000 -1.000000 4.000000
v 16.000000 1.000000 4.000000
v 12.000000 -21.000000 -16.000000
v 12.000000 -19.000000 -16.000000
v 16.000000 -21.000000 -16.000000
v 16.000000 -19.000000 -16.000000
vn 0.0000 1.0000 0.0000
vn 0.0000 -1.0000 0.0000
vn 0.0000 0.0000 -1.0000
vn 1.0000 0.0000 0.0000
vn -1.0000 0.0000 0.0000
vn 0.0000 -0.8480 0.5300
vn 0.0000 0.0000 1.0000
vn 0.0000 0.8480 -0.5300
usemtl mat1
s off
f 5//1 7//1 10//1 12//1
f 7//1 3//1 14//1 10//1
f 3//1 1//1 16//1 14//1
f 1//1 5//1 12//1 16//1
f 8//2 6//2 11//2 9//2
f 4//2 8//2 9//2 13//2
f 2//2 4//2 13//2 15//2
f 6//2 2//2 15//2 11//2
usemtl mat2
f 6//3 5//3 1//3 2//3
f 2//4 1//4 3//4 4//4
f 14//4 13//4 19//4 20//4
f 8//5 7//5 5//5 6//5
f 13//6 9//6 17//6 19//6
f 4//7 3//7 7//7 8//7
f 9//4 11//4 12//4 10//4
f 11//7 15//7 16//7 12//7
f 15//5 13//5 14//5 16//5
f 9//5 10//5 18//5 17//5
f 19//3 17//3 18//3 20//3
f 10//8 14//8 20//8 18//8
