# Blender v2.82 (sub 7) OBJ File: 'tower_base.blend'
# www.blender.org
mtllib tower_base.mtl
o tower_base
v 0.000000 0.000000 0.000000
v 0.000000 3.021069 0.000000
v -0.279263 0.520397 -0.884326
v -0.279263 1.063612 -0.884326
v 0.707107 0.000000 -0.707107
v 0.707107 3.021069 -0.707107
v 0.889239 1.755395 0.267401
v 0.889239 2.271564 0.267401
v 0.424606 0.547264 0.824122
v 0.424606 1.077011 0.824122
v 0.282500 0.547264 0.882984
v 0.282500 1.077011 0.882984
v -0.707107 0.000000 0.707107
v -0.707107 3.021069 0.707107
v -0.892924 1.787281 -0.258504
v -0.892924 2.353181 -0.258504
v -0.427844 0.520397 -0.822781
v -0.427844 1.063612 -0.822781
v 0.817868 2.271564 0.439706
v 0.817868 1.755395 0.439706
v -0.000000 0.000000 1.000000
v -0.000000 3.021069 1.000000
v 1.000000 3.021069 0.000000
v 1.000000 0.000000 0.000000
v 0.707107 0.000000 0.707107
v 0.707107 3.021069 0.707107
v 0.000000 0.000000 -1.000000
v 0.000000 3.021069 -1.000000
v -0.814183 2.353181 -0.448603
v -0.814183 1.787281 -0.448603
v -1.000000 3.021069 -0.000000
v -1.000000 0.000000 -0.000000
v -0.707107 0.000000 -0.707107
v -0.707107 3.021069 -0.707107
vt 0.150980 0.644514
vt 0.000131 0.706998
vt 0.000131 0.582030
vt 0.452938 0.644514
vt 0.515422 0.795363
vt 0.390455 0.795363
vt 0.500000 0.493404
vt 0.500000 0.000131
vt 0.624967 0.000131
vt 0.624967 0.493404
vt 0.088496 0.493665
vt 0.603787 0.706998
vt 0.749935 0.000131
vt 0.749935 0.493404
vt 0.213463 0.493665
vt 0.603787 0.582030
vt 0.301828 0.582030
vt 0.515422 0.493665
vt 0.301828 0.706998
vt 0.390455 0.493665
vt 0.000131 0.493404
vt 0.000131 0.000131
vt 0.125098 0.000131
vt 0.125098 0.493404
vt 0.213463 0.795363
vt 0.302090 0.582030
vt 0.250065 0.000131
vt 0.250065 0.493404
vt 0.088496 0.795363
vt 0.302090 0.706998
vt 0.924829 0.317552
vt 0.924829 0.404048
vt 0.874902 0.493404
vt 0.874902 0.000131
vt 0.949943 0.404048
vt 0.999869 0.493404
vt 0.949943 0.317552
vt 0.999869 0.000131
vt 0.797193 0.122508
vt 0.797193 0.206787
vt 0.827644 0.206787
vt 0.827644 0.122508
vt 0.450646 0.408435
vt 0.450646 0.319740
vt 0.424387 0.319740
vt 0.424387 0.408435
vt 0.375033 0.493404
vt 0.375033 0.000131
vt 0.295751 0.109182
vt 0.295751 0.201581
vt 0.329347 0.201581
vt 0.329347 0.109182
vn 0.0000 -1.0000 0.0000
vn 0.0000 1.0000 0.0000
vn 0.3827 0.0000 -0.9239
vn 0.9239 0.0000 -0.3827
vn -0.3827 0.0000 0.9239
vn -0.9239 0.0000 0.3827
vn 0.3827 0.0000 0.9239
vn 0.9239 0.0000 0.3827
vn -0.3827 0.0000 -0.9239
vn -0.9239 0.0000 -0.3827
usemtl mat1
s off
f 1/1/1 27/2/1 5/3/1
f 2/4/2 6/5/2 28/6/2
f 27/7/3 28/8/3 6/9/3 5/10/3
f 1/1/1 5/3/1 24/11/1
f 2/4/2 23/12/2 6/5/2
f 5/10/4 6/9/4 23/13/4 24/14/4
f 1/1/1 24/11/1 25/15/1
f 2/4/2 26/16/2 23/12/2
f 1/1/1 25/15/1 21/17/1
f 2/4/2 22/18/2 26/16/2
f 1/1/1 21/17/1 13/19/1
f 2/4/2 14/20/2 22/18/2
f 21/21/5 22/22/5 14/23/5 13/24/5
f 1/1/1 13/19/1 32/25/1
f 2/4/2 31/26/2 14/20/2
f 13/24/6 14/23/6 31/27/6 32/28/6
f 1/1/1 32/25/1 33/29/1
f 2/4/2 34/30/2 31/26/2
f 1/1/1 33/29/1 27/2/1
f 2/4/2 28/6/2 34/30/2
f 10/31/7 9/32/7 25/33/7 26/34/7
f 9/32/7 11/35/7 21/36/7 25/33/7
f 12/37/7 10/31/7 26/34/7 22/38/7
f 11/35/7 12/37/7 22/38/7 21/36/7
f 8/39/8 7/40/8 24/14/8 23/13/8
f 7/40/8 20/41/8 25/33/8 24/14/8
f 19/42/8 8/39/8 23/13/8 26/34/8
f 20/41/8 19/42/8 26/34/8 25/33/8
f 3/43/9 4/44/9 28/8/9 27/7/9
f 18/45/9 17/46/9 33/47/9 34/48/9
f 17/46/9 3/43/9 27/7/9 33/47/9
f 4/44/9 18/45/9 34/48/9 28/8/9
f 16/49/10 15/50/10 32/28/10 31/27/10
f 15/50/10 30/51/10 33/47/10 32/28/10
f 29/52/10 16/49/10 31/27/10 34/48/10
f 30/51/10 29/52/10 34/48/10 33/47/10
usemtl mat2
f 7/40/8 8/39/8 19/42/8 20/41/8
f 9/32/7 10/31/7 12/37/7 11/35/7
f 15/50/10 16/49/10 29/52/10 30/51/10
f 17/46/9 18/45/9 4/44/9 3/43/9
