# Blender v2.82 (sub 7) OBJ File: 'tree.blend'
# www.blender.org
mtllib tree.mtl
o tree
v 0.000000 -0.793529 0.000000
v -0.000000 0.000000 -1.190975
v -0.229493 2.330817 -0.465910
v 1.031415 0.000000 -0.595487
v 0.017255 2.330817 -0.323450
v 1.031414 0.000000 0.595488
v 0.017255 2.330817 -0.038529
v -0.000000 0.000000 1.190975
v -0.229493 2.330817 0.103931
v -1.031415 0.000000 0.595487
v -0.476242 2.330817 -0.038529
v -1.031415 0.000000 -0.595487
v -0.476242 2.330817 -0.323450
v -0.000000 0.431301 -0.544208
v 0.471298 0.431301 -0.272104
v 0.471298 0.431301 0.272104
v -0.000000 0.431301 0.544208
v -0.471298 0.431301 0.272104
v -0.471298 0.431301 -0.272104
v -0.000000 5.624309 0.000000
v -0.052123 3.618948 -0.037018
v 1.395542 4.456716 1.077466
v -0.732200 4.409207 1.886710
v -2.100414 4.503973 -0.221200
v -0.653880 4.404555 -2.031178
v 1.298921 4.522412 -1.038225
v 0.470295 6.059101 1.785895
v -1.675724 6.006888 1.078503
v -1.562907 5.810048 -1.147397
v 0.505018 5.871895 -1.956722
v 1.695325 5.895247 -0.056773
v -0.032825 6.976282 -0.098890
v -1.233567 2.927788 0.684987
v -0.111780 2.782602 -0.039286
v -0.242953 2.492310 -0.047012
v -0.311411 2.738182 -0.237787
vt 0.679872 0.941660
vt 0.625157 0.821799
vt 0.734807 0.821899
vt 0.130430 0.738988
vt 0.153385 0.727681
vt 0.266591 0.999813
vt 0.123437 0.560262
vt 0.177186 0.719310
vt 0.077864 0.571407
vt 0.865831 0.834451
vt 0.789675 0.727095
vt 0.201334 0.713307
vt 0.225784 0.709123
vt 0.035882 0.589967
vt 0.865831 0.619353
vt 0.734515 0.632156
vt 0.250761 0.707431
vt 0.109064 0.753034
vt 0.000187 0.618792
vt 0.679800 0.512294
vt 0.624865 0.632056
vt 0.266591 0.534667
vt 0.218870 0.540597
vt 0.493840 0.619504
vt 0.569996 0.726860
vt 0.171313 0.550538
vt 0.493840 0.834602
vt 0.636611 0.728861
vt 0.660035 0.764734
vt 0.656486 0.690937
vt 0.699636 0.689221
vt 0.723060 0.725094
vt 0.703185 0.763018
vt 0.340828 0.649798
vt 0.266964 0.561484
vt 0.288596 0.543579
vt 0.312848 0.537044
vt 0.340828 0.534667
vt 0.768951 0.246462
vt 0.819578 0.086284
vt 0.951884 0.245930
vt 0.638905 0.154097
vt 0.814780 0.427956
vt 0.616286 0.352983
vt 0.674084 0.000187
vt 0.998837 0.065808
vt 0.998836 0.423214
vt 0.685056 0.511921
vt 0.493840 0.234004
vt 0.142352 0.534293
vt 0.120866 0.364329
vt 0.305788 0.452285
vt 0.493467 0.478046
vt 0.445932 0.296605
vt 0.493467 0.113925
vt 0.336666 0.119776
vt 0.207626 0.000187
vt 0.133677 0.157615
vt 0.000187 0.259080
vt 0.264557 0.282290
vn 0.3049 -0.7926 -0.5281
vn 1.0000 0.0052 -0.0000
vn 0.4977 0.0957 -0.8621
vn 0.6098 -0.7926 0.0000
vn -0.9897 0.1431 0.0000
vn 0.9726 0.2325 0.0000
vn 0.3049 -0.7926 0.5281
vn -0.4990 0.0620 0.8644
vn 0.4838 0.2527 0.8379
vn -0.3049 -0.7926 0.5281
vn 0.5000 -0.0075 0.8660
vn -0.4951 0.1390 0.8576
vn -0.6098 -0.7926 0.0000
vn 0.4981 0.0873 -0.8627
vn -1.0000 -0.0026 0.0000
vn -0.3049 -0.7926 -0.5281
vn -0.4939 0.1554 -0.8555
vn -0.4998 -0.0247 -0.8658
vn -0.3051 0.7923 -0.5284
vn -0.6101 0.7923 0.0000
vn -0.3051 0.7923 0.5284
vn 0.3051 0.7923 0.5284
vn 0.6101 0.7923 0.0000
vn 0.3051 0.7923 -0.5284
vn 0.5024 -0.2490 0.8280
vn -0.6342 -0.5764 -0.5153
vn -0.0089 0.9777 -0.2098
vn 0.1826 -0.8851 0.4281
vn 0.5291 -0.8471 -0.0505
vn -0.4035 -0.8876 0.2220
vn -0.3662 -0.8982 -0.2433
vn 0.2668 -0.8665 -0.4219
vn 0.9687 -0.2427 -0.0518
vn 0.3522 -0.2008 0.9141
vn -0.8226 -0.2207 0.5240
vn -0.7790 -0.1164 -0.6162
vn 0.4458 -0.3094 -0.8400
vn 0.8179 0.2414 0.5223
vn -0.3067 0.2792 0.9099
vn -0.9400 0.3322 -0.0770
vn -0.3532 0.3235 -0.8778
vn 0.8390 0.1347 -0.5273
vn 0.5069 0.8206 0.2640
vn -0.1754 0.8660 0.4682
vn -0.5583 0.8234 -0.1011
vn -0.2378 0.8031 -0.5463
vn 0.5068 0.7975 -0.3273
usemtl mat1
s off
f 1/1/1 2/2/1 4/3/1
f 7/4/2 5/5/2 20/6/2
f 14/7/3 3/8/3 5/5/3 15/9/3
f 1/10/4 4/3/4 6/11/4
f 13/12/5 11/13/5 20/6/5
f 15/9/6 5/5/6 7/4/6 16/14/6
f 1/15/7 6/11/7 8/16/7
f 11/13/8 9/17/8 20/6/8
f 16/14/9 7/4/9 9/18/9 17/19/9
f 1/20/10 8/16/10 10/21/10
f 9/18/11 7/4/11 20/6/11
f 17/22/12 9/17/12 11/13/12 18/23/12
f 1/24/13 10/21/13 12/25/13
f 5/5/14 3/8/14 20/6/14
f 18/23/15 11/13/15 13/12/15 19/26/15
f 1/27/16 12/25/16 2/2/16
f 3/8/17 13/12/17 20/6/17
f 19/26/18 13/12/18 3/8/18 14/7/18
f 12/25/19 19/28/19 14/29/19 2/2/19
f 10/21/20 18/30/20 19/28/20 12/25/20
f 8/16/21 17/31/21 18/30/21 10/21/21
f 6/11/22 16/32/22 17/31/22 8/16/22
f 4/3/23 15/33/23 16/32/23 6/11/23
f 2/2/24 14/29/24 15/33/24 4/3/24
f 33/34/25 35/35/25 34/36/25
f 36/37/26 35/38/26 33/34/26
f 34/36/27 36/37/27 33/34/27
usemtl mat2
f 21/39/28 22/40/28 23/41/28
f 22/40/29 21/39/29 26/42/29
f 21/39/30 23/41/30 24/43/30
f 21/39/31 24/43/31 25/44/31
f 21/39/32 25/44/32 26/42/32
f 22/40/33 26/42/33 31/45/33
f 23/41/34 22/40/34 27/46/34
f 24/43/35 23/41/35 28/47/35
f 25/44/36 24/43/36 29/48/36
f 26/42/37 25/44/37 30/49/37
f 22/50/38 31/51/38 27/52/38
f 23/53/39 27/52/39 28/54/39
f 24/55/40 28/54/40 29/56/40
f 25/57/41 29/56/41 30/58/41
f 26/59/42 30/58/42 31/51/42
f 27/52/43 31/51/43 32/60/43
f 28/54/44 27/52/44 32/60/44
f 29/56/45 28/54/45 32/60/45
f 30/58/46 29/56/46 32/60/46
f 31/51/47 30/58/47 32/60/47
