# Blender v2.82 (sub 7) OBJ File: 'car.blend'
# www.blender.org
mtllib car.mtl
o car
v -1.000000 0.000000 -2.545264
v 1.000000 0.000000 -2.545264
v 1.000000 0.642463 -2.371466
v -1.000000 0.642463 -2.371466
v -1.000000 0.000000 2.130033
v 1.000000 0.000000 2.130033
v 1.000000 0.653013 1.972370
v -1.000000 0.653013 1.972370
v -1.000000 0.774926 1.263833
v -1.000000 0.774926 -1.197218
v 1.000000 0.774926 -1.197218
v 1.000000 0.774926 1.263833
v 0.711431 1.721077 -0.444102
v 1.000000 0.000000 -1.197218
v 0.711431 1.721077 0.667711
v 1.000000 0.000000 1.263833
v -0.711431 1.721077 -0.444102
v -1.000000 0.000000 -1.197218
v -0.711431 1.721077 0.667711
v -1.000000 0.000000 1.263833
v -1.027625 -0.015646 -1.646637
v -0.828818 -0.015646 -1.646637
v -1.102537 -0.432909 -1.977225
v -0.753907 -0.432909 -1.977225
v -1.102537 -0.510575 -1.450570
v -0.753907 -0.510575 -1.450570
v -1.102537 -0.093311 -1.119983
v -0.753907 -0.093311 -1.119982
v -1.102537 0.401618 -1.316050
v -0.753907 0.401618 -1.316050
v -1.102537 0.479283 -1.842705
v -0.753907 0.479283 -1.842704
v -1.102537 0.062020 -2.173292
v -0.753907 0.062020 -2.173292
v 0.810266 -0.015646 -1.646637
v 1.009073 -0.015646 -1.646637
v 0.735354 0.498841 -1.783389
v 1.083984 0.498841 -1.783389
v 0.735354 0.123167 -2.160571
v 1.083984 0.123167 -2.160571
v 0.735354 -0.391319 -2.023819
v 1.083984 -0.391319 -2.023820
v 0.735354 -0.530132 -1.509885
v 1.083984 -0.530132 -1.509886
v 0.735354 -0.154458 -1.132703
v 1.083984 -0.154458 -1.132703
v 0.735354 0.360028 -1.269455
v 1.083984 0.360028 -1.269455
v -1.027625 -0.015646 1.232868
v -0.828818 -0.015646 1.232868
v -1.102537 0.492958 1.390091
v -0.753907 0.492958 1.390091
v -1.102537 0.374816 0.871016
v -0.753907 0.374816 0.871016
v -1.102537 -0.133788 0.713793
v -0.753907 -0.133788 0.713793
v -1.102537 -0.524249 1.075645
v -0.753907 -0.524249 1.075645
v -1.102537 -0.406107 1.594720
v -0.753907 -0.406107 1.594720
v -1.102537 0.102497 1.751944
v -0.753907 0.102497 1.751944
v 0.810266 -0.015646 1.232868
v 1.009073 -0.015646 1.232868
v 0.735354 0.446589 0.968792
v 1.083984 0.446589 0.968792
v 0.735354 -0.013225 0.700523
v 1.083984 -0.013225 0.700523
v 0.735354 -0.475459 0.964599
v 1.083984 -0.475460 0.964599
v 0.735354 -0.477880 1.496944
v 1.083984 -0.477880 1.496944
v 0.735354 -0.018066 1.765213
v 1.083984 -0.018066 1.765213
v 0.735354 0.444168 1.501137
v 1.083984 0.444168 1.501137
vt 0.087250 0.293140
vt 0.155490 0.293140
vt 0.155490 0.411849
vt 0.098914 0.396544
vt 0.331609 0.293140
vt 0.399849 0.293140
vt 0.388185 0.396544
vt 0.331609 0.411849
vt 0.399849 0.076420
vt 0.331609 0.076420
vt 0.331609 0.000143
vt 0.389113 0.014026
vt 0.331609 0.470458
vt 0.155490 0.470458
vt 0.155489 0.076420
vt 0.087250 0.076420
vt 0.097985 0.014026
vt 0.155489 0.000143
vt 0.155490 0.999857
vt 0.155490 0.940701
vt 0.331610 0.940701
vt 0.331610 0.999857
vt 0.331609 0.574518
vt 0.155490 0.574518
vt 0.180901 0.681008
vt 0.306198 0.681008
vt 0.306198 0.778914
vt 0.180901 0.778914
vt 0.155490 0.877390
vt 0.331610 0.877390
vt 0.640305 0.748620
vt 0.599555 0.772147
vt 0.599555 0.725093
vt 0.527991 0.748620
vt 0.568740 0.725093
vt 0.568740 0.772147
vt 0.640305 0.701567
vt 0.527991 0.701567
vt 0.584148 0.698407
vt 0.624897 0.674880
vt 0.681054 0.725093
vt 0.487241 0.725093
vt 0.655712 0.674880
vt 0.696461 0.698407
vt 0.681054 0.772147
vt 0.487241 0.772147
vt 0.711869 0.725093
vt 0.711869 0.772147
vt 0.640305 0.795674
vt 0.527991 0.795674
vt 0.696461 0.798833
vt 0.655712 0.822360
vt 0.624897 0.822360
vt 0.584148 0.798833
vt 0.560981 0.633846
vt 0.537455 0.674595
vt 0.513928 0.633846
vt 0.560981 0.521532
vt 0.513928 0.521532
vt 0.537454 0.480782
vt 0.510768 0.465375
vt 0.487241 0.506125
vt 0.537454 0.593096
vt 0.537454 0.562281
vt 0.487241 0.536939
vt 0.510768 0.577689
vt 0.584508 0.593096
vt 0.584508 0.562281
vt 0.608035 0.633846
vt 0.608035 0.521532
vt 0.611194 0.577689
vt 0.634721 0.536939
vt 0.584508 0.674595
vt 0.584508 0.480782
vt 0.634721 0.506125
vt 0.611194 0.465375
vt 0.584508 0.449968
vt 0.537454 0.449968
vt 0.560981 0.296619
vt 0.537454 0.255870
vt 0.584508 0.255870
vt 0.560981 0.408933
vt 0.584508 0.449683
vt 0.537454 0.449683
vt 0.537454 0.225055
vt 0.584508 0.225055
vt 0.608035 0.296619
vt 0.608035 0.408933
vt 0.611194 0.240463
vt 0.634721 0.281212
vt 0.584508 0.337369
vt 0.584508 0.368184
vt 0.634721 0.312027
vt 0.611194 0.352776
vt 0.537454 0.337369
vt 0.537454 0.368184
vt 0.513928 0.296619
vt 0.513928 0.408933
vt 0.510768 0.352776
vt 0.487241 0.312027
vt 0.487241 0.281212
vt 0.510768 0.240463
vt 0.560981 0.184021
vt 0.537454 0.224770
vt 0.513928 0.184021
vt 0.560981 0.071707
vt 0.513928 0.071707
vt 0.537455 0.030957
vt 0.510768 0.015550
vt 0.487241 0.056299
vt 0.537454 0.143271
vt 0.537454 0.112456
vt 0.487241 0.087114
vt 0.510768 0.127864
vt 0.584508 0.143271
vt 0.584508 0.112456
vt 0.608035 0.184021
vt 0.608035 0.071707
vt 0.611194 0.127864
vt 0.634721 0.087114
vt 0.584508 0.224770
vt 0.584508 0.030957
vt 0.634721 0.056299
vt 0.611194 0.015550
vt 0.584508 0.000143
vt 0.537455 0.000143
vt 0.000143 0.226821
vt 0.000143 0.128915
vt 0.486956 0.128914
vt 0.486956 0.226821
vn 1.0000 0.0000 0.0000
vn -1.0000 0.0000 0.0000
vn 0.0000 0.2611 -0.9653
vn 0.0000 -1.0000 0.0000
vn 0.0000 0.2347 0.9721
vn 0.0000 0.9937 -0.1121
vn 0.0000 1.0000 0.0000
vn 0.0000 0.9855 0.1696
vn -0.9871 0.1587 0.0234
vn 0.9871 0.1587 0.0234
vn -0.0000 -0.9893 -0.1459
vn -0.9871 0.0996 -0.1257
vn 0.9871 0.0996 -0.1257
vn -0.0000 -0.6210 0.7838
vn -0.9871 -0.0591 -0.1491
vn 0.9871 -0.0591 -0.1491
vn -0.0000 0.3683 0.9297
vn -0.9871 -0.1587 -0.0234
vn 0.9871 -0.1587 -0.0234
vn 0.0000 0.9893 0.1459
vn -0.9871 -0.0996 0.1257
vn 0.9871 -0.0996 0.1257
vn 0.0000 0.6210 -0.7838
vn -0.9871 0.0591 0.1491
vn 0.9871 0.0591 0.1491
vn 0.0000 -0.3683 -0.9297
vn -0.9871 -0.1136 0.1132
vn 0.9871 -0.1136 0.1132
vn 0.0000 0.7085 -0.7057
vn -0.9871 0.0412 0.1550
vn 0.9871 0.0412 0.1550
vn -0.0000 -0.2569 -0.9664
vn -0.9871 0.1548 0.0418
vn 0.9871 0.1548 0.0418
vn -0.0000 -0.9654 -0.2608
vn -0.9871 0.1136 -0.1132
vn 0.9871 0.1136 -0.1132
vn 0.0000 -0.7085 0.7057
vn -0.9871 -0.0412 -0.1550
vn 0.9871 -0.0412 -0.1550
vn -0.0000 0.2569 0.9664
vn -0.9871 -0.1548 -0.0418
vn 0.9871 -0.1548 -0.0418
vn 0.0000 0.9654 0.2608
vn -0.9871 -0.1564 0.0356
vn 0.9871 -0.1564 0.0356
vn -0.0000 0.9751 -0.2219
vn -0.9871 -0.0474 0.1532
vn 0.9871 -0.0474 0.1532
vn -0.0000 0.2953 -0.9554
vn -0.9871 0.1090 0.1176
vn 0.9871 0.1090 0.1176
vn -0.0000 -0.6797 -0.7335
vn -0.9871 0.1564 -0.0356
vn 0.9871 0.1564 -0.0356
vn 0.0000 -0.9751 0.2219
vn -0.9871 0.0474 -0.1532
vn 0.9871 0.0474 -0.1532
vn 0.0000 -0.2953 0.9554
vn -0.9871 -0.1090 -0.1176
vn 0.9871 -0.1090 -0.1176
vn 0.0000 0.6797 0.7335
vn -0.9871 -0.0808 0.1385
vn 0.9871 -0.0808 0.1385
vn -0.0000 0.5039 -0.8637
vn -0.9871 0.0796 0.1393
vn 0.9871 0.0796 0.1393
vn -0.0000 -0.4961 -0.8683
vn -0.9871 0.1604 0.0007
vn 0.9871 0.1604 0.0007
vn -0.0000 -1.0000 -0.0045
vn -0.9871 0.0808 -0.1385
vn 0.9871 0.0808 -0.1385
vn 0.0000 -0.5039 0.8637
vn -0.9871 -0.0796 -0.1393
vn 0.9871 -0.0796 -0.1393
vn 0.0000 0.4961 0.8683
vn -0.9871 -0.1604 -0.0007
vn 0.9871 -0.1604 -0.0007
vn 0.0000 1.0000 0.0045
vn 0.9565 0.2917 0.0000
vn 0.0000 0.5331 0.8461
vn 0.0000 0.6228 -0.7824
vn -0.9565 0.2917 0.0000
usemtl mat1
s off
f 11/1/1 14/2/1 2/3/1 3/4/1
f 18/5/2 10/6/2 4/7/2 1/8/2
f 9/9/2 20/10/2 5/11/2 8/12/2
f 1/8/3 4/13/3 3/14/3 2/3/3
f 16/15/1 12/16/1 7/17/1 6/18/1
f 14/2/4 18/5/4 1/8/4 2/3/4
f 20/10/4 16/15/4 6/18/4 5/11/4
f 18/5/4 14/2/4 16/15/4 20/10/4
f 14/2/1 11/1/1 12/16/1 16/15/1
f 6/19/5 7/20/5 8/21/5 5/22/5
f 10/23/6 11/24/6 3/14/6 4/13/6
f 13/25/7 17/26/7 19/27/7 15/28/7
f 20/10/2 9/9/2 10/6/2 18/5/2
f 12/29/8 9/30/8 8/21/8 7/20/8
usemtl mat2
f 21/31/9 23/32/9 25/33/9
f 22/34/10 26/35/10 24/36/10
f 23/32/11 24/36/11 26/35/11 25/33/11
f 21/31/12 25/33/12 27/37/12
f 22/34/13 28/38/13 26/35/13
f 25/33/14 26/39/14 28/40/14 27/37/14
f 21/31/15 27/37/15 29/41/15
f 22/34/16 30/42/16 28/38/16
f 27/37/17 28/43/17 30/44/17 29/41/17
f 21/31/18 29/41/18 31/45/18
f 22/34/19 32/46/19 30/42/19
f 29/41/20 30/47/20 32/48/20 31/45/20
f 21/31/21 31/45/21 33/49/21
f 22/34/22 34/50/22 32/46/22
f 31/45/23 32/51/23 34/52/23 33/49/23
f 21/31/24 33/49/24 23/32/24
f 22/34/25 24/36/25 34/50/25
f 33/49/26 34/53/26 24/54/26 23/32/26
f 35/55/27 37/56/27 39/57/27
f 36/58/28 40/59/28 38/60/28
f 37/61/29 38/60/29 40/59/29 39/62/29
f 35/55/30 39/57/30 41/63/30
f 36/58/31 42/64/31 40/59/31
f 39/65/32 40/59/32 42/64/32 41/66/32
f 35/55/33 41/63/33 43/67/33
f 36/58/34 44/68/34 42/64/34
f 41/63/35 42/64/35 44/68/35 43/67/35
f 35/55/36 43/67/36 45/69/36
f 36/58/37 46/70/37 44/68/37
f 43/71/38 44/68/38 46/70/38 45/72/38
f 35/55/39 45/69/39 47/73/39
f 36/58/40 48/74/40 46/70/40
f 45/75/41 46/70/41 48/74/41 47/76/41
f 35/55/42 47/73/42 37/56/42
f 36/58/43 38/60/43 48/74/43
f 47/77/44 48/74/44 38/60/44 37/78/44
f 49/79/45 51/80/45 53/81/45
f 50/82/46 54/83/46 52/84/46
f 51/80/47 52/85/47 54/86/47 53/81/47
f 49/79/48 53/81/48 55/87/48
f 50/82/49 56/88/49 54/83/49
f 53/81/50 54/89/50 56/90/50 55/87/50
f 49/79/51 55/87/51 57/91/51
f 50/82/52 58/92/52 56/88/52
f 55/87/53 56/93/53 58/94/53 57/91/53
f 49/79/54 57/91/54 59/95/54
f 50/82/55 60/96/55 58/92/55
f 57/91/56 58/92/56 60/96/56 59/95/56
f 49/79/57 59/95/57 61/97/57
f 50/82/58 62/98/58 60/96/58
f 59/95/59 60/99/59 62/100/59 61/97/59
f 49/79/60 61/97/60 51/80/60
f 50/82/61 52/84/61 62/98/61
f 61/97/62 62/101/62 52/102/62 51/80/62
f 63/103/63 65/104/63 67/105/63
f 64/106/64 68/107/64 66/108/64
f 65/109/65 66/108/65 68/107/65 67/110/65
f 63/103/66 67/105/66 69/111/66
f 64/106/67 70/112/67 68/107/67
f 67/113/68 68/107/68 70/112/68 69/114/68
f 63/103/69 69/111/69 71/115/69
f 64/106/70 72/116/70 70/112/70
f 69/111/71 70/112/71 72/116/71 71/115/71
f 63/103/72 71/115/72 73/117/72
f 64/106/73 74/118/73 72/116/73
f 71/119/74 72/116/74 74/118/74 73/120/74
f 63/103/75 73/117/75 75/121/75
f 64/106/76 76/122/76 74/118/76
f 73/123/77 74/118/77 76/122/77 75/124/77
f 63/103/78 75/121/78 65/104/78
f 64/106/79 66/108/79 76/122/79
f 75/125/80 76/122/80 66/108/80 65/126/80
usemtl mat3
f 11/1/81 13/127/81 15/128/81 12/16/81
f 12/29/82 15/28/82 19/27/82 9/30/82
f 10/23/83 17/26/83 13/25/83 11/24/83
f 9/9/84 19/129/84 17/130/84 10/6/84
