# Blender v2.82 (sub 7) OBJ File: 'tile_empty.blend'
# www.blender.org
mtllib tile_empty.mtl
o tile_empty
v 20.000000 0.000000 -20.000000
v 20.000000 -40.000000 -20.000000
v 20.000000 0.000000 20.000000
v 20.000000 -40.000000 20.000000
v -20.000000 0.000000 -20.000000
v -20.000000 -40.000000 -20.000000
v -20.000000 0.000000 20.000000
v -20.000000 -40.000000 20.000000
v -18.000000 -40.000000 18.000000
v -18.000000 0.000000 18.000000
v -18.000000 -40.000000 -18.000000
v -18.000000 0.000000 -18.000000
v 18.000000 -40.000000 18.000000
v 18.000000 0.000000 18.000000
v 18.000000 -40.000000 -18.000000
v 18.000000 0.000000 -18.000000
vn 0.0000 0.0000 -1.0000
vn 1.0000 0.0000 0.0000
vn 0.0000 1.0000 0.0000
vn -1.0000 0.0000 0.0000
vn 0.0000 0.0000 1.0000
vn 0.0000 -1.0000 0.0000
usemtl mat1
s off
f 6//1 5//1 1//1 2//1
f 2//2 1//2 3//2 4//2
f 5//3 7//3 10//3 12//3
f 8//4 7//4 5//4 6//4
f 3//3 1//3 16//3 14//3
f 4//5 3//5 7//5 8//5
f 9//2 11//2 12//2 10//2
f 11//5 15//5 16//5 12//5
f 15//4 13//4 14//4 16//4
f 13//1 9//1 10//1 14//1
f 1//3 5//3 12//3 16//3
f 7//3 3//3 14//3 10//3
f 6//6 2//6 15//6 11//6
f 4//6 8//6 9//6 13//6
f 8//6 6//6 11//6 9//6
f 2//6 4//6 13//6 15//6
