# Blender v2.82 (sub 7) OBJ File: 'house.blend'
# www.blender.org
mtllib house.mtl
o house
v 0.413744 1.427769 -0.859338
v 0.413744 1.427769 0.856481
v 0.396688 0.992281 0.856481
v 0.396688 0.992281 -0.859338
v 0.396688 0.735805 0.856481
v 0.396688 0.735805 -0.859338
v 0.124234 0.992281 0.856481
v 0.124234 0.992281 -0.859338
v 0.124234 0.735805 0.856481
v 0.124234 0.735805 -0.859338
v -1.394267 0.706926 -0.859338
v -1.394267 0.706926 0.856481
v -1.374330 0.972422 -0.859338
v -1.374330 0.972422 0.856481
v -1.101876 0.715946 -0.859338
v -1.101876 0.715946 0.856481
v -1.101876 0.972422 -0.859338
v -1.101876 0.972422 0.856481
v -1.091907 1.414398 0.856481
v -1.091907 1.414398 -0.859338
v -1.091907 1.157922 0.856481
v -1.091907 1.157922 -0.859338
v -1.364361 1.414398 0.856481
v -1.364361 1.414398 -0.859338
v -1.364361 1.157922 0.856481
v -1.364361 1.157922 -0.859338
v -1.369346 1.563819 -0.859337
v -1.369346 1.563819 0.856481
v -1.369346 1.820295 -0.859337
v -1.369346 1.820295 0.856481
v -1.096891 1.563819 -0.859337
v -1.096891 1.563819 0.856481
v -1.096891 1.820295 -0.859337
v -1.096891 1.820295 0.856481
v 1.512928 2.000000 -0.817202
v 1.512928 0.000000 -0.817202
v 1.512928 2.000000 0.817202
v 1.512928 0.000000 0.817202
v -1.512928 2.000000 -0.817202
v -1.512928 0.000000 -0.817202
v -1.512928 2.000000 0.817202
v -1.512928 0.000000 0.817202
v 0.399211 1.171630 0.856481
v 0.399211 1.171630 -0.859338
v 0.141648 1.440409 0.856481
v 0.141648 1.440409 -0.859338
v 0.127116 1.184270 0.856481
v 0.127116 1.184270 -0.859338
v 0.129218 1.583678 -0.859337
v 0.129218 1.583678 0.856481
v 0.129218 1.840154 -0.859337
v 0.129218 1.840155 0.856481
v 0.401673 1.583678 -0.859337
v 0.401673 1.583678 0.856481
v 0.401673 1.840154 -0.859337
v 0.401673 1.840155 0.856481
v -0.158064 1.418908 -1.069487
v -0.158064 1.418908 1.066630
v -0.168032 0.976932 1.066630
v -0.168032 0.976932 -1.069487
v -0.168032 0.720456 1.066630
v -0.168032 0.720456 -1.069487
v -0.920763 0.976932 1.066630
v -0.920763 0.976932 -1.069487
v -0.920763 0.720456 1.066630
v -0.920763 0.720456 -1.069487
v -0.158064 1.162432 1.066630
v -0.158064 1.162432 -1.069487
v -0.910794 1.418908 1.066630
v -0.910794 1.418908 -1.069487
v -0.910794 1.162432 1.066630
v -0.910794 1.162432 -1.069487
v -0.860952 1.568329 -1.069487
v -0.860952 1.568329 1.066630
v -0.860952 1.824805 -1.069487
v -0.860952 1.824805 1.066630
v -0.108222 1.568329 -1.069487
v -0.108222 1.568329 1.066630
v -0.108222 1.824805 -1.069487
v -0.108222 1.824805 1.066630
v 1.345484 1.434258 -1.069487
v 1.345484 1.434258 1.066630
v 1.335515 0.992281 1.066630
v 1.335515 0.992281 -1.069487
v 1.335515 0.735805 1.066630
v 1.335515 0.735805 -1.069487
v 0.582785 0.992281 1.066630
v 0.582785 0.992281 -1.069487
v 0.582785 0.735805 1.066630
v 0.582785 0.735805 -1.069487
v 1.345484 1.177781 1.066630
v 1.345484 1.177781 -1.069487
v 0.592754 1.434258 1.066630
v 0.592754 1.434258 -1.069487
v 0.592754 1.177781 1.066630
v 0.592754 1.177781 -1.069487
v 0.587769 1.583678 -1.069487
v 0.587769 1.583678 1.066630
v 0.587769 1.840154 -1.069487
v 0.587769 1.840155 1.066630
v 1.340500 1.583678 -1.069487
v 1.340500 1.583678 1.066630
v 1.340500 1.840154 -1.069487
v 1.340500 1.840155 1.066630
v -0.812081 2.247083 -0.657526
v -0.812081 1.957628 -0.657526
v -0.812081 2.247083 0.614169
v -0.812081 1.957628 0.614169
v -1.139008 2.247083 -0.657526
v -1.139008 1.957628 -0.657526
v -1.139008 2.247083 0.614169
v -1.139008 1.957628 0.614169
v 0.721691 2.297973 -0.657526
v 0.721691 1.971775 -0.657526
v 0.721691 2.297973 0.614169
v 0.721691 1.971775 0.614169
v 0.394765 2.297973 -0.657526
v 0.394765 1.971775 -0.657526
v 0.394765 2.297973 0.614169
v 0.394765 1.971775 0.614169
v -0.042485 2.247083 -0.657526
v -0.042485 1.957628 -0.657526
v -0.042485 2.247083 0.614169
v -0.042485 1.957628 0.614169
v -0.369412 2.247083 -0.657526
v -0.369412 1.957628 -0.657526
v -0.369412 2.247083 0.614169
v -0.369412 1.957628 0.614169
v 1.241783 0.492201 0.873175
v 1.241783 0.625814 0.723678
v 1.241783 0.023882 0.873175
v 1.241783 0.023882 0.723678
v 0.914856 0.492201 0.873175
v 0.914856 0.625814 0.723678
v 0.914856 0.023882 0.873175
v 0.914856 0.023882 0.723678
v 1.241783 0.625814 0.873175
v 0.914856 0.625814 0.873175
v 1.241783 0.492201 1.263074
v 0.914856 0.492201 1.263074
vn 0.0000 -1.0000 0.0000
vn 0.0000 0.0000 1.0000
vn 1.0000 0.0000 0.0000
vn -1.0000 0.0000 0.0000
vn 0.0000 1.0000 0.0000
vn 0.0000 0.0000 -1.0000
vn -0.9972 0.0749 0.0000
vn -0.9984 0.0566 0.0000
vn -0.0464 -0.9989 0.0000
vn 0.0464 0.9989 -0.0000
vn 0.0308 -0.9995 0.0000
vn 0.9984 -0.0566 -0.0000
vn 0.0000 0.9460 0.3242
usemtl mat1
s off
f 40//1 36//1 38//1 42//1
f 38//2 37//2 41//2 42//2
f 36//3 35//3 37//3 38//3
f 42//4 41//4 39//4 40//4
f 35//5 39//5 41//5 37//5
f 40//6 39//6 35//6 36//6
usemtl mat2
f 66//4 65//4 63//4 64//4
f 4//3 3//3 5//3 6//3
f 11//7 12//7 14//7 13//7
f 68//1 67//1 71//1 72//1
f 8//6 4//6 6//6 10//6
f 18//2 14//2 12//2 16//2
f 72//4 71//4 69//4 70//4
f 48//8 47//8 45//8 46//8
f 13//5 14//5 18//5 17//5
f 64//6 60//6 62//6 66//6
f 2//2 45//2 47//2 43//2
f 10//4 9//4 7//4 8//4
f 60//3 59//3 61//3 62//3
f 44//9 43//9 47//9 48//9
f 29//5 30//5 34//5 33//5
f 51//6 55//6 53//6 49//6
f 46//10 45//10 2//10 1//10
f 34//2 30//2 28//2 32//2
f 55//3 56//3 54//3 53//3
f 6//1 5//1 9//1 10//1
f 20//3 19//3 21//3 22//3
f 58//2 69//2 71//2 67//2
f 49//4 50//4 52//4 51//4
f 31//1 32//1 28//1 27//1
f 24//6 20//6 22//6 26//6
f 3//2 7//2 9//2 5//2
f 15//11 16//11 12//11 11//11
f 24//5 23//5 19//5 20//5
f 22//1 21//1 25//1 26//1
f 19//2 23//2 25//2 21//2
f 26//4 25//4 23//4 24//4
f 13//6 17//6 15//6 11//6
f 51//5 52//5 56//5 55//5
f 17//3 18//3 16//3 15//3
f 53//1 54//1 50//1 49//1
f 46//6 1//6 44//6 48//6
f 1//12 2//12 43//12 44//12
f 56//2 52//2 50//2 54//2
f 27//4 28//4 30//4 29//4
f 33//3 34//3 32//3 31//3
f 8//5 7//5 3//5 4//5
f 29//6 33//6 31//6 27//6
f 75//6 79//6 77//6 73//6
f 70//5 69//5 58//5 57//5
f 79//3 80//3 78//3 77//3
f 62//1 61//1 65//1 66//1
f 73//4 74//4 76//4 75//4
f 59//2 63//2 65//2 61//2
f 75//5 76//5 80//5 79//5
f 77//1 78//1 74//1 73//1
f 70//6 57//6 68//6 72//6
f 57//3 58//3 67//3 68//3
f 80//2 76//2 74//2 78//2
f 64//5 63//5 59//5 60//5
f 90//4 89//4 87//4 88//4
f 92//1 91//1 95//1 96//1
f 96//4 95//4 93//4 94//4
f 88//6 84//6 86//6 90//6
f 84//3 83//3 85//3 86//3
f 82//2 93//2 95//2 91//2
f 99//6 103//6 101//6 97//6
f 94//5 93//5 82//5 81//5
f 103//3 104//3 102//3 101//3
f 86//1 85//1 89//1 90//1
f 97//4 98//4 100//4 99//4
f 83//2 87//2 89//2 85//2
f 99//5 100//5 104//5 103//5
f 101//1 102//1 98//1 97//1
f 94//6 81//6 92//6 96//6
f 81//3 82//3 91//3 92//3
f 104//2 100//2 98//2 102//2
f 88//5 87//5 83//5 84//5
usemtl mat3
f 116//2 115//2 119//2 120//2
f 108//2 107//2 111//2 112//2
f 106//3 105//3 107//3 108//3
f 112//4 111//4 109//4 110//4
f 105//5 109//5 111//5 107//5
f 110//6 109//6 105//6 106//6
f 114//3 113//3 115//3 116//3
f 120//4 119//4 117//4 118//4
f 113//5 117//5 119//5 115//5
f 118//6 117//6 113//6 114//6
f 124//2 123//2 127//2 128//2
f 122//3 121//3 123//3 124//3
f 128//4 127//4 125//4 126//4
f 121//5 125//5 127//5 123//5
f 126//6 125//6 121//6 122//6
f 132//1 131//1 135//1 136//1
f 130//3 129//3 131//3 132//3
f 136//4 135//4 133//4 134//4
f 129//2 133//2 135//2 131//2
f 129//3 130//3 137//3
f 134//5 138//5 137//5 130//5
f 134//4 133//4 138//4
f 138//4 133//4 140//4
f 140//13 139//13 137//13 138//13
f 129//3 137//3 139//3
f 133//1 129//1 139//1 140//1
