# Blender v2.82 (sub 7) OBJ File: 'house.blend'
# www.blender.org
mtllib house.mtl
o house
v 0.413744 1.427769 -0.859338
v 0.413744 1.427769 0.856481
v 0.396688 0.992281 0.856481
v 0.396688 0.992281 -0.859338
v 0.396688 0.735805 0.856481
v 0.396688 0.735805 -0.859338
v 0.124234 0.992281 0.856481
v 0.124234 0.992281 -0.859338
v 0.124234 0.735805 0.856481
v 0.124234 0.735805 -0.859338
v -1.394267 0.706926 -0.859338
v -1.394267 0.706926 0.856481
v -1.374330 0.972422 -0.859338
v -1.374330 0.972422 0.856481
v -1.101876 0.715946 -0.859338
v -1.101876 0.715946 0.856481
v -1.101876 0.972422 -0.859338
v -1.101876 0.972422 0.856481
v -1.091907 1.414398 0.856481
v -1.091907 1.414398 -0.859338
v -1.091907 1.157922 0.856481
v -1.091907 1.157922 -0.859338
v -1.364361 1.414398 0.856481
v -1.364361 1.414398 -0.859338
v -1.364361 1.157922 0.856481
v -1.364361 1.157922 -0.859338
v -1.369346 1.563819 -0.859337
v -1.369346 1.563819 0.856481
v -1.369346 1.820295 -0.859337
v -1.369346 1.820295 0.856481
v -1.096891 1.563819 -0.859337
v -1.096891 1.563819 0.856481
v -1.096891 1.820295 -0.859337
v -1.096891 1.820295 0.856481
v 1.512928 2.000000 -0.817202
v 1.512928 0.000000 -0.817202
v 1.512928 2.000000 0.817202
v 1.512928 0.000000 0.817202
v -1.512928 2.000000 -0.817202
v -1.512928 0.000000 -0.817202
v -1.512928 2.000000 0.817202
v -1.512928 0.000000 0.817202
v 0.399211 1.171630 0.856481
v 0.399211 1.171630 -0.859338
v 0.141648 1.440409 0.856481
v 0.141648 1.440409 -0.859338
v 0.127116 1.184270 0.856481
v 0.127116 1.184270 -0.859338
v 0.129218 1.583678 -0.859337
v 0.129218 1.583678 0.856481
v 0.129218 1.840154 -0.859337
v 0.129218 1.840155 0.856481
v 0.401673 1.583678 -0.859337
v 0.401673 1.583678 0.856481
v 0.401673 1.840154 -0.859337
v 0.401673 1.840155 0.856481
v -0.158064 1.418908 -1.069487
v -0.158064 1.418908 1.066630
v -0.168032 0.976932 1.066630
v -0.168032 0.976932 -1.069487
v -0.168032 0.720456 1.066630
v -0.168032 0.720456 -1.069487
v -0.920763 0.976932 1.066630
v -0.920763 0.976932 -1.069487
v -0.920763 0.720456 1.066630
v -0.920763 0.720456 -1.069487
v -0.158064 1.162432 1.066630
v -0.158064 1.162432 -1.069487
v -0.910794 1.418908 1.066630
v -0.910794 1.418908 -1.069487
v -0.910794 1.162432 1.066630
v -0.910794 1.162432 -1.069487
v -0.860952 1.568329 -1.069487
v -0.860952 1.568329 1.066630
v -0.860952 1.824805 -1.069487
v -0.860952 1.824805 1.066630
v -0.108222 1.568329 -1.069487
v -0.108222 1.568329 1.066630
v -0.108222 1.824805 -1.069487
v -0.108222 1.824805 1.066630
v 1.345484 1.434258 -1.069487
v 1.345484 1.434258 1.066630
v 1.335515 0.992281 1.066630
v 1.335515 0.992281 -1.069487
v 1.335515 0.735805 1.066630
v 1.335515 0.735805 -1.069487
v 0.582785 0.992281 1.066630
v 0.582785 0.992281 -1.069487
v 0.582785 0.735805 1.066630
v 0.582785 0.735805 -1.069487
v 1.345484 1.177781 1.066630
v 1.345484 1.177781 -1.069487
v 0.592754 1.434258 1.066630
v 0.592754 1.434258 -1.069487
v 0.592754 1.177781 1.066630
v 0.592754 1.177781 -1.069487
v 0.587769 1.583678 -1.069487
v 0.587769 1.583678 1.066630
v 0.587769 1.840154 -1.069487
v 0.587769 1.840155 1.066630
v 1.340500 1.583678 -1.069487
v 1.340500 1.583678 1.066630
v 1.340500 1.840154 -1.069487
v 1.340500 1.840155 1.066630
v -0.812081 2.247083 -0.657526
v -0.812081 1.957628 -0.657526
v -0.812081 2.247083 0.614169
v -0.812081 1.957628 0.614169
v -1.139008 2.247083 -0.657526
v -1.139008 1.957628 -0.657526
v -1.139008 2.247083 0.614169
v -1.139008 1.957628 0.614169
v 0.721691 2.297973 -0.657526
v 0.721691 1.971775 -0.657526
v 0.721691 2.297973 0.614169
v 0.721691 1.971775 0.614169
v 0.394765 2.297973 -0.657526
v 0.394765 1.971775 -0.657526
v 0.394765 2.297973 0.614169
v 0.394765 1.971775 0.614169
v -0.042485 2.247083 -0.657526
v -0.042485 1.957628 -0.657526
v -0.042485 2.247083 0.614169
v -0.042485 1.957628 0.614169
v -0.369412 2.247083 -0.657526
v -0.369412 1.957628 -0.657526
v -0.369412 2.247083 0.614169
v -0.369412 1.957628 0.614169
v 1.241783 0.492201 0.873175
v 1.241783 0.625814 0.723678
v 1.241783 0.023882 0.873175
v 1.241783 0.023882 0.723678
v 0.914856 0.492201 0.873175
v 0.914856 0.625814 0.723678
v 0.914856 0.023882 0.873175
v 0.914856 0.023882 0.723678
v 1.241783 0.625814 0.873175
v 0.914856 0.625814 0.873175
v 1.241783 0.492201 1.263074
v 0.914856 0.492201 1.263074
vt 0.378758 0.337890
vt 0.378758 0.134681
vt 0.488521 0.134681
vt 0.488521 0.337890
vt 0.000366 0.134681
vt 0.134681 0.134681
vt 0.134681 0.337890
vt 0.000366 0.337890
vt 0.244444 0.000366
vt 0.244444 0.134681
vt 0.134681 0.000366
vt 0.134681 0.472205
vt 0.244443 0.337890
vt 0.244443 0.472205
vt 0.024725 0.736652
vt 0.126164 0.838091
vt 0.113985 0.850270
vt 0.012546 0.748831
vt 0.941045 0.188444
vt 0.859565 0.106964
vt 0.871745 0.094784
vt 0.953225 0.176264
vt 0.684397 0.287430
vt 0.607339 0.373104
vt 0.594045 0.361146
vt 0.671103 0.275473
vt 0.755031 0.735919
vt 0.653593 0.634480
vt 0.689338 0.598735
vt 0.790777 0.700174
vt 0.765147 0.175506
vt 0.778085 0.188444
vt 0.765906 0.200623
vt 0.752968 0.187685
vt 0.580824 0.373796
vt 0.592732 0.386241
vt 0.790777 0.497297
vt 0.677159 0.586556
vt 0.778597 0.485117
vt 0.790777 0.761141
vt 0.709716 0.843038
vt 0.697471 0.830918
vt 0.778531 0.749021
vt 0.514382 0.277889
vt 0.501161 0.290539
vt 0.012546 0.951709
vt 0.048291 0.987454
vt 0.036112 0.999634
vt 0.000366 0.963888
vt 0.684469 0.843786
vt 0.696715 0.855906
vt 0.777327 0.000366
vt 0.858806 0.081846
vt 0.846627 0.094026
vt 0.765147 0.012546
vt 0.251169 0.987454
vt 0.149730 0.886015
vt 0.161909 0.873836
vt 0.263348 0.975275
vt 0.777776 0.937803
vt 0.790777 0.924934
vt 0.710247 0.276260
vt 0.791727 0.357740
vt 0.778789 0.370678
vt 0.697309 0.289198
vt 0.816627 0.485117
vt 0.803689 0.498055
vt 0.791510 0.485876
vt 0.804448 0.472937
vt 0.616410 0.749021
vt 0.603408 0.761890
vt 0.803906 0.369920
vt 0.790968 0.382858
vt 0.803689 0.661015
vt 0.885169 0.579535
vt 0.897348 0.591714
vt 0.815868 0.673194
vt 0.953225 0.013305
vt 0.940286 0.000366
vt 0.979587 0.862004
vt 0.898107 0.780524
vt 0.910286 0.768345
vt 0.991766 0.849825
vt 0.641413 0.622301
vt 0.991766 0.497296
vt 0.910286 0.578776
vt 0.898107 0.566597
vt 0.979587 0.485117
vt 0.872448 0.464338
vt 0.885386 0.451400
vt 0.803689 0.849066
vt 0.816627 0.862004
vt 0.804448 0.874184
vt 0.791510 0.861246
vt 0.669790 0.471915
vt 0.684397 0.458777
vt 0.885169 0.767586
vt 0.991766 0.686865
vt 0.897348 0.755407
vt 0.978828 0.673927
vt 0.815868 0.673927
vt 0.803689 0.686106
vt 0.489253 0.278094
vt 0.503022 0.264081
vt 0.497567 0.453459
vt 0.509475 0.465904
vt 0.978828 0.673194
vt 0.991766 0.660256
vt 0.591414 0.749521
vt 0.604416 0.736652
vt 0.603408 0.925683
vt 0.615654 0.937803
vt 0.885386 0.288440
vt 0.873207 0.276260
vt 0.697309 0.452158
vt 0.709488 0.464338
vt 0.685129 0.277019
vt 0.698067 0.264081
vt 0.012546 0.687995
vt 0.048291 0.723740
vt 0.036112 0.735919
vt 0.000366 0.700174
vt 0.575720 0.485117
vt 0.539975 0.520862
vt 0.251169 0.723740
vt 0.149730 0.622301
vt 0.161909 0.610122
vt 0.263348 0.711560
vt 0.263348 0.772397
vt 0.227603 0.736652
vt 0.024725 0.472938
vt 0.126164 0.574376
vt 0.113985 0.586556
vt 0.012546 0.485117
vt 0.263348 0.508683
vt 0.227603 0.472937
vt 0.527795 0.508683
vt 0.563541 0.472937
vt 0.539975 0.723740
vt 0.552154 0.735919
vt 0.288440 0.472937
vt 0.389878 0.574376
vt 0.377699 0.586556
vt 0.276260 0.485117
vt 0.491317 0.999634
vt 0.389878 0.898195
vt 0.425624 0.862450
vt 0.527062 0.963889
vt 0.527062 0.761011
vt 0.413444 0.850270
vt 0.514883 0.748832
vt 0.276260 0.687994
vt 0.312005 0.723740
vt 0.299826 0.735919
vt 0.264081 0.700174
vt 0.514883 0.723740
vt 0.413444 0.622301
vt 0.425624 0.610122
vt 0.527063 0.711560
vt 0.377699 0.886015
vt 0.537178 0.012546
vt 0.501433 0.048291
vt 0.489253 0.036112
vt 0.524999 0.000366
vt 0.312005 0.748831
vt 0.276260 0.784577
vt 0.501433 0.251169
vt 0.602872 0.149730
vt 0.615051 0.161909
vt 0.513612 0.263348
vt 0.527063 0.508683
vt 0.491317 0.472937
vt 0.752235 0.024725
vt 0.650796 0.126164
vt 0.638617 0.113985
vt 0.740056 0.012546
vt 0.716490 0.263348
vt 0.752235 0.227603
vt 0.264081 0.772397
vt 0.299826 0.736652
vt 0.276260 0.987454
vt 0.288439 0.999634
vt 0.929981 0.264081
vt 0.929981 0.285988
vt 0.908025 0.285988
vt 0.908025 0.264081
vt 0.571243 0.736652
vt 0.571243 0.756091
vt 0.549287 0.756091
vt 0.549287 0.736652
vt 0.590682 0.841495
vt 0.571243 0.841495
vt 0.590682 0.756091
vt 0.529848 0.756091
vt 0.549287 0.841495
vt 0.529848 0.841495
vt 0.549287 0.860934
vt 0.571243 0.860934
vt 0.951888 0.371391
vt 0.929981 0.371391
vt 0.951888 0.285988
vt 0.886119 0.285988
vt 0.908025 0.371391
vt 0.886119 0.371391
vt 0.908025 0.393298
vt 0.929981 0.393298
vt 0.571243 0.861667
vt 0.571243 0.881106
vt 0.549287 0.881106
vt 0.549287 0.861667
vt 0.590682 0.966509
vt 0.571243 0.966509
vt 0.590682 0.881106
vt 0.529848 0.881106
vt 0.549287 0.966509
vt 0.529848 0.966509
vt 0.549287 0.985948
vt 0.571243 0.985948
vt 0.752968 0.248353
vt 0.752968 0.238313
vt 0.774923 0.238313
vt 0.774923 0.248353
vt 0.830349 0.241780
vt 0.820309 0.232807
vt 0.820309 0.201356
vt 0.830349 0.201356
vt 0.793392 0.201356
vt 0.793392 0.211396
vt 0.761941 0.211396
vt 0.752968 0.201356
vt 0.791510 0.938820
vt 0.813465 0.938820
vt 0.813465 0.970271
vt 0.791510 0.970271
vt 0.820309 0.241780
vt 0.813465 0.874916
vt 0.813465 0.884956
vt 0.791510 0.884956
vt 0.791510 0.874916
vt 0.752968 0.211396
vt 0.761941 0.237580
vt 0.813465 0.912636
vt 0.791510 0.912636
vt 0.794125 0.232807
vn 0.0000 -1.0000 0.0000
vn 0.0000 0.0000 1.0000
vn 1.0000 0.0000 0.0000
vn -1.0000 0.0000 0.0000
vn 0.0000 1.0000 0.0000
vn 0.0000 0.0000 -1.0000
vn -0.9972 0.0749 0.0000
vn -0.9984 0.0566 0.0000
vn -0.0464 -0.9989 0.0000
vn 0.0464 0.9989 -0.0000
vn 0.0308 -0.9995 0.0000
vn 0.9984 -0.0566 -0.0000
vn 0.0000 0.9460 0.3242
usemtl mat1
s off
f 40/1/1 36/2/1 38/3/1 42/4/1
f 38/5/2 37/6/2 41/7/2 42/8/2
f 36/9/3 35/10/3 37/6/3 38/11/3
f 42/12/4 41/7/4 39/13/4 40/14/4
f 35/10/5 39/13/5 41/7/5 37/6/5
f 40/1/6 39/13/6 35/10/6 36/2/6
usemtl mat2
f 66/15/4 65/16/4 63/17/4 64/18/4
f 4/19/3 3/20/3 5/21/3 6/22/3
f 11/23/7 12/24/7 14/25/7 13/26/7
f 68/27/1 67/28/1 71/29/1 72/30/1
f 8/31/6 4/32/6 6/33/6 10/34/6
f 18/35/2 14/25/2 12/24/2 16/36/2
f 72/37/4 71/29/4 69/38/4 70/39/4
f 48/40/8 47/41/8 45/42/8 46/43/8
f 13/44/5 14/25/5 18/35/5 17/45/5
f 64/46/6 60/47/6 62/48/6 66/49/6
f 2/50/2 45/42/2 47/41/2 43/51/2
f 10/52/4 9/53/4 7/54/4 8/55/4
f 60/56/3 59/57/3 61/58/3 62/59/3
f 44/60/9 43/51/9 47/41/9 48/61/9
f 29/62/5 30/63/5 34/64/5 33/65/5
f 51/66/6 55/67/6 53/68/6 49/69/6
f 46/70/10 45/42/10 2/50/10 1/71/10
f 34/64/2 30/63/2 28/72/2 32/73/2
f 55/74/3 56/75/3 54/76/3 53/77/3
f 6/78/1 5/21/1 9/53/1 10/79/1
f 20/80/3 19/81/3 21/82/3 22/83/3
f 58/84/2 69/38/2 71/29/2 67/28/2
f 49/85/4 50/86/4 52/87/4 51/88/4
f 31/89/1 32/73/1 28/72/1 27/90/1
f 24/91/6 20/92/6 22/93/6 26/94/6
f 3/20/2 7/54/2 9/53/2 5/21/2
f 15/95/11 16/36/11 12/24/11 11/96/11
f 24/91/5 23/97/5 19/81/5 20/92/5
f 22/98/1 21/82/1 25/99/1 26/100/1
f 19/81/2 23/97/2 25/99/2 21/82/2
f 26/101/4 25/99/4 23/97/4 24/102/4
f 13/44/6 17/45/6 15/103/6 11/104/6
f 51/66/5 52/87/5 56/75/5 55/67/5
f 17/105/3 18/35/3 16/36/3 15/106/3
f 53/107/1 54/76/1 50/86/1 49/108/1
f 46/70/6 1/71/6 44/109/6 48/110/6
f 1/111/12 2/50/12 43/51/12 44/112/12
f 56/75/2 52/87/2 50/86/2 54/76/2
f 27/113/4 28/72/4 30/63/4 29/114/4
f 33/115/3 34/64/3 32/73/3 31/116/3
f 8/31/5 7/54/5 3/20/5 4/32/5
f 29/62/6 33/65/6 31/117/6 27/118/6
f 75/119/6 79/120/6 77/121/6 73/122/6
f 70/123/5 69/38/5 58/84/5 57/124/5
f 79/125/3 80/126/3 78/127/3 77/128/3
f 62/129/1 61/58/1 65/16/1 66/130/1
f 73/131/4 74/132/4 76/133/4 75/134/4
f 59/57/2 63/17/2 65/16/2 61/58/2
f 75/119/5 76/133/5 80/126/5 79/120/5
f 77/135/1 78/127/1 74/132/1 73/136/1
f 70/123/6 57/124/6 68/137/6 72/138/6
f 57/139/3 58/84/3 67/28/3 68/140/3
f 80/126/2 76/133/2 74/132/2 78/127/2
f 64/46/5 63/17/5 59/57/5 60/47/5
f 90/141/4 89/142/4 87/143/4 88/144/4
f 92/145/1 91/146/1 95/147/1 96/148/1
f 96/149/4 95/147/4 93/150/4 94/151/4
f 88/152/6 84/153/6 86/154/6 90/155/6
f 84/156/3 83/157/3 85/158/3 86/159/3
f 82/160/2 93/150/2 95/147/2 91/146/2
f 99/161/6 103/162/6 101/163/6 97/164/6
f 94/165/5 93/150/5 82/160/5 81/166/5
f 103/167/3 104/168/3 102/169/3 101/170/3
f 86/171/1 85/158/1 89/142/1 90/172/1
f 97/173/4 98/174/4 100/175/4 99/176/4
f 83/157/2 87/143/2 89/142/2 85/158/2
f 99/161/5 100/175/5 104/168/5 103/162/5
f 101/177/1 102/169/1 98/174/1 97/178/1
f 94/165/6 81/166/6 92/179/6 96/180/6
f 81/181/3 82/160/3 91/146/3 92/182/3
f 104/168/2 100/175/2 98/174/2 102/169/2
f 88/152/5 87/143/5 83/157/5 84/153/5
usemtl mat3
f 116/183/2 115/184/2 119/185/2 120/186/2
f 108/187/2 107/188/2 111/189/2 112/190/2
f 106/191/3 105/192/3 107/188/3 108/193/3
f 112/194/4 111/189/4 109/195/4 110/196/4
f 105/192/5 109/195/5 111/189/5 107/188/5
f 110/197/6 109/195/6 105/192/6 106/198/6
f 114/199/3 113/200/3 115/184/3 116/201/3
f 120/202/4 119/185/4 117/203/4 118/204/4
f 113/200/5 117/203/5 119/185/5 115/184/5
f 118/205/6 117/203/6 113/200/6 114/206/6
f 124/207/2 123/208/2 127/209/2 128/210/2
f 122/211/3 121/212/3 123/208/3 124/213/3
f 128/214/4 127/209/4 125/215/4 126/216/4
f 121/212/5 125/215/5 127/209/5 123/208/5
f 126/217/6 125/215/6 121/212/6 122/218/6
f 132/219/1 131/220/1 135/221/1 136/222/1
f 130/223/3 129/224/3 131/225/3 132/226/3
f 136/227/4 135/228/4 133/229/4 134/230/4
f 129/231/2 133/232/2 135/233/2 131/234/2
f 129/224/3 130/223/3 137/235/3
f 134/236/5 138/237/5 137/238/5 130/239/5
f 134/230/4 133/229/4 138/240/4
f 138/240/4 133/229/4 140/241/4
f 140/242/13 139/243/13 137/238/13 138/237/13
f 129/224/3 137/235/3 139/244/3
f 133/232/1 129/231/1 139/243/1 140/242/1
