# Blender v2.82 (sub 7) OBJ File: 'street_lamp.blend'
# www.blender.org
mtllib street_lamp.mtl
o street_lamp
v -0.000000 0.006835 -0.500676
v -0.000000 5.534540 0.000000
v 0.433599 0.006835 -0.250338
v 0.433598 0.006835 0.250338
v -0.000000 0.006835 0.500676
v -0.433599 0.006835 0.250338
v -0.433599 0.006835 -0.250338
v -0.000000 0.006835 0.000000
v -0.152137 0.408017 0.087836
v -0.000000 0.408017 0.175673
v 0.152137 0.408017 0.087836
v 0.152137 0.408017 -0.087836
v -0.000000 0.408017 -0.175673
v -0.152137 0.408017 -0.087836
v -0.000000 4.503435 0.000000
v -0.000000 5.863579 0.000000
v 0.500676 5.541966 0.500676
v 0.291845 4.741133 0.291845
v 0.500676 5.541966 -0.500676
v 0.291845 4.741133 -0.291845
v -0.500676 5.541966 -0.500676
v -0.291845 4.741133 -0.291845
v -0.500676 5.541966 0.500676
v -0.291845 4.741133 0.291845
vt 0.582488 0.994592
vt 0.685017 0.000136
vt 0.616598 0.997520
vt 0.650787 0.999278
vt 0.685017 0.999864
vt 0.481041 0.978834
vt 0.514670 0.985244
vt 0.548499 0.990499
vt 0.377620 0.529829
vt 0.377620 0.627404
vt 0.293117 0.578617
vt 0.293117 0.676192
vt 0.208614 0.627404
vt 0.293117 0.481041
vt 0.208614 0.529829
vt 0.030847 0.536959
vt 0.111534 0.597079
vt 0.100758 0.629576
vt 0.000136 0.629576
vt 0.110810 0.481041
vt 0.139591 0.577459
vt 0.208342 0.483978
vt 0.173812 0.578490
vt 0.110810 0.778111
vt 0.139591 0.681692
vt 0.173812 0.680662
vt 0.208342 0.775173
vt 0.030847 0.722193
vt 0.111534 0.662072
vt 0.386564 0.468849
vt 0.468849 0.386564
vt 0.480768 0.480768
vt 0.094341 0.012056
vt 0.012056 0.094341
vt 0.000136 0.000136
vt 0.012056 0.386564
vt 0.094341 0.468849
vt 0.000136 0.480768
vt 0.468849 0.094341
vt 0.386564 0.012056
vt 0.480768 0.000136
vt 0.240452 0.381617
vt 0.099288 0.240452
vt 0.240452 0.240452
vt 0.381617 0.240452
vt 0.240452 0.099288
vn 0.4998 0.0297 -0.8656
vn 0.9996 0.0297 0.0000
vn 0.4998 0.0297 0.8656
vn -0.4998 0.0297 0.8656
vn -0.9996 0.0297 0.0000
vn -0.4998 0.0297 -0.8656
vn 0.0000 -1.0000 0.0000
vn -0.4093 0.5743 -0.7089
vn -0.8186 0.5743 0.0000
vn -0.4093 0.5743 0.7089
vn 0.4093 0.5743 0.7089
vn 0.8186 0.5743 0.0000
vn 0.4093 0.5743 -0.7089
vn 0.6315 -0.7754 0.0000
vn -0.6315 -0.7754 0.0000
vn 0.0000 -0.7754 -0.6315
vn 0.0000 -0.7754 0.6315
vn 0.0000 0.8414 -0.5405
vn 0.5405 0.8414 0.0000
vn 0.0000 0.8414 0.5405
vn -0.5405 0.8414 0.0000
vn 0.0000 -0.2523 -0.9676
vn -0.9676 -0.2523 0.0000
vn 0.0000 -0.2523 0.9676
vn 0.9676 -0.2523 0.0000
usemtl mat1
s off
f 13/1/1 2/2/1 12/3/1
f 12/3/2 2/2/2 11/4/2
f 11/4/3 2/2/3 10/5/3
f 10/6/4 2/2/4 9/7/4
f 9/7/5 2/2/5 14/8/5
f 14/8/6 2/2/6 13/1/6
f 1/9/7 3/10/7 8/11/7
f 4/12/7 5/13/7 8/11/7
f 7/14/7 1/9/7 8/11/7
f 5/13/7 6/15/7 8/11/7
f 3/10/7 4/12/7 8/11/7
f 6/15/7 7/14/7 8/11/7
f 7/16/8 14/17/8 13/18/8 1/19/8
f 6/20/9 9/21/9 14/17/9 7/16/9
f 5/22/10 10/23/10 9/21/10 6/20/10
f 4/24/11 11/25/11 10/26/11 5/27/11
f 3/28/12 12/29/12 11/25/12 4/24/12
f 1/19/13 13/18/13 12/29/13 3/28/13
f 20/30/14 18/31/14 15/32/14
f 24/33/15 22/34/15 15/35/15
f 22/36/16 20/37/16 15/38/16
f 18/39/17 24/40/17 15/41/17
f 19/42/18 21/43/18 16/44/18
f 17/45/19 19/42/19 16/44/19
f 23/46/20 17/45/20 16/44/20
f 21/43/21 23/46/21 16/44/21
usemtl mat2
f 20/37/22 22/36/22 21/43/22 19/42/22
f 21/43/23 22/34/23 24/33/23 23/46/23
f 24/40/24 18/39/24 17/45/24 23/46/24
f 18/31/25 20/30/25 19/42/25 17/45/25
