# Blender v2.82 (sub 7) OBJ File: 'frame_stairs.blend'
# www.blender.org
mtllib frame_stairs.mtl
o frame_stairs
v 20.000000 1.000000 -20.000000
v 20.000000 -1.000000 -20.000000
v 20.000000 1.000000 20.000000
v 20.000000 -1.000000 20.000000
v -20.000000 1.000000 -20.000000
v -20.000000 -1.000000 -20.000000
v -20.000000 1.000000 20.000000
v -20.000000 -1.000000 20.000000
v 18.000000 -19.000000 -18.000000
v 20.000000 -19.000000 -14.000000
v -18.000000 -1.000000 -18.000000
v 20.000000 -19.000000 -18.000000
v 18.000000 1.000000 18.000000
v -18.000000 1.000000 -18.000000
v -18.000000 1.000000 18.000000
v 20.000000 1.000000 18.000000
v 20.000000 -1.000000 18.000000
v -18.000000 -1.000000 18.000000
v 18.000000 -19.000000 -14.000000
v 18.000000 -1.000000 18.000000
v 20.000000 1.000000 8.000000
v 20.000000 -1.000000 8.000000
v 18.000000 1.000000 -18.000000
v 18.000000 -1.000000 -18.000000
v 18.000000 1.000000 8.000000
v 18.000000 -1.000000 8.000000
vt 0.237404 0.492953
vt 0.261657 0.492953
vt 0.261657 0.517601
vt 0.237404 0.517601
vt 0.988653 0.033316
vt 0.967219 0.021783
vt 0.978566 0.000000
vt 1.000000 0.011532
vt 0.116142 0.985906
vt 0.091889 0.985906
vt 0.091889 0.492953
vt 0.116142 0.492953
vt 0.067637 0.492953
vt 0.091889 0.492953
vt 0.067637 0.985906
vt 0.967219 0.492953
vt 0.483819 0.492953
vt 0.507989 0.468305
vt 0.943049 0.468305
vt 0.116142 0.936611
vt 0.116142 0.492953
vt 0.140394 0.492953
vt 0.140394 0.936611
vt 0.967219 0.000000
vt 0.943049 0.024648
vt 0.483819 0.000000
vt 0.507989 0.024648
vt 0.507989 0.000000
vt 0.188899 0.492953
vt 0.188899 0.936611
vt 0.164647 0.936611
vt 0.164647 0.492953
vt 0.140394 0.936611
vt 0.140394 0.492953
vt 0.164647 0.492953
vt 0.164647 0.936611
vt 0.459628 0.024648
vt 0.459628 0.000000
vt 0.483819 0.000000
vt 0.483819 0.492953
vt 0.459628 0.468305
vt 0.000000 0.492953
vt 0.024191 0.468305
vt 0.000000 0.000000
vt 0.024191 0.024648
vt 0.213152 0.838020
vt 0.188899 0.838020
vt 0.188899 0.492953
vt 0.213152 0.492953
vt 0.067637 0.985906
vt 0.043384 0.985906
vt 0.043384 0.492953
vt 0.067637 0.492953
vt 0.628839 0.024648
vt 0.628839 0.000000
vt 0.338673 0.000000
vt 0.338673 0.024648
vt 0.213152 0.492953
vt 0.237404 0.492953
vt 0.237404 0.813372
vt 0.213152 0.813372
vt 0.963031 0.000000
vt 0.963031 0.024648
vt 1.000000 0.485639
vt 0.977305 0.529206
vt 0.000000 1.000000
vt 0.021692 0.492953
vt 0.043384 0.537044
vt 0.021692 0.988977
vt 0.057040 0.024648
vt 0.057040 0.000000
vt 0.008658 0.024648
vt 0.008658 0.000000
vn 0.0000 0.0000 1.0000
vn 1.0000 0.0000 0.0000
vn -1.0000 0.0000 0.0000
vn 0.0000 1.0000 0.0000
vn 0.0000 0.0000 -1.0000
vn 0.0000 -1.0000 0.0000
vn 0.0000 0.8742 -0.4856
vn 0.0000 -0.8716 0.4903
usemtl mat1
s off
f 21/1/1 25/2/1 26/3/1 22/4/1
f 17/5/2 16/6/2 3/7/2 4/8/2
f 8/9/3 7/10/3 5/11/3 6/12/3
f 4/13/1 3/14/1 7/10/1 8/15/1
f 5/16/4 7/17/4 15/18/4 14/19/4
f 14/20/2 15/21/2 18/22/2 11/23/2
f 1/24/4 5/16/4 14/19/4 23/25/4
f 7/17/4 3/26/4 13/27/4 15/18/4
f 3/26/4 16/28/4 13/27/4
f 23/29/1 14/30/1 11/31/1 24/32/1
f 15/33/5 13/34/5 20/35/5 18/36/5
f 20/37/6 17/38/6 4/39/6
f 4/39/6 8/40/6 18/41/6 20/37/6
f 6/42/6 11/43/6 18/41/6 8/40/6
f 2/44/6 24/45/6 11/43/6 6/42/6
f 2/46/2 1/47/2 21/48/2 22/49/2
f 6/50/5 5/51/5 1/52/5 2/53/5
f 1/24/4 23/25/4 25/54/4 21/55/4
f 24/45/6 2/44/6 22/56/6 26/57/6
f 23/58/3 24/59/3 26/60/3 25/61/3
usemtl mat2
f 16/28/7 12/62/7 9/63/7 13/27/7
f 10/64/2 12/65/2 16/6/2 17/5/2
f 13/66/3 9/67/3 19/68/3 20/69/3
f 17/38/8 20/37/8 19/70/8 10/71/8
f 10/71/6 19/70/6 9/72/6 12/73/6
