# Blender v2.82 (sub 7) OBJ File: 'stairs_side.blend'
# www.blender.org
mtllib stairs_side.mtl
o stairs_side
v 20.000000 2.000000 -20.000000
v 20.000000 0.000000 -20.000000
v 20.000000 2.000000 20.000000
v 20.000000 0.000000 20.000000
v -20.000000 2.000000 -20.000000
v -20.000000 0.000000 -20.000000
v -20.000000 2.000000 20.000000
v -20.000000 0.000000 20.000000
v 12.000000 0.000000 -2.000000
v 12.000000 2.000000 -2.000000
v 12.000000 0.000000 -16.000000
v 12.000000 2.000000 -16.000000
v 16.000000 0.000000 -2.000000
v 16.000000 2.000000 -2.000000
v 16.000000 0.000000 -16.000000
v 16.000000 2.000000 -16.000000
v 12.000000 -20.000000 10.000000
v 12.000000 -18.000000 10.000000
v 16.000000 -20.000000 10.000000
v 16.000000 -18.000000 10.000000
vt 0.500000 0.000115
vt 0.500000 0.023919
vt 0.023919 0.023918
vt 0.023919 0.000114
vt 0.000115 0.023918
vt 0.023918 0.500000
vt 0.000114 0.500000
vt 0.523804 0.500000
vt 0.500000 0.500000
vt 0.523804 0.023919
vt 0.023918 0.523804
vt 0.500000 0.523804
vt 0.609605 0.166743
vt 0.609605 0.000114
vt 0.633409 0.000114
vt 0.633409 0.166743
vt 0.609605 0.380980
vt 0.609605 0.214351
vt 0.633409 0.214351
vt 0.633409 0.380980
vt 0.119135 0.071526
vt 0.071527 0.071526
vt 0.119135 0.238155
vt 0.071527 0.238155
vt 0.023919 0.999886
vt 0.071527 0.785649
vt 0.071527 0.952278
vt 0.500000 0.999885
vt 0.119135 0.952277
vt 0.119135 0.785649
vt 0.524033 0.462171
vt 0.524033 0.414563
vt 0.914448 0.414563
vt 0.914448 0.462171
vt 0.590508 0.414334
vt 0.542900 0.414334
vt 0.542900 0.023918
vt 0.590508 0.023918
vt 0.609376 0.399820
vt 0.609376 0.009405
vt 0.542900 0.000114
vt 0.590508 0.000114
vt 0.524033 0.399820
vt 0.524033 0.009405
vn 0.0000 0.0000 -1.0000
vn 1.0000 0.0000 0.0000
vn -1.0000 0.0000 0.0000
vn 0.0000 0.0000 1.0000
vn 0.0000 1.0000 0.0000
vn 0.0000 -1.0000 0.0000
vn 0.0000 -0.7926 -0.6097
vn 0.0000 0.7926 0.6097
usemtl mat1
s off
f 6/1/1 5/2/1 1/3/1 2/4/1
f 2/5/2 1/3/2 3/6/2 4/7/2
f 8/8/3 7/9/3 5/2/3 6/10/3
f 4/11/4 3/6/4 7/9/4 8/12/4
f 9/13/2 11/14/2 12/15/2 10/16/2
f 15/17/3 13/18/3 14/19/3 16/20/3
f 13/18/1 9/13/1 10/16/1 14/19/1
f 1/3/5 5/2/5 12/21/5 16/22/5
f 5/2/5 7/9/5 10/23/5 12/21/5
f 7/9/5 3/6/5 14/24/5 10/23/5
f 3/6/5 1/3/5 16/22/5 14/24/5
f 2/25/6 4/11/6 13/26/6 15/27/6
f 6/28/6 2/25/6 15/27/6 11/29/6
f 8/12/6 6/28/6 11/29/6 9/30/6
f 4/11/6 8/12/6 9/30/6 13/26/6
usemtl mat2
f 11/31/7 15/32/7 19/33/7 17/34/7
f 16/35/8 12/36/8 18/37/8 20/38/8
f 15/39/2 16/35/2 20/38/2 19/40/2
f 17/41/4 19/42/4 20/38/4 18/37/4
f 12/36/3 11/43/3 17/44/3 18/37/3
