# Blender v2.82 (sub 7) OBJ File: 'stairs_triangle.blend'
# www.blender.org
mtllib stairs_triangle.mtl
o stairs_triangle
v 20.000000 2.000000 -20.000000
v 20.000000 0.000000 -20.000000
v 20.000000 2.000000 20.000000
v 20.000000 0.000000 20.000000
v -20.000000 2.000000 -20.000000
v -20.000000 0.000000 -20.000000
v -20.000000 2.000000 20.000000
v -20.000000 0.000000 20.000000
v -2.000000 0.000000 -2.000000
v -2.000000 2.000000 -2.000000
v -2.000000 0.000000 -16.000000
v -2.000000 2.000000 -16.000000
v 2.000000 0.000000 -2.000000
v 2.000000 2.000000 -2.000000
v 2.000000 0.000000 -16.000000
v 2.000000 2.000000 -16.000000
v -2.000000 -18.000000 -16.000000
v -2.000000 -18.000000 10.000000
v 2.000000 -18.000000 -16.000000
v 2.000000 -18.000000 10.000000
vt 0.023947 0.999856
vt 0.023947 0.976053
vt 0.500002 0.976052
vt 0.500002 0.999854
vt 0.523805 0.976052
vt 0.500002 0.500001
vt 0.523805 0.500001
vt 0.000148 0.499999
vt 0.023951 0.499999
vt 0.000144 0.976053
vt 0.500002 0.476198
vt 0.023951 0.476196
vt 0.950487 0.214368
vt 0.950487 0.380987
vt 0.926685 0.380987
vt 0.926685 0.214368
vt 0.950487 0.000144
vt 0.950487 0.166763
vt 0.926685 0.166763
vt 0.926685 0.000144
vt 0.238174 0.928447
vt 0.285778 0.928447
vt 0.238174 0.761829
vt 0.285779 0.761829
vt 0.500006 0.000144
vt 0.285779 0.214368
vt 0.285778 0.047750
vt 0.023951 0.000146
vt 0.238175 0.047751
vt 0.238174 0.214368
vt 0.524093 0.678315
vt 0.571698 0.678315
vt 0.571698 0.892539
vt 0.524093 0.892539
vt 0.655978 0.015473
vt 0.701048 0.000144
vt 0.826756 0.369743
vt 0.781687 0.385073
vt 0.642790 0.035288
vt 0.524093 0.213622
vt 0.926396 0.662697
vt 0.881326 0.678027
vt 0.723583 0.007809
vt 0.926396 0.076790
vn 0.0000 0.0000 -1.0000
vn 1.0000 0.0000 0.0000
vn -1.0000 0.0000 0.0000
vn 0.0000 0.0000 1.0000
vn 0.0000 1.0000 0.0000
vn 0.0000 -1.0000 0.0000
vn 0.0000 0.7926 0.6097
usemtl mat1
s off
f 6/1/1 5/2/1 1/3/1 2/4/1
f 2/5/2 1/3/2 3/6/2 4/7/2
f 8/8/3 7/9/3 5/2/3 6/10/3
f 4/11/4 3/6/4 7/9/4 8/12/4
f 9/13/2 11/14/2 12/15/2 10/16/2
f 15/17/3 13/18/3 14/19/3 16/20/3
f 13/18/1 9/13/1 10/16/1 14/19/1
f 1/3/5 5/2/5 12/21/5 16/22/5
f 5/2/5 7/9/5 10/23/5 12/21/5
f 7/9/5 3/6/5 14/24/5 10/23/5
f 3/6/5 1/3/5 16/22/5 14/24/5
f 2/25/6 4/11/6 13/26/6 15/27/6
f 6/28/6 2/25/6 15/27/6 11/29/6
f 8/12/6 6/28/6 11/29/6 9/30/6
f 4/11/6 8/12/6 9/30/6 13/26/6
usemtl mat2
f 11/31/1 15/32/1 19/33/1 17/34/1
f 16/35/7 12/36/7 18/37/7 20/38/7
f 15/39/2 20/38/2 19/40/2
f 17/41/6 19/42/6 20/38/6 18/37/6
f 11/43/3 18/37/3 12/36/3
f 11/43/3 17/44/3 18/37/3
f 15/39/2 16/35/2 20/38/2
