# Blender v2.82 (sub 7) OBJ File: 'stairs_platforms.blend'
# www.blender.org
mtllib stairs_platforms.mtl
o stairs_platforms
v 20.000000 2.000000 -20.000000
v 20.000000 0.000000 -20.000000
v 20.000000 2.000000 20.000000
v 20.000000 0.000000 20.000000
v -20.000000 2.000000 -20.000000
v -20.000000 0.000000 -20.000000
v -20.000000 2.000000 20.000000
v -20.000000 0.000000 20.000000
v -2.000000 0.000000 -2.000000
v -2.000000 2.000000 -2.000000
v -2.000000 0.000000 -16.000000
v -2.000000 2.000000 -16.000000
v 2.000000 0.000000 -2.000000
v 2.000000 2.000000 -2.000000
v 2.000000 0.000000 -16.000000
v 2.000000 2.000000 -16.000000
v -2.000000 -4.000000 -11.000000
v -2.000000 -2.000000 -11.000000
v -2.000000 -4.000000 -15.000000
v -2.000000 -2.000000 -15.000000
v 2.000000 -4.000000 -11.000000
v 2.000000 -2.000000 -11.000000
v 2.000000 -4.000000 -15.000000
v 2.000000 -2.000000 -15.000000
v -2.000000 -8.000000 -6.000000
v -2.000000 -6.000000 -6.000000
v -2.000000 -8.000000 -10.000000
v -2.000000 -6.000000 -10.000000
v 2.000000 -8.000000 -6.000000
v 2.000000 -6.000000 -6.000000
v 2.000000 -8.000000 -10.000000
v 2.000000 -6.000000 -10.000000
v -2.000000 -12.000000 -1.000000
v -2.000000 -10.000000 -1.000000
v -2.000000 -12.000000 -5.000000
v -2.000000 -10.000000 -5.000000
v 2.000000 -12.000000 -1.000000
v 2.000000 -10.000000 -1.000000
v 2.000000 -12.000000 -5.000000
v 2.000000 -10.000000 -5.000000
v -2.000000 -16.000000 4.000000
v -2.000000 -14.000000 4.000000
v -2.000000 -16.000000 0.000000
v -2.000000 -14.000000 0.000000
v 2.000000 -16.000000 4.000000
v 2.000000 -14.000000 4.000000
v 2.000000 -16.000000 0.000000
v 2.000000 -14.000000 0.000000
vt 0.023932 0.999871
vt 0.023932 0.976068
vt 0.500002 0.976066
vt 0.500002 0.999870
vt 0.523805 0.976066
vt 0.500002 0.500001
vt 0.523805 0.500001
vt 0.000133 0.499999
vt 0.023936 0.499999
vt 0.000129 0.976067
vt 0.500002 0.476198
vt 0.023936 0.476196
vt 0.643339 0.452909
vt 0.643339 0.619533
vt 0.619535 0.619533
vt 0.619535 0.452909
vt 0.643339 0.191073
vt 0.643339 0.238679
vt 0.619535 0.238679
vt 0.619535 0.191073
vt 0.643339 0.405303
vt 0.619535 0.405303
vt 0.238167 0.928460
vt 0.285772 0.928460
vt 0.238166 0.761837
vt 0.285772 0.761837
vt 0.500006 0.000129
vt 0.285773 0.214359
vt 0.285772 0.047737
vt 0.023936 0.000130
vt 0.238167 0.047737
vt 0.238166 0.214359
vt 0.524064 0.405561
vt 0.547867 0.405561
vt 0.547867 0.453168
vt 0.524064 0.453168
vt 0.547867 0.476971
vt 0.595474 0.453168
vt 0.595474 0.476971
vt 0.619277 0.453168
vt 0.595474 0.405561
vt 0.619277 0.405561
vt 0.595474 0.381758
vt 0.547867 0.381758
vt 0.547867 0.334151
vt 0.595474 0.334151
vt 0.595474 0.095601
vt 0.595474 0.119404
vt 0.547867 0.119404
vt 0.547867 0.095601
vt 0.524064 0.119404
vt 0.547867 0.167011
vt 0.524064 0.167011
vt 0.547867 0.190814
vt 0.595474 0.167011
vt 0.595474 0.190814
vt 0.619277 0.167011
vt 0.619277 0.119404
vt 0.666884 0.119404
vt 0.666884 0.167011
vt 0.619277 0.262483
vt 0.595474 0.262483
vt 0.595474 0.214876
vt 0.619277 0.214876
vt 0.595474 0.191073
vt 0.547867 0.214876
vt 0.547867 0.191073
vt 0.524064 0.214876
vt 0.547867 0.262483
vt 0.524064 0.262483
vt 0.547867 0.286286
vt 0.595474 0.286286
vt 0.595474 0.333893
vt 0.547867 0.333893
vt 0.595474 0.095343
vt 0.595474 0.071539
vt 0.643081 0.071539
vt 0.643081 0.095343
vt 0.666884 0.071539
vt 0.643081 0.023932
vt 0.666884 0.023932
vt 0.643081 0.000129
vt 0.595474 0.023932
vt 0.595474 0.000129
vt 0.571670 0.023932
vt 0.571670 0.071539
vt 0.524064 0.071539
vt 0.524064 0.023932
vn 0.0000 0.0000 -1.0000
vn 1.0000 0.0000 0.0000
vn -1.0000 0.0000 0.0000
vn 0.0000 0.0000 1.0000
vn 0.0000 1.0000 0.0000
vn 0.0000 -1.0000 0.0000
usemtl mat1
s off
f 6/1/1 5/2/1 1/3/1 2/4/1
f 2/5/2 1/3/2 3/6/2 4/7/2
f 8/8/3 7/9/3 5/2/3 6/10/3
f 4/11/4 3/6/4 7/9/4 8/12/4
f 9/13/2 11/14/2 12/15/2 10/16/2
f 11/17/4 15/18/4 16/19/4 12/20/4
f 15/18/3 13/21/3 14/22/3 16/19/3
f 13/21/1 9/13/1 10/16/1 14/22/1
f 1/3/5 5/2/5 12/23/5 16/24/5
f 5/2/5 7/9/5 10/25/5 12/23/5
f 7/9/5 3/6/5 14/26/5 10/25/5
f 3/6/5 1/3/5 16/24/5 14/26/5
f 2/27/6 4/11/6 13/28/6 15/29/6
f 6/30/6 2/27/6 15/29/6 11/31/6
f 8/12/6 6/30/6 11/31/6 9/32/6
f 4/11/6 8/12/6 9/32/6 13/28/6
usemtl mat2
f 17/33/3 18/34/3 20/35/3 19/36/3
f 19/37/1 20/35/1 24/38/1 23/39/1
f 23/40/2 24/38/2 22/41/2 21/42/2
f 21/43/4 22/41/4 18/34/4 17/44/4
f 19/45/6 23/46/6 21/43/6 17/44/6
f 24/38/5 20/35/5 18/34/5 22/41/5
f 25/47/3 26/48/3 28/49/3 27/50/3
f 27/51/1 28/49/1 32/52/1 31/53/1
f 31/54/2 32/52/2 30/55/2 29/56/2
f 29/57/4 30/55/4 26/48/4 25/58/4
f 27/59/6 31/60/6 29/57/6 25/58/6
f 32/52/5 28/49/5 26/48/5 30/55/5
f 33/61/3 34/62/3 36/63/3 35/64/3
f 35/65/1 36/63/1 40/66/1 39/67/1
f 39/68/2 40/66/2 38/69/2 37/70/2
f 37/71/4 38/69/4 34/62/4 33/72/4
f 35/73/6 39/74/6 37/71/6 33/72/6
f 40/66/5 36/63/5 34/62/5 38/69/5
f 41/75/3 42/76/3 44/77/3 43/78/3
f 43/79/1 44/77/1 48/80/1 47/81/1
f 47/82/2 48/80/2 46/83/2 45/84/2
f 45/85/4 46/83/4 42/76/4 41/86/4
f 43/87/6 47/88/6 45/85/6 41/86/6
f 48/80/5 44/77/5 42/76/5 46/83/5
