# Blender v2.82 (sub 7) OBJ File: 'hills.blend'
# www.blender.org
mtllib hills.mtl
o hills
v 20.000000 0.000000 -20.000000
v 20.000000 -2.000000 -20.000000
v 20.000000 0.000000 20.000000
v 20.000000 -2.000000 20.000000
v -20.000000 0.000000 -20.000000
v -20.000000 -2.000000 -20.000000
v -20.000000 0.000000 20.000000
v -20.000000 -2.000000 20.000000
v -19.611889 -1.349781 19.546658
v 19.926327 -1.349781 19.311800
v -19.352873 -1.349781 -19.733686
v 19.433214 -1.349781 -19.347439
v -0.005131 -1.349781 19.582924
v -0.020118 -1.349781 -19.544109
v -19.701441 -1.349781 -0.050934
v 19.083366 -1.349781 -0.038646
v 0.440919 0.365754 -0.021872
v -9.647981 -1.349781 -19.612801
v -9.628919 -1.349781 19.793322
v -9.973432 0.524330 0.153027
v 10.003096 -1.349781 19.782841
v 9.737043 -1.349781 -19.504923
v 9.409435 0.110002 -0.287076
v -19.378571 -1.349781 9.742700
v 19.507957 -1.349781 9.554626
v -0.123275 0.601827 9.790708
v -9.872714 5.205112 9.958210
v 9.496707 2.516389 9.546880
v 19.453003 -1.349781 -9.211527
v -0.051264 1.635836 -9.931212
v -19.528204 -1.349781 -9.724611
v -9.781675 1.516690 -9.768645
v 9.693344 3.630002 -9.696500
v 19.343880 -1.349781 -15.195619
v 0.016172 1.899587 -14.539151
v -9.274493 0.399115 -14.504529
v 9.824685 3.843645 -14.269306
v -19.915588 -1.349781 -14.395133
v -19.450888 -1.349781 -4.793632
v 19.528173 -1.349781 -4.874327
v -0.272983 0.054665 -4.480886
v -9.924833 2.412503 -4.631358
v 9.932217 1.719213 -4.846494
v 19.572435 -1.349781 4.879012
v 0.010317 0.365754 4.928864
v -10.136789 1.654914 5.204786
v 9.588255 2.565106 4.896007
v -19.688866 -1.349781 5.385968
v -19.554510 -1.349781 14.644285
v 19.353161 -1.349781 14.084336
v 0.085523 2.274336 14.631810
v -9.366439 2.940242 14.653850
v 9.646979 1.636305 14.465841
v -14.586456 -1.349781 -19.838978
v -14.553822 2.303146 0.397821
v -14.670479 -1.349781 19.301455
v -14.803071 0.575519 9.803828
v -14.642669 1.554897 -9.756931
v -14.618054 1.588528 -14.599551
v -14.610073 0.158272 -4.788499
v -14.738548 0.971376 4.684187
v -14.497335 1.963513 14.671385
v -5.108542 -1.349781 19.475601
v -4.285480 -1.349781 -19.748772
v -4.710161 0.919030 -0.417753
v -4.774219 2.973498 9.679746
v -4.703519 3.710688 -9.860574
v -4.734114 2.906689 -14.963212
v -5.071386 3.210430 -4.610242
v -4.872506 2.492542 5.441833
v -4.545896 4.085487 14.483814
v 4.917072 -1.349781 -19.835831
v 4.997968 2.457512 0.354683
v 5.064961 -1.349781 19.092951
v 4.632317 1.381842 10.037143
v 4.862051 1.780396 -9.740468
v 4.801835 2.616428 -15.000993
v 4.891725 1.250041 -4.697140
v 5.107962 2.314445 4.902615
v 4.599421 0.473446 14.796412
v 14.722985 -1.349781 19.306734
v 14.806495 -1.349781 -20.020084
v 14.993999 -0.090053 0.067908
v 14.694381 2.294796 9.991470
v 14.952127 4.177417 -9.888520
v 14.588584 3.618402 -14.831969
v 14.047245 2.813881 -4.963993
v 14.731070 1.059561 4.885313
v 14.658517 3.352919 14.876622
vt 0.000120 0.023140
vt 0.023140 0.023140
vt 0.023140 0.483548
vt 0.000120 0.483548
vt 0.023140 0.506568
vt 0.483548 0.483548
vt 0.483548 0.506568
vt 0.966977 0.023140
vt 0.966977 0.483548
vt 0.506568 0.483548
vt 0.506569 0.023140
vt 0.483548 0.000120
vt 0.483548 0.023140
vt 0.023140 0.000120
vt 0.427698 0.510239
vt 0.490306 0.564959
vt 0.414428 0.584700
vt 0.424634 0.806454
vt 0.496877 0.748820
vt 0.499514 0.802526
vt 0.190213 0.755024
vt 0.255569 0.811313
vt 0.182970 0.816876
vt 0.187209 0.577133
vt 0.247635 0.517645
vt 0.247384 0.569652
vt 0.190505 0.879521
vt 0.244912 0.927759
vt 0.196588 0.934429
vt 0.425859 0.928971
vt 0.494108 0.869616
vt 0.496344 0.930500
vt 0.187174 0.639948
vt 0.240300 0.691177
vt 0.188407 0.691935
vt 0.423727 0.689576
vt 0.495283 0.628588
vt 0.499514 0.687672
vt 0.074448 0.641397
vt 0.127134 0.701930
vt 0.067683 0.704083
vt 0.082507 0.921385
vt 0.131457 0.869055
vt 0.138194 0.935581
vt 0.078362 0.512190
vt 0.125562 0.582301
vt 0.072282 0.584555
vt 0.083730 0.813552
vt 0.135085 0.757814
vt 0.133905 0.815371
vt 0.301456 0.692259
vt 0.362385 0.635446
vt 0.361626 0.692970
vt 0.308874 0.932125
vt 0.370457 0.872004
vt 0.370699 0.929261
vt 0.299759 0.754274
vt 0.367947 0.808528
vt 0.311252 0.816838
vt 0.313319 0.586736
vt 0.355312 0.506808
vt 0.366357 0.582441
vt 0.410657 0.633224
vt 0.422326 0.748889
vt 0.304431 0.510113
vt 0.251876 0.874851
vt 0.252305 0.635899
vt 0.132894 0.642053
vt 0.132399 0.511560
vt 0.004749 0.760158
vt 0.004357 0.822951
vt 0.012039 0.515110
vt 0.002721 0.579944
vt 0.018364 0.933926
vt 0.081354 0.864022
vt 0.010141 0.699479
vt 0.076737 0.991058
vt 0.017461 0.993800
vt 0.187496 0.998309
vt 0.135850 0.993213
vt 0.251927 0.998194
vt 0.308791 0.994682
vt 0.369821 0.997176
vt 0.427108 0.999880
vt 0.492072 0.988853
vt 0.006517 0.875545
vt 0.309685 0.870412
vt 0.428212 0.866149
vt 0.077213 0.761873
vt 0.248002 0.748456
vt 0.365364 0.750792
vt 0.000120 0.639538
vt 0.306247 0.632969
vt 0.479748 0.507217
vt 0.188332 0.511812
vn 0.0000 0.0000 -1.0000
vn 1.0000 0.0000 0.0000
vn 0.0000 -1.0000 0.0000
vn -1.0000 0.0000 0.0000
vn 0.0000 1.0000 0.0000
vn 0.0000 0.0000 1.0000
vn 0.5835 0.5987 -0.5488
vn 0.0318 0.7483 -0.6626
vn 0.3679 0.9005 -0.2316
vn 0.2830 0.9363 -0.2080
vn -0.1723 0.9428 0.2855
vn 0.0224 0.8720 -0.4889
vn -0.0558 0.9979 0.0327
vn 0.0435 0.7729 -0.6330
vn -0.2094 0.9608 0.1819
vn -0.6726 0.7217 -0.1636
vn 0.6872 0.7111 -0.1490
vn 0.4472 0.8665 -0.2218
vn -0.3565 0.9289 0.0998
vn 0.0082 0.9627 0.2706
vn 0.5435 0.8312 0.1173
vn 0.7199 0.6235 0.3049
vn -0.2557 0.9543 0.1546
vn 0.0079 0.9999 0.0070
vn 0.2180 0.9638 -0.1532
vn 0.7115 0.6905 -0.1304
vn 0.5679 0.7546 0.3287
vn 0.5007 0.7770 0.3815
vn 0.3200 0.8743 -0.3650
vn 0.4335 0.8743 -0.2181
vn -0.2094 0.9653 0.1559
vn -0.1547 0.9852 0.0742
vn 0.5821 0.7913 -0.1872
vn 0.4536 0.8843 -0.1109
vn -0.0155 0.6772 0.7356
vn -0.0007 0.6857 0.7279
vn -0.1516 0.8065 0.5715
vn -0.1807 0.8982 0.4007
vn -0.3880 0.9212 0.0276
vn -0.2974 0.9546 -0.0157
vn -0.4835 0.8744 0.0401
vn -0.5110 0.8595 0.0080
vn -0.3877 0.9217 -0.0139
vn -0.4859 0.8725 -0.0512
vn -0.4244 0.9055 0.0010
vn 0.0451 0.7658 0.6415
vn -0.1006 0.7998 -0.5918
vn -0.0300 0.9299 0.3667
vn -0.3878 0.8870 -0.2508
vn -0.1590 0.9718 -0.1739
vn 0.3899 0.8452 0.3656
vn -0.1436 0.9647 -0.2206
vn -0.4873 0.8365 -0.2507
vn 0.2867 0.7706 0.5693
vn -0.1590 0.9859 -0.0522
vn -0.2266 0.9735 -0.0316
vn -0.0316 0.9979 0.0567
vn -0.2069 0.9418 0.2648
vn -0.1374 0.9380 -0.3181
vn -0.1754 0.8263 -0.5352
vn -0.4144 0.9094 -0.0360
vn -0.3192 0.8170 0.4802
vn 0.2810 0.9596 0.0156
vn -0.2373 0.9243 0.2990
vn -0.1019 0.9938 0.0435
vn -0.2294 0.9017 0.3665
vn 0.0270 0.9842 0.1753
vn 0.0596 0.9013 -0.4290
vn -0.0495 0.7095 -0.7030
vn 0.2208 0.8173 -0.5322
vn 0.1061 0.9943 0.0092
vn 0.4451 0.8944 -0.0443
vn 0.3461 0.9179 -0.1942
vn 0.2107 0.9200 -0.3304
vn 0.3825 0.8298 -0.4063
vn -0.0709 0.7088 -0.7019
vn -0.2064 0.9621 0.1784
vn -0.1662 0.8810 0.4429
vn 0.6047 0.7962 0.0207
vn 0.3540 0.8792 -0.3190
vn -0.0753 0.9265 0.3687
vn -0.4229 0.8906 -0.1671
vn 0.3955 0.8777 0.2707
vn 0.6050 0.7962 -0.0105
vn -0.3576 0.9333 0.0333
vn 0.2162 0.9552 -0.2022
vn 0.4074 0.9114 0.0581
vn 0.7762 0.6303 -0.0142
vn 0.2949 0.9551 0.0271
vn 0.1130 0.9898 -0.0871
vn -0.4183 0.8463 0.3298
vn -0.0782 0.9429 0.3238
vn -0.0558 0.9984 0.0094
vn -0.6015 0.6557 -0.4563
vn 0.4455 0.8952 0.0061
vn 0.3961 0.9176 -0.0337
vn 0.2834 0.7714 0.5698
vn 0.6991 0.7109 -0.0767
vn -0.0622 0.7678 0.6377
vn -0.0687 0.8679 0.4920
vn -0.4765 0.7233 0.4998
vn -0.4161 0.9070 0.0649
vn -0.5298 0.7858 -0.3192
vn -0.5110 0.8596 0.0034
vn -0.2874 0.9216 0.2609
vn -0.5362 0.8200 -0.2002
vn -0.0108 0.8721 -0.4892
vn -0.5773 0.7865 0.2195
vn -0.1355 0.6778 0.7227
vn 0.3932 0.9125 -0.1127
vn -0.1440 0.8631 0.4841
vn -0.4894 0.8619 -0.1329
vn -0.3950 0.9167 0.0597
vn -0.2330 0.9498 -0.2088
vn -0.1003 0.9602 -0.2606
vn -0.0169 0.7463 -0.6654
vn 0.0374 0.9214 0.3869
vn -0.3532 0.9257 0.1354
vn -0.3941 0.8957 -0.2058
vn -0.1315 0.9788 0.1571
vn -0.0333 0.9939 0.1047
vn 0.3591 0.9163 0.1774
vn -0.0375 0.7722 -0.6343
vn -0.3566 0.9335 0.0380
vn 0.0732 0.6844 0.7254
vn 0.0614 0.9702 -0.2343
vn -0.0008 0.8661 0.4999
vn 0.0334 0.9928 -0.1147
vn -0.0912 0.9639 0.2501
vn -0.3022 0.9312 -0.2039
vn 0.2743 0.9386 -0.2090
vn -0.0703 0.7190 -0.6915
usemtl mat1
s off
f 6/1/1 5/2/1 1/3/1 2/4/1
f 2/5/2 1/3/2 3/6/2 4/7/2
f 6/8/3 2/9/3 4/10/3 8/11/3
f 8/12/4 7/13/4 5/2/4 6/14/4
f 1/3/5 5/2/5 7/13/5 3/6/5
f 4/10/6 3/6/6 7/13/6 8/11/6
f 34/15/7 82/16/7 86/17/7
f 68/18/8 14/19/8 64/20/8
f 45/21/9 65/22/9 70/23/9
f 88/24/10 16/25/10 83/26/10
f 46/27/11 55/28/11 61/29/11
f 59/30/12 18/31/12 54/32/12
f 47/33/13 73/34/13 79/35/13
f 77/36/14 22/37/14 72/38/14
f 53/39/15 75/40/15 80/41/15
f 62/42/16 27/43/16 57/44/16
f 50/45/17 84/46/17 89/47/17
f 71/48/18 26/49/18 66/50/18
f 78/51/19 33/52/19 76/53/19
f 60/54/20 32/55/20 58/56/20
f 41/57/21 67/58/21 69/59/21
f 87/60/22 29/61/22 85/62/22
f 76/53/23 37/63/23 77/36/23
f 32/55/24 59/30/24 58/56/24
f 67/58/25 35/64/25 68/18/25
f 85/62/26 34/15/26 86/17/26
f 83/26/27 40/65/27 87/60/27
f 65/22/28 41/57/28 69/59/28
f 20/66/29 60/54/29 55/28/29
f 23/67/30 78/51/30 73/34/30
f 28/68/31 79/35/31 75/40/31
f 57/44/32 46/27/32 61/29/32
f 25/69/33 88/24/33 84/46/33
f 26/49/34 70/23/34 66/50/34
f 13/70/35 71/48/35 63/71/35
f 10/72/36 89/47/36 81/73/36
f 56/74/37 52/75/37 62/42/37
f 74/76/38 53/39/38 80/41/38
f 56/74/5 49/77/5 9/78/5
f 57/44/39 48/79/39 24/80/39
f 15/81/40 60/54/40 39/82/40
f 31/83/41 59/30/41 38/84/41
f 39/82/42 58/56/42 31/83/42
f 49/77/43 57/44/43 24/80/43
f 59/30/44 11/85/44 38/84/44
f 61/29/45 15/81/45 48/79/45
f 63/71/46 52/75/46 19/86/46
f 27/43/47 70/23/47 46/27/47
f 65/22/48 42/87/48 20/66/48
f 67/58/49 36/88/49 32/55/49
f 69/59/50 32/55/50 42/87/50
f 52/75/51 66/50/51 27/43/51
f 70/23/52 20/66/52 46/27/52
f 68/18/53 18/31/53 36/88/53
f 13/70/54 80/41/54 51/89/54
f 75/40/55 45/21/55 26/49/55
f 17/90/56 78/51/56 41/57/56
f 76/53/57 35/64/57 30/91/57
f 78/51/58 30/91/58 41/57/58
f 51/89/59 75/40/59 26/49/59
f 77/36/60 14/19/60 35/64/60
f 45/21/61 73/34/61 17/90/61
f 21/92/62 89/47/62 53/39/62
f 28/68/63 88/24/63 47/33/63
f 23/67/64 87/60/64 43/93/64
f 85/62/65 37/63/65 33/52/65
f 87/60/66 33/52/66 43/93/66
f 53/39/67 84/46/67 28/68/67
f 47/33/68 83/26/68 23/67/68
f 86/17/69 22/37/69 37/63/69
f 34/15/5 12/94/5 82/16/5
f 68/18/70 35/64/70 14/19/70
f 45/21/71 17/90/71 65/22/71
f 88/24/72 44/95/72 16/25/72
f 46/27/73 20/66/73 55/28/73
f 59/30/74 36/88/74 18/31/74
f 47/33/75 23/67/75 73/34/75
f 77/36/76 37/63/76 22/37/76
f 53/39/77 28/68/77 75/40/77
f 62/42/78 52/75/78 27/43/78
f 50/45/79 25/69/79 84/46/79
f 71/48/80 51/89/80 26/49/80
f 78/51/81 43/93/81 33/52/81
f 60/54/82 42/87/82 32/55/82
f 41/57/83 30/91/83 67/58/83
f 87/60/84 40/65/84 29/61/84
f 76/53/85 33/52/85 37/63/85
f 32/55/86 36/88/86 59/30/86
f 67/58/87 30/91/87 35/64/87
f 85/62/88 29/61/88 34/15/88
f 83/26/89 16/25/89 40/65/89
f 65/22/90 17/90/90 41/57/90
f 20/66/91 42/87/91 60/54/91
f 23/67/92 43/93/92 78/51/92
f 28/68/93 47/33/93 79/35/93
f 57/44/94 27/43/94 46/27/94
f 25/69/95 44/95/95 88/24/95
f 26/49/96 45/21/96 70/23/96
f 13/70/97 51/89/97 71/48/97
f 10/72/98 50/45/98 89/47/98
f 56/74/99 19/86/99 52/75/99
f 74/76/100 21/92/100 53/39/100
f 56/74/101 62/42/101 49/77/101
f 57/44/102 61/29/102 48/79/102
f 15/81/103 55/28/103 60/54/103
f 31/83/104 58/56/104 59/30/104
f 39/82/105 60/54/105 58/56/105
f 49/77/106 62/42/106 57/44/106
f 59/30/107 54/32/107 11/85/107
f 61/29/108 55/28/108 15/81/108
f 63/71/109 71/48/109 52/75/109
f 27/43/110 66/50/110 70/23/110
f 65/22/111 69/59/111 42/87/111
f 67/58/112 68/18/112 36/88/112
f 69/59/113 67/58/113 32/55/113
f 52/75/114 71/48/114 66/50/114
f 70/23/115 65/22/115 20/66/115
f 68/18/116 64/20/116 18/31/116
f 13/70/117 74/76/117 80/41/117
f 75/40/118 79/35/118 45/21/118
f 17/90/119 73/34/119 78/51/119
f 76/53/120 77/36/120 35/64/120
f 78/51/121 76/53/121 30/91/121
f 51/89/122 80/41/122 75/40/122
f 77/36/123 72/38/123 14/19/123
f 45/21/124 79/35/124 73/34/124
f 21/92/125 81/73/125 89/47/125
f 28/68/126 84/46/126 88/24/126
f 23/67/127 83/26/127 87/60/127
f 85/62/128 86/17/128 37/63/128
f 87/60/129 85/62/129 33/52/129
f 53/39/130 89/47/130 84/46/130
f 47/33/131 88/24/131 83/26/131
f 86/17/132 82/16/132 22/37/132
