# Blender v2.82 (sub 7) OBJ File: 'houses.blend'
# www.blender.org
mtllib houses.mtl
o houses
v 20.000000 0.000000 -20.000000
v 20.000000 -2.000000 -20.000000
v 20.000000 0.000000 20.000000
v 20.000000 -2.000000 20.000000
v -20.000000 0.000000 -20.000000
v -20.000000 -2.000000 -20.000000
v -20.000000 0.000000 20.000000
v -20.000000 -2.000000 20.000000
v 8.399612 -0.366582 -1.990715
v 8.399612 13.110711 -1.990715
v 8.252281 -0.366582 -17.456978
v 8.252281 13.110711 -17.456978
v 17.604309 -0.366582 -1.917050
v 17.604309 13.110711 -1.917050
v 17.456978 -0.366582 -17.383312
v 17.456978 13.110711 -17.383312
v 9.372575 14.362998 -15.295361
v 9.372575 12.938252 -15.295361
v 16.570831 14.362998 -15.319560
v 16.570831 12.938252 -15.319560
v 9.406539 14.362998 -13.415138
v 9.406539 12.938252 -13.415138
v 16.604797 14.362998 -13.439335
v 16.604797 12.938252 -13.439335
v 9.432966 14.362998 -10.373461
v 9.432966 12.938252 -10.373461
v 16.631222 14.362998 -10.397660
v 16.631222 12.938252 -10.397660
v 9.466930 14.362998 -8.493238
v 9.466930 12.938252 -8.493238
v 16.665188 14.362998 -8.517435
v 16.665188 12.938252 -8.517435
v 9.463161 14.362998 -5.753518
v 9.463161 12.938252 -5.753518
v 16.661417 14.362998 -5.777718
v 16.661417 12.938252 -5.777718
v 9.497126 14.362998 -3.873296
v 9.497126 12.938252 -3.873296
v 16.695383 14.362998 -3.897492
v 16.695383 12.938252 -3.897492
v 7.940291 -0.129083 -2.789538
v 7.940291 3.095641 -2.789538
v 7.940291 -0.129083 -4.789538
v 7.940291 3.095641 -4.789538
v 8.563200 -0.129083 -2.789538
v 8.563200 3.095641 -2.789538
v 8.563200 -0.129083 -4.789538
v 8.563200 3.095641 -4.789538
v 7.622023 5.793638 -2.830476
v 9.046768 5.793638 -2.830476
v 7.622023 4.066318 -2.806277
v 9.046768 4.066318 -2.806277
v 7.622023 5.752535 -16.474743
v 9.046768 5.752535 -16.474745
v 7.622023 4.025214 -16.450546
v 9.046768 4.025214 -16.450548
v 7.589070 8.858221 -2.830475
v 9.013816 8.858221 -2.830475
v 7.589070 7.130900 -2.806277
v 9.013816 7.130900 -2.806277
v 7.589070 8.817118 -16.474743
v 9.013816 8.817118 -16.474745
v 7.589070 7.089797 -16.450546
v 9.013816 7.089797 -16.450548
v 7.589070 11.626231 -2.830475
v 9.013816 11.626231 -2.830475
v 7.589070 9.898911 -2.806276
v 9.013816 9.898911 -2.806276
v 7.589070 11.585128 -16.474743
v 9.013816 11.585128 -16.474745
v 7.589070 9.857807 -16.450546
v 9.013816 9.857807 -16.450548
v -8.926373 -0.366582 -15.213938
v -8.926373 13.110711 -15.213938
v -8.820899 -0.366582 5.579655
v -8.820899 13.110711 5.579655
v -18.130836 -0.366582 -15.312515
v -18.130836 13.110711 -15.312515
v -18.025364 -0.366582 5.481079
v -18.025364 13.110711 5.481079
v -9.935338 14.362998 3.415012
v -9.935338 12.938252 3.415012
v -17.133636 14.362998 3.419731
v -17.133636 12.938252 3.419731
v -9.964215 14.362998 1.534705
v -9.964215 12.938252 1.534705
v -17.162514 14.362998 1.539420
v -17.162514 12.938252 1.539420
v -9.982409 14.362998 -1.507033
v -9.982409 12.938252 -1.507033
v -17.180706 14.362998 -1.502315
v -17.180706 12.938252 -1.502315
v -10.011285 14.362998 -3.387340
v -10.011285 12.938252 -3.387340
v -17.209583 14.362998 -3.382625
v -17.209583 12.938252 -3.382625
v -10.000101 14.362998 -11.454026
v -10.000101 12.938252 -11.454026
v -17.198397 14.362998 -11.449308
v -17.198397 12.938252 -11.449308
v -10.028977 14.362998 -13.334334
v -10.028977 12.938252 -13.334334
v -17.227274 14.362998 -13.329618
v -17.227274 12.938252 -13.329618
v -8.469216 -0.129084 -14.413875
v -8.469216 3.095641 -14.413875
v -8.474629 -0.129084 -12.413881
v -8.474629 3.095641 -12.413881
v -9.092122 -0.129084 -14.415561
v -9.092122 3.095641 -14.415561
v -9.097534 -0.129084 -12.415567
v -9.097534 3.095641 -12.415567
v -8.151058 5.793638 -14.372076
v -9.575799 5.793638 -14.375932
v -8.150992 4.066318 -14.396275
v -9.575733 4.066318 -14.400130
v -8.187985 5.752535 4.599128
v -9.612725 5.752535 4.595274
v -8.187920 4.025214 4.574931
v -9.612659 4.025214 4.571077
v -8.118106 8.858221 -14.371986
v -9.542848 8.858221 -14.375843
v -8.118040 7.130900 -14.396185
v -9.542782 7.130900 -14.400042
v -8.155032 8.817118 4.599217
v -9.579774 8.817118 4.595363
v -8.154966 7.089797 4.575021
v -9.579709 7.089797 4.571166
v -8.118106 11.626231 -14.371988
v -9.542848 11.626231 -14.375843
v -8.118040 9.898911 -14.396187
v -9.542782 9.898911 -14.400042
v -8.155032 11.585128 4.599217
v -9.579774 11.585128 4.595363
v -8.154966 9.857807 4.575021
v -9.579709 9.857807 4.571166
v 10.509023 -0.366582 17.081800
v 10.509023 4.251865 17.081800
v 10.405559 -0.366582 1.615537
v 10.405559 4.251865 1.615537
v 16.973028 -0.366582 17.155466
v 16.973028 4.251865 17.155466
v 16.869564 -0.366582 1.689203
v 16.869564 4.251865 1.689203
v 9.531120 4.162410 17.906279
v 13.671401 6.162410 15.029827
v 9.490771 4.162410 0.856059
v 13.644953 6.162410 3.853559
v 17.825583 4.162410 18.027327
v 17.785233 4.162410 0.977107
vt 0.020762 0.860390
vt 0.020762 0.839911
vt 0.430337 0.839911
vt 0.430337 0.860390
vt 0.450815 0.839911
vt 0.430337 0.430337
vt 0.450815 0.430337
vt 0.020762 0.000283
vt 0.430337 0.000283
vt 0.430337 0.409858
vt 0.020762 0.409858
vt 0.000283 0.430336
vt 0.020762 0.430336
vt 0.000283 0.839911
vt 0.564344 0.413024
vt 0.661066 0.511455
vt 0.548102 0.622456
vt 0.451381 0.524024
vt 0.451381 0.720887
vt 0.615331 0.688516
vt 0.518610 0.786948
vt 0.712052 0.786948
vt 0.728294 0.577516
vt 0.825015 0.675947
vt 0.825015 0.479084
vt 0.757787 0.413024
vt 0.945957 0.224771
vt 0.945743 0.239358
vt 0.926489 0.239075
vt 0.926704 0.224488
vt 0.926275 0.327368
vt 0.926489 0.312781
vt 0.945743 0.313064
vt 0.945528 0.327651
vt 0.911901 0.239075
vt 0.911901 0.312781
vt 0.960331 0.313064
vt 0.960331 0.239358
vt 0.779074 0.787797
vt 0.778860 0.802384
vt 0.759606 0.802101
vt 0.759821 0.787513
vt 0.759392 0.890393
vt 0.759606 0.875807
vt 0.778860 0.876090
vt 0.778645 0.890676
vt 0.745018 0.802101
vt 0.745018 0.875807
vt 0.793448 0.876090
vt 0.793448 0.802384
vt 0.034339 0.861239
vt 0.034125 0.875826
vt 0.014872 0.875543
vt 0.015086 0.860956
vt 0.014657 0.963836
vt 0.014872 0.949249
vt 0.034125 0.949532
vt 0.033910 0.964119
vt 0.000283 0.875543
vt 0.000283 0.949249
vt 0.048713 0.949532
vt 0.048713 0.875826
vt 0.603119 0.000283
vt 0.699926 0.098630
vt 0.548188 0.247992
vt 0.451381 0.149645
vt 0.451381 0.346339
vt 0.615359 0.314111
vt 0.518552 0.412458
vt 0.712166 0.412458
vt 0.767097 0.164749
vt 0.863904 0.263096
vt 0.863904 0.066402
vt 0.796733 0.000283
vt 0.945957 0.000566
vt 0.945742 0.015153
vt 0.926489 0.014870
vt 0.926703 0.000283
vt 0.926275 0.103163
vt 0.926489 0.088576
vt 0.945742 0.088859
vt 0.945528 0.103446
vt 0.911900 0.014870
vt 0.911901 0.088576
vt 0.960331 0.088859
vt 0.960331 0.015153
vt 0.945957 0.104295
vt 0.945742 0.118882
vt 0.926489 0.118599
vt 0.926703 0.104012
vt 0.926275 0.206892
vt 0.926489 0.192305
vt 0.945742 0.192588
vt 0.945528 0.207175
vt 0.911900 0.118599
vt 0.911901 0.192305
vt 0.960331 0.192588
vt 0.960331 0.118882
vt 0.063653 0.963836
vt 0.063868 0.949249
vt 0.083121 0.949532
vt 0.082907 0.964119
vt 0.083336 0.861239
vt 0.083121 0.875826
vt 0.063868 0.875543
vt 0.064082 0.860956
vt 0.097710 0.949532
vt 0.097710 0.875826
vt 0.049279 0.875543
vt 0.049279 0.949249
vt 0.872871 0.862144
vt 0.825581 0.862144
vt 0.825581 0.703776
vt 0.872871 0.703776
vt 0.825581 0.637584
vt 0.872871 0.637584
vt 0.825581 0.479216
vt 0.872871 0.479216
vt 0.825581 0.413024
vt 0.872871 0.413024
vt 0.595248 0.979022
vt 0.543713 0.999717
vt 0.451381 0.932108
vt 0.454389 0.875879
vt 0.451381 0.819650
vt 0.505725 0.808209
vt 0.557259 0.787513
vt 0.649591 0.855122
vt 0.646584 0.911351
vt 0.649591 0.967580
vt 0.137673 0.887813
vt 0.104654 0.887813
vt 0.104654 0.867334
vt 0.137673 0.867334
vt 0.104654 0.860956
vt 0.137673 0.860956
vt 0.911335 0.378979
vt 0.896746 0.378979
vt 0.896746 0.239270
vt 0.911335 0.239270
vt 0.137673 0.894191
vt 0.104654 0.894191
vt 0.864470 0.239075
vt 0.879059 0.239075
vt 0.879059 0.378784
vt 0.864470 0.378784
vt 0.098276 0.867334
vt 0.098276 0.887813
vt 0.878898 0.393372
vt 0.896586 0.393566
vt 0.896906 0.224682
vt 0.879219 0.224488
vt 0.744452 0.942005
vt 0.729863 0.942005
vt 0.729863 0.802296
vt 0.744452 0.802296
vt 0.697587 0.802101
vt 0.712176 0.802101
vt 0.712176 0.941810
vt 0.697587 0.941811
vt 0.712016 0.956398
vt 0.729703 0.956593
vt 0.730024 0.787708
vt 0.712336 0.787513
vt 0.697021 0.942005
vt 0.682433 0.942005
vt 0.682433 0.802296
vt 0.697021 0.802296
vt 0.650157 0.802101
vt 0.664745 0.802101
vt 0.664746 0.941811
vt 0.650157 0.941811
vt 0.664585 0.956398
vt 0.682272 0.956593
vt 0.682593 0.787708
vt 0.664906 0.787513
vt 0.138239 0.867334
vt 0.171258 0.867334
vt 0.171258 0.887813
vt 0.138239 0.887813
vt 0.171258 0.894191
vt 0.138239 0.894191
vt 0.873437 0.427623
vt 0.888026 0.427612
vt 0.888026 0.621865
vt 0.873437 0.621876
vt 0.138239 0.860956
vt 0.171258 0.860956
vt 0.920302 0.622086
vt 0.905713 0.622075
vt 0.905713 0.427821
vt 0.920302 0.427832
vt 0.177637 0.887813
vt 0.177637 0.867334
vt 0.905886 0.413233
vt 0.888199 0.413024
vt 0.887853 0.636453
vt 0.905540 0.636662
vt 0.920301 0.846268
vt 0.905713 0.846280
vt 0.905713 0.652026
vt 0.920301 0.652014
vt 0.873437 0.651805
vt 0.888026 0.651816
vt 0.888026 0.846070
vt 0.873437 0.846059
vt 0.887853 0.860658
vt 0.905540 0.860867
vt 0.905886 0.637438
vt 0.888199 0.637228
vt 0.864470 0.014882
vt 0.879059 0.014871
vt 0.879059 0.209124
vt 0.864470 0.209136
vt 0.911334 0.209345
vt 0.896746 0.209334
vt 0.896746 0.015080
vt 0.911334 0.015091
vt 0.896919 0.000492
vt 0.879231 0.000283
vt 0.878886 0.223712
vt 0.896573 0.223922
vn 0.0000 0.0000 -1.0000
vn 1.0000 0.0000 0.0000
vn 0.0000 -1.0000 0.0000
vn -1.0000 0.0000 0.0000
vn 0.0000 1.0000 0.0000
vn 0.0000 0.0000 1.0000
vn -1.0000 0.0000 0.0095
vn 0.0080 0.0000 -1.0000
vn 1.0000 0.0000 -0.0095
vn -0.0080 0.0000 1.0000
vn 0.9998 0.0000 -0.0181
vn -0.9998 0.0000 0.0181
vn 0.0034 0.0000 1.0000
vn -0.0034 0.0000 -1.0000
vn 1.0000 0.0000 -0.0051
vn -0.0107 0.0000 0.9999
vn -1.0000 0.0000 0.0051
vn 0.0107 0.0000 -0.9999
vn -0.9999 0.0000 0.0154
vn 0.9999 0.0000 -0.0154
vn -0.0007 0.0000 -1.0000
vn 0.0007 0.0000 1.0000
vn -1.0000 0.0000 0.0067
vn 0.0114 0.0000 -0.9999
vn 1.0000 0.0000 -0.0067
vn -0.0114 0.0000 0.9999
vn -0.4344 0.9007 0.0010
vn 0.0082 0.8265 -0.5629
vn 0.4344 0.9007 -0.0010
vn -0.0082 0.8265 0.5629
vn -0.0000 1.0000 -0.0030
vn 0.0000 -1.0000 0.0030
vn -0.0000 -0.0140 -0.9999
vn 0.0000 0.0140 0.9999
vn 1.0000 0.0000 0.0027
vn -0.0027 0.0000 1.0000
vn -0.0000 1.0000 0.0022
vn 0.0027 0.0000 -1.0000
vn 0.0000 -1.0000 -0.0022
vn -0.0027 -0.0140 0.9999
vn 1.0000 0.0000 0.0019
vn 0.0027 0.0140 -0.9999
usemtl mat1
s off
f 6/1/1 5/2/1 1/3/1 2/4/1
f 2/5/2 1/3/2 3/6/2 4/7/2
f 6/8/3 2/9/3 4/10/3 8/11/3
f 8/12/4 7/13/4 5/2/4 6/14/4
f 1/3/5 5/2/5 7/13/5 3/6/5
f 4/10/6 3/6/6 7/13/6 8/11/6
usemtl mat2
f 9/15/7 10/16/7 12/17/7 11/18/7
f 11/19/8 12/17/8 16/20/8 15/21/8
f 15/22/9 16/20/9 14/23/9 13/24/9
f 13/25/10 14/23/10 10/16/10 9/26/10
f 20/27/11 19/28/11 23/29/11 24/30/11
f 16/20/5 12/17/5 10/16/5 14/23/5
f 22/31/12 21/32/12 17/33/12 18/34/12
f 24/35/13 23/29/13 21/32/13 22/36/13
f 17/33/5 21/32/5 23/29/5 19/28/5
f 18/37/14 17/33/14 19/28/14 20/38/14
f 28/39/11 27/40/11 31/41/11 32/42/11
f 30/43/12 29/44/12 25/45/12 26/46/12
f 32/47/13 31/41/13 29/44/13 30/48/13
f 25/45/5 29/44/5 31/41/5 27/40/5
f 26/49/14 25/45/14 27/40/14 28/50/14
f 36/51/11 35/52/11 39/53/11 40/54/11
f 38/55/12 37/56/12 33/57/12 34/58/12
f 40/59/13 39/53/13 37/56/13 38/60/13
f 33/57/5 37/56/5 39/53/5 35/52/5
f 34/61/14 33/57/14 35/52/14 36/62/14
f 73/63/15 74/64/15 76/65/15 75/66/15
f 75/67/16 76/65/16 80/68/16 79/69/16
f 79/70/17 80/68/17 78/71/17 77/72/17
f 77/73/18 78/71/18 74/64/18 73/74/18
f 84/75/19 83/76/19 87/77/19 88/78/19
f 80/68/5 76/65/5 74/64/5 78/71/5
f 86/79/20 85/80/20 81/81/20 82/82/20
f 88/83/21 87/77/21 85/80/21 86/84/21
f 81/81/5 85/80/5 87/77/5 83/76/5
f 82/85/22 81/81/22 83/76/22 84/86/22
f 92/87/19 91/88/19 95/89/19 96/90/19
f 94/91/20 93/92/20 89/93/20 90/94/20
f 96/95/21 95/89/21 93/92/21 94/96/21
f 89/93/5 93/92/5 95/89/5 91/88/5
f 90/97/22 89/93/22 91/88/22 92/98/22
f 100/99/19 99/100/19 103/101/19 104/102/19
f 102/103/20 101/104/20 97/105/20 98/106/20
f 104/107/21 103/101/21 101/104/21 102/108/21
f 97/105/5 101/104/5 103/101/5 99/100/5
f 98/109/22 97/105/22 99/100/22 100/110/22
f 137/111/23 138/112/23 140/113/23 139/114/23
f 139/114/24 140/113/24 144/115/24 143/116/24
f 143/116/25 144/115/25 142/117/25 141/118/25
f 141/118/26 142/117/26 138/119/26 137/120/26
f 145/121/27 146/122/27 148/123/27 147/124/27
f 147/124/28 148/125/28 150/126/28
f 150/126/29 148/127/29 146/128/29 149/129/29
f 149/129/30 146/130/30 145/121/30
f 147/124/3 150/126/3 149/129/3 145/121/3
usemtl mat3
f 41/131/4 42/132/4 44/133/4 43/134/4
f 43/134/1 44/133/1 48/135/1 47/136/1
f 54/137/31 53/138/31 49/139/31 50/140/31
f 45/141/6 46/142/6 42/132/6 41/131/6
f 52/143/32 51/144/32 55/145/32 56/146/32
f 48/147/5 44/133/5 42/132/5 46/148/5
f 56/149/33 55/145/33 53/138/33 54/150/33
f 49/139/4 53/138/4 55/145/4 51/144/4
f 50/151/34 49/139/34 51/144/34 52/152/34
f 62/153/31 61/154/31 57/155/31 58/156/31
f 60/157/32 59/158/32 63/159/32 64/160/32
f 64/161/33 63/159/33 61/154/33 62/162/33
f 57/155/4 61/154/4 63/159/4 59/158/4
f 58/163/34 57/155/34 59/158/34 60/164/34
f 70/165/31 69/166/31 65/167/31 66/168/31
f 68/169/32 67/170/32 71/171/32 72/172/32
f 72/173/33 71/171/33 69/166/33 70/174/33
f 65/167/4 69/166/4 71/171/4 67/170/4
f 66/175/34 65/167/34 67/170/34 68/176/34
f 105/177/35 106/178/35 108/179/35 107/180/35
f 107/180/36 108/179/36 112/181/36 111/182/36
f 118/183/37 117/184/37 113/185/37 114/186/37
f 109/187/38 110/188/38 106/178/38 105/177/38
f 116/189/39 115/190/39 119/191/39 120/192/39
f 112/193/5 108/179/5 106/178/5 110/194/5
f 120/195/40 119/191/40 117/184/40 118/196/40
f 113/185/41 117/184/41 119/191/41 115/190/41
f 114/197/42 113/185/42 115/190/42 116/198/42
f 126/199/37 125/200/37 121/201/37 122/202/37
f 124/203/39 123/204/39 127/205/39 128/206/39
f 128/207/40 127/205/40 125/200/40 126/208/40
f 121/201/41 125/200/41 127/205/41 123/204/41
f 122/209/42 121/201/42 123/204/42 124/210/42
f 134/211/37 133/212/37 129/213/37 130/214/37
f 132/215/39 131/216/39 135/217/39 136/218/39
f 136/219/40 135/217/40 133/212/40 134/220/40
f 129/213/41 133/212/41 135/217/41 131/216/41
f 130/221/42 129/213/42 131/216/42 132/222/42
