{
    "asset" : {
        "generator" : "Khronos glTF Blender I/O v1.1.45",
        "version" : "2.0"
    },
    "scene" : 0,
    "scenes" : [
        {
            "name" : "Scene",
            "nodes" : [
                0,
                1
            ]
        }
    ],
    "nodes" : [
        {
            "mesh" : 0,
            "name" : "tile_test"
        },
        {
            "mesh" : 1,
            "name" : "REF",
            "translation" : [
                0,
                2,
                0
            ]
        }
    ],
    "materials" : [
        {
            "doubleSided" : true,
            "name" : "mat1",
            "pbrMetallicRoughness" : {}
        },
        {
            "doubleSided" : true,
            "name" : "mat2",
            "pbrMetallicRoughness" : {}
        },
        {
            "doubleSided" : true,
            "name" : "mat3",
            "pbrMetallicRoughness" : {}
        },
        {
            "doubleSided" : true,
            "name" : "mat4",
            "pbrMetallicRoughness" : {}
        }
    ],
    "meshes" : [
        {
            "name" : "tile_test",
            "primitives" : [
                {
                    "attributes" : {
                        "POSITION" : 0,
                        "NORMAL" : 1,
                        "TEXCOORD_0" : 2
                    },
                    "indices" : 3,
                    "material" : 0
                },
                {
                    "attributes" : {
                        "POSITION" : 4,
                        "NORMAL" : 5,
                        "TEXCOORD_0" : 6
                    },
                    "indices" : 7,
                    "material" : 1
                },
                {
                    "attributes" : {
                        "POSITION" : 8,
                        "NORMAL" : 9,
                        "TEXCOORD_0" : 10
                    },
                    "indices" : 11,
                    "material" : 2
                },
                {
                    "attributes" : {
                        "POSITION" : 12,
                        "NORMAL" : 13,
                        "TEXCOORD_0" : 14
                    },
                    "indices" : 15,
                    "material" : 3
                }
            ]
        },
        {
            "name" : "REF",
            "primitives" : [
                {
                    "attributes" : {
                        "POSITION" : 16,
                        "NORMAL" : 17
                    },
                    "indices" : 18
                }
            ]
        }
    ],
    "accessors" : [
        {
            "bufferView" : 0,
            "componentType" : 5126,
            "count" : 72,
            "max" : [
                20,
                0.9681289792060852,
                20
            ],
            "min" : [
                -20,
                -0.031871020793914795,
                -20
            ],
            "type" : "VEC3"
        },
        {
            "bufferView" : 1,
            "componentType" : 5126,
            "count" : 72,
            "type" : "VEC3"
        },
        {
            "bufferView" : 2,
            "componentType" : 5126,
            "count" : 72,
            "type" : "VEC2"
        },
        {
            "bufferView" : 3,
            "componentType" : 5123,
            "count" : 108,
            "type" : "SCALAR"
        },
        {
            "bufferView" : 4,
            "componentType" : 5126,
            "count" : 20,
            "max" : [
                16.94160270690918,
                20.102508544921875,
                18.595558166503906
            ],
            "min" : [
                -18.705806732177734,
                -0.031871020793914795,
                -17.034637451171875
            ],
            "type" : "VEC3"
        },
        {
            "bufferView" : 5,
            "componentType" : 5126,
            "count" : 20,
            "type" : "VEC3"
        },
        {
            "bufferView" : 6,
            "componentType" : 5126,
            "count" : 20,
            "type" : "VEC2"
        },
        {
            "bufferView" : 7,
            "componentType" : 5123,
            "count" : 30,
            "type" : "SCALAR"
        },
        {
            "bufferView" : 8,
            "componentType" : 5126,
            "count" : 52,
            "max" : [
                16.990894317626953,
                20.102508544921875,
                17.02906036376953
            ],
            "min" : [
                -4.929388523101807,
                -0.031871020793914795,
                -17.034637451171875
            ],
            "type" : "VEC3"
        },
        {
            "bufferView" : 9,
            "componentType" : 5126,
            "count" : 52,
            "type" : "VEC3"
        },
        {
            "bufferView" : 10,
            "componentType" : 5126,
            "count" : 52,
            "type" : "VEC2"
        },
        {
            "bufferView" : 11,
            "componentType" : 5123,
            "count" : 78,
            "type" : "SCALAR"
        },
        {
            "bufferView" : 12,
            "componentType" : 5126,
            "count" : 48,
            "max" : [
                11.012361526489258,
                19.986053466796875,
                10.032272338867188
            ],
            "min" : [
                -9.943258285522461,
                0.5075616836547852,
                5.068022727966309
            ],
            "type" : "VEC3"
        },
        {
            "bufferView" : 13,
            "componentType" : 5126,
            "count" : 48,
            "type" : "VEC3"
        },
        {
            "bufferView" : 14,
            "componentType" : 5126,
            "count" : 48,
            "type" : "VEC2"
        },
        {
            "bufferView" : 15,
            "componentType" : 5123,
            "count" : 66,
            "type" : "SCALAR"
        },
        {
            "bufferView" : 16,
            "componentType" : 5126,
            "count" : 24,
            "max" : [
                1,
                1,
                1
            ],
            "min" : [
                -1,
                -1,
                -1
            ],
            "type" : "VEC3"
        },
        {
            "bufferView" : 17,
            "componentType" : 5126,
            "count" : 24,
            "type" : "VEC3"
        },
        {
            "bufferView" : 18,
            "componentType" : 5123,
            "count" : 36,
            "type" : "SCALAR"
        }
    ],
    "bufferViews" : [
        {
            "buffer" : 0,
            "byteLength" : 864,
            "byteOffset" : 0
        },
        {
            "buffer" : 0,
            "byteLength" : 864,
            "byteOffset" : 864
        },
        {
            "buffer" : 0,
            "byteLength" : 576,
            "byteOffset" : 1728
        },
        {
            "buffer" : 0,
            "byteLength" : 216,
            "byteOffset" : 2304
        },
        {
            "buffer" : 0,
            "byteLength" : 240,
            "byteOffset" : 2520
        },
        {
            "buffer" : 0,
            "byteLength" : 240,
            "byteOffset" : 2760
        },
        {
            "buffer" : 0,
            "byteLength" : 160,
            "byteOffset" : 3000
        },
        {
            "buffer" : 0,
            "byteLength" : 60,
            "byteOffset" : 3160
        },
        {
            "buffer" : 0,
            "byteLength" : 624,
            "byteOffset" : 3220
        },
        {
            "buffer" : 0,
            "byteLength" : 624,
            "byteOffset" : 3844
        },
        {
            "buffer" : 0,
            "byteLength" : 416,
            "byteOffset" : 4468
        },
        {
            "buffer" : 0,
            "byteLength" : 156,
            "byteOffset" : 4884
        },
        {
            "buffer" : 0,
            "byteLength" : 576,
            "byteOffset" : 5040
        },
        {
            "buffer" : 0,
            "byteLength" : 576,
            "byteOffset" : 5616
        },
        {
            "buffer" : 0,
            "byteLength" : 384,
            "byteOffset" : 6192
        },
        {
            "buffer" : 0,
            "byteLength" : 132,
            "byteOffset" : 6576
        },
        {
            "buffer" : 0,
            "byteLength" : 288,
            "byteOffset" : 6708
        },
        {
            "buffer" : 0,
            "byteLength" : 288,
            "byteOffset" : 6996
        },
        {
            "buffer" : 0,
            "byteLength" : 72,
            "byteOffset" : 7284
        }
    ],
    "buffers" : [
        {
            "byteLength" : 7356,
            "uri" : "data:application/octet-stream;base64,"
        }
    ]
}
