# Blender v2.82 (sub 7) OBJ File: 'trees.blend'
# www.blender.org
mtllib trees.mtl
o trees
v 20.000000 0.000000 -20.000000
v 20.000000 -2.000000 -20.000000
v 20.000000 0.000000 20.000000
v 20.000000 -2.000000 20.000000
v -20.000000 0.000000 -20.000000
v -20.000000 -2.000000 -20.000000
v -20.000000 0.000000 20.000000
v -20.000000 -2.000000 20.000000
v -3.561804 -0.249247 8.970381
v -3.008848 10.967487 8.417425
v -3.561804 -0.249247 7.864470
v -2.455892 -0.249247 8.970381
v -2.455892 -0.249247 7.864470
v -3.047671 6.843694 8.458195
v -0.601077 8.312017 10.333519
v -4.006120 8.325621 11.386570
v -6.147246 8.276834 8.334267
v -4.082501 8.369101 5.523378
v -0.422616 8.321266 6.629835
v -2.133894 10.859743 11.465453
v -5.566475 10.800375 10.321918
v -5.560940 10.823244 6.559203
v -2.141244 10.845530 5.473723
v 0.209503 10.845083 8.395365
v -3.011765 12.316887 8.341146
v -3.034500 4.505655 8.472269
v -0.731501 5.608318 7.890509
v -3.035936 4.394100 8.161371
v -2.858410 4.242359 8.565929
v -2.859846 4.130805 8.255032
v 13.891634 -0.249247 -0.181114
v 14.344488 10.155756 0.456415
v 14.982018 -0.249247 0.003561
v 13.706959 -0.249247 0.909269
v 14.797342 -0.249247 1.093944
v 14.310773 6.031964 0.411329
v 12.053226 7.500287 2.510410
v 11.583568 7.513891 -1.022669
v 14.950558 7.465105 -2.624031
v 17.377188 7.557370 -0.118888
v 15.675104 7.509536 3.304842
v 11.193150 10.048012 0.810095
v 12.893833 9.988644 -2.383330
v 16.602791 10.011513 -1.749539
v 17.101974 10.033798 1.803403
v 13.828808 10.033354 3.633259
v 14.420181 11.505157 0.466276
v 14.294697 3.693923 0.421965
v 14.483713 4.796587 2.789774
v 14.601470 3.582369 0.472465
v 14.172947 3.430628 0.579942
v 14.479719 3.319073 0.630442
v -14.488443 -0.324888 -8.163989
v -14.918560 10.818958 -6.730005
v -14.265474 -0.400453 -7.083426
v -15.571646 -0.340443 -7.941564
v -15.348677 -0.416008 -6.860999
v -14.888754 6.708544 -7.065329
v -17.663200 8.267017 -8.303166
v -14.540394 8.400433 -10.015969
v -11.827845 8.173321 -7.467666
v -13.283468 8.044258 -4.299499
v -17.091278 8.020668 -4.647838
v -16.390078 10.907436 -9.539711
v -12.797430 10.818356 -9.116903
v -12.044230 10.583994 -5.437727
v -15.174850 10.483957 -3.687791
v -18.066374 10.650080 -6.069701
v -14.900324 12.159901 -6.561928
v -14.904491 4.376977 -7.239534
v -17.042906 5.404811 -6.130997
v -14.840403 4.244471 -6.943833
v -15.095850 4.118247 -7.314000
v -15.031761 3.985740 -7.018299
v 1.725774 -0.234309 -16.250360
v 1.985438 7.659668 -15.765124
v 2.470675 -0.234309 -16.024788
v 1.500201 -0.234309 -15.505460
v 2.245102 -0.234309 -15.279887
v 1.965895 4.757475 -15.799589
v 0.203718 5.790834 -14.534165
v 0.188948 5.800409 -17.042461
v 2.681587 5.766075 -17.862068
v 4.153750 5.831007 -15.897999
v 2.661979 5.797344 -13.658522
v -0.246062 7.583843 -15.797493
v 1.224321 7.542060 -17.876303
v 3.757614 7.558156 -17.105095
v 3.791238 7.573839 -14.580314
v 1.343852 7.573526 -13.592865
v 2.037410 8.609335 -15.751530
v 1.953729 3.112038 -15.793589
v 1.875840 3.888056 -14.123714
v 2.163432 3.033530 -15.731142
v 1.854726 2.926739 -15.694084
v 2.064428 2.848230 -15.631639
v -14.087500 -0.301821 13.667582
v -14.346199 12.083472 14.405549
v -13.608231 -0.301821 14.664248
v -15.084166 -0.301821 14.146850
v -14.604897 -0.301821 15.143516
v -14.328878 7.174836 14.351980
v -17.346497 8.922611 13.722185
v -14.734177 8.938805 11.297520
v -11.481783 8.880733 13.120406
v -12.124413 8.990559 16.548424
v -15.902267 8.933621 17.137348
v -16.455643 11.955222 12.037792
v -12.866570 11.884555 11.580791
v -11.240914 11.911777 14.974211
v -13.852388 11.938303 17.434452
v -17.237068 11.937774 15.820163
v -14.310513 13.689692 14.473026
v -14.346848 4.391818 14.345005
v -16.170231 5.704340 15.867346
v -14.210821 4.259032 14.624569
v -14.546133 4.078412 14.336908
v -14.410105 3.945625 14.616472
v 12.227487 -0.296917 14.556233
v 12.129266 7.605526 14.955615
v 12.248205 -0.297653 15.334263
v 11.449946 -0.269302 14.576967
v 11.470667 -0.270038 15.354996
v 12.052786 4.704219 14.926205
v 10.334188 5.799268 13.652749
v 12.708797 5.724512 12.848070
v 14.270140 5.634703 14.955279
v 12.873440 5.749282 16.971500
v 10.278340 5.807765 16.261705
v 11.454307 7.553625 12.827675
v 13.887610 7.425394 13.567819
v 13.954788 7.439114 16.215061
v 11.571383 7.539456 17.042828
v 9.863878 7.599788 15.031472
v 12.166451 8.554471 15.009223
v 11.984859 3.060157 14.916550
v 10.404121 3.892807 15.369006
v 11.988908 2.981456 15.135247
v 11.852722 2.879435 14.853960
v 11.856771 2.800732 15.072655
vt 0.999742 0.500000
vt 0.975945 0.500000
vt 0.975945 0.024055
vt 0.999742 0.024055
vt 0.975945 0.000258
vt 0.500000 0.024055
vt 0.500000 0.000258
vt 0.000258 0.500000
vt 0.000258 0.024055
vt 0.476203 0.024055
vt 0.476203 0.500000
vt 0.500000 0.523797
vt 0.500000 0.500000
vt 0.975945 0.523797
vt 0.458943 0.645112
vt 0.472086 0.778252
vt 0.445927 0.647047
vt 0.433164 0.650252
vt 0.420778 0.654694
vt 0.472086 0.644465
vt 0.092684 0.690196
vt 0.096608 0.721107
vt 0.088824 0.690935
vt 0.085097 0.692182
vt 0.081544 0.693863
vt 0.096608 0.689975
vt 0.777669 0.642238
vt 0.816501 0.524313
vt 0.790368 0.645685
vt 0.803361 0.647770
vt 0.816501 0.648467
vt 0.765406 0.637465
vt 0.101748 0.717206
vt 0.113272 0.688254
vt 0.105484 0.718426
vt 0.109350 0.719139
vt 0.113272 0.719387
vt 0.098208 0.715499
vt 0.407119 0.645112
vt 0.420262 0.778252
vt 0.394103 0.647047
vt 0.381341 0.650252
vt 0.368954 0.654694
vt 0.420262 0.644465
vt 0.109348 0.656827
vt 0.113272 0.687739
vt 0.105488 0.657567
vt 0.101761 0.658813
vt 0.098208 0.660494
vt 0.113272 0.656607
vt 0.234472 0.655905
vt 0.243722 0.749604
vt 0.225312 0.657267
vt 0.216330 0.659522
vt 0.207613 0.662649
vt 0.243722 0.655450
vt 0.116279 0.676982
vt 0.124389 0.656607
vt 0.118909 0.677840
vt 0.121629 0.678342
vt 0.124389 0.678517
vt 0.113788 0.675781
vt 0.725870 0.666725
vt 0.764891 0.524313
vt 0.738703 0.669634
vt 0.751745 0.671388
vt 0.764891 0.671974
vt 0.713346 0.662686
vt 0.093356 0.657461
vt 0.097692 0.689460
vt 0.089371 0.658016
vt 0.085028 0.658838
vt 0.081544 0.660849
vt 0.097692 0.656607
vt 0.562262 0.734548
vt 0.589653 0.644465
vt 0.571243 0.736803
vt 0.580404 0.738165
vt 0.589653 0.738621
vt 0.553545 0.731422
vt 0.121627 0.679187
vt 0.124389 0.700942
vt 0.118911 0.679708
vt 0.116288 0.680585
vt 0.113788 0.681768
vt 0.124389 0.679032
vt 0.661666 0.583295
vt 0.699785 0.583780
vt 0.673830 0.619478
vt 0.674008 0.545936
vt 0.630257 0.604952
vt 0.629608 0.561618
vt 0.712831 0.545293
vt 0.712831 0.620955
vt 0.643483 0.642926
vt 0.598062 0.582521
vt 0.640106 0.524313
vt 0.367951 0.546891
vt 0.357032 0.585940
vt 0.328760 0.547661
vt 0.297353 0.524313
vt 0.285931 0.561245
vt 0.253670 0.585389
vt 0.285656 0.607692
vt 0.295860 0.643949
vt 0.327756 0.621667
vt 0.367951 0.623099
vt 0.317426 0.585793
vt 0.661666 0.702423
vt 0.699785 0.702909
vt 0.673830 0.738607
vt 0.674008 0.665064
vt 0.630257 0.724080
vt 0.629608 0.680746
vt 0.712831 0.664421
vt 0.712831 0.740083
vt 0.643483 0.762054
vt 0.598062 0.701650
vt 0.640106 0.643441
vt 0.482749 0.546891
vt 0.471829 0.585940
vt 0.443557 0.547661
vt 0.412151 0.524313
vt 0.400728 0.561245
vt 0.368467 0.585389
vt 0.400453 0.607692
vt 0.410657 0.643949
vt 0.442553 0.621667
vt 0.482749 0.623098
vt 0.432223 0.585793
vt 0.317274 0.703447
vt 0.355393 0.703933
vt 0.329438 0.739631
vt 0.329616 0.666088
vt 0.285865 0.725104
vt 0.285216 0.681770
vt 0.368439 0.665445
vt 0.368439 0.741107
vt 0.299091 0.763078
vt 0.253670 0.702673
vt 0.295714 0.644465
vt 0.597546 0.546891
vt 0.586627 0.585940
vt 0.558355 0.547661
vt 0.526948 0.524313
vt 0.515525 0.561245
vt 0.483264 0.585389
vt 0.515251 0.607692
vt 0.525455 0.643949
vt 0.557351 0.621667
vt 0.597546 0.623098
vt 0.547020 0.585793
vt 0.758109 0.713999
vt 0.784936 0.714341
vt 0.766670 0.739464
vt 0.766795 0.687707
vt 0.736005 0.729241
vt 0.735548 0.698744
vt 0.794117 0.687255
vt 0.794117 0.740503
vt 0.745313 0.755966
vt 0.713346 0.713455
vt 0.742936 0.672490
vt 0.553029 0.660355
vt 0.545344 0.687836
vt 0.525447 0.660897
vt 0.503344 0.644465
vt 0.495306 0.670457
vt 0.472601 0.687449
vt 0.495112 0.703145
vt 0.502293 0.728661
vt 0.524741 0.712980
vt 0.553029 0.713987
vt 0.517471 0.687733
vt 0.196751 0.589279
vt 0.235244 0.589793
vt 0.209022 0.625844
vt 0.209193 0.551617
vt 0.165091 0.611108
vt 0.164350 0.567309
vt 0.253154 0.547635
vt 0.253154 0.630853
vt 0.176699 0.654934
vt 0.126670 0.588251
vt 0.172995 0.524313
vt 0.126154 0.549024
vt 0.110459 0.591912
vt 0.081857 0.553366
vt 0.048078 0.524313
vt 0.038607 0.567185
vt 0.000258 0.591600
vt 0.038521 0.614072
vt 0.047046 0.656091
vt 0.081072 0.628079
vt 0.126154 0.633028
vt 0.070538 0.591794
vt 0.045020 0.698116
vt 0.071848 0.698458
vt 0.053582 0.723581
vt 0.053707 0.671824
vt 0.022916 0.713358
vt 0.022459 0.682861
vt 0.081029 0.671372
vt 0.081029 0.724620
vt 0.032224 0.740083
vt 0.000258 0.697572
vt 0.029847 0.656607
vt 0.207097 0.671339
vt 0.199413 0.698821
vt 0.179516 0.671882
vt 0.157413 0.655450
vt 0.149374 0.681441
vt 0.126670 0.698433
vt 0.149181 0.714129
vt 0.156362 0.739646
vt 0.178809 0.723965
vt 0.207097 0.724972
vt 0.171539 0.698717
vn 0.0000 0.0000 -1.0000
vn 1.0000 0.0000 0.0000
vn 0.0000 -1.0000 0.0000
vn -1.0000 0.0000 0.0000
vn 0.0000 1.0000 0.0000
vn 0.0000 0.0000 1.0000
vn -0.9988 0.0492 0.0000
vn 0.0000 0.0492 -0.9988
vn 0.9988 0.0492 0.0000
vn 0.0000 0.0492 0.9988
vn -0.4723 0.8303 -0.2958
vn 0.0491 -0.3054 -0.9510
vn 0.5797 -0.7678 0.2728
vn 0.0578 0.3687 0.9277
vn 0.1668 0.0531 -0.9846
vn 0.9846 0.0531 0.1668
vn -0.1668 0.0531 0.9846
vn -0.9846 0.0531 -0.1668
vn 0.3705 0.8303 -0.4163
vn 0.9294 -0.3054 0.2073
vn -0.3658 -0.7678 0.5260
vn -0.9244 0.3687 -0.0979
vn 0.9783 0.0632 -0.1974
vn 0.2014 -0.0191 0.9793
vn -0.9783 0.0351 0.2043
vn -0.2014 0.1174 -0.9725
vn 0.5222 0.8148 0.2519
vn 0.1436 -0.3703 0.9177
vn -0.6228 -0.7554 -0.2035
vn -0.2437 0.4304 -0.8691
vn 0.2895 0.0492 -0.9559
vn 0.9559 0.0492 0.2895
vn -0.2895 0.0492 0.9559
vn -0.9559 0.0492 -0.2895
vn 0.4199 0.8303 -0.3663
vn 0.8959 -0.3054 0.3226
vn -0.4291 -0.7678 0.4758
vn -0.9047 0.3687 -0.2135
vn 0.9003 0.0446 -0.4329
vn 0.4329 0.0446 0.9003
vn -0.9003 0.0446 0.4329
vn -0.4329 0.0446 -0.9003
vn 0.6203 0.7813 0.0693
vn 0.3730 -0.2602 0.8906
vn -0.7047 -0.7095 0.0059
vn -0.4635 0.3161 -0.8278
vn 0.9996 0.0138 -0.0266
vn 0.0283 0.0483 0.9984
vn -0.9961 0.0846 0.0266
vn -0.0248 0.0502 -0.9984
vn 0.5092 0.8128 0.2831
vn -0.0346 -0.3044 0.9519
vn -0.6137 -0.7465 -0.2573
vn -0.0694 0.3714 -0.9259
vn 0.1464 -0.8625 0.4844
vn 0.5020 -0.8646 0.0220
vn -0.4101 -0.8608 0.3014
vn -0.3882 -0.8666 -0.3136
vn 0.1384 -0.8580 -0.4947
vn 0.9610 -0.2726 0.0456
vn 0.2859 -0.2401 0.9277
vn -0.7891 -0.2576 0.5576
vn -0.7816 -0.2254 -0.5816
vn 0.2783 -0.2368 -0.9308
vn 0.7785 0.2048 0.5933
vn -0.3127 0.2021 0.9281
vn -0.9745 0.2243 -0.0001
vn -0.2968 0.2140 -0.9307
vn 0.7570 0.2365 -0.6091
vn 0.3929 0.8707 0.2957
vn -0.1667 0.8748 0.4548
vn -0.5079 0.8614 0.0045
vn -0.1607 0.8575 -0.4888
vn 0.3981 0.8596 -0.3202
vn -0.5020 -0.8625 0.0634
vn -0.1055 -0.8646 0.4913
vn -0.2287 -0.8608 -0.4546
vn 0.3740 -0.8666 -0.3303
vn 0.4647 -0.8580 0.2190
vn -0.2055 -0.2726 0.9399
vn -0.9624 -0.2401 0.1270
vn -0.4180 -0.2576 -0.8711
vn 0.7039 -0.2254 -0.6736
vn 0.8713 -0.2368 0.4298
vn -0.7149 0.2048 0.6685
vn -0.8629 0.2021 -0.4633
vn 0.1628 0.2243 -0.9608
vn 0.9671 0.2140 -0.1372
vn 0.4741 0.2365 0.8481
vn -0.3572 0.8707 0.3380
vn -0.4206 0.8748 -0.2403
vn 0.0804 0.8614 -0.5015
vn 0.5088 0.8575 -0.0769
vn 0.2492 0.8596 0.4460
vn -0.2410 -0.8294 -0.5040
vn -0.4961 -0.8680 0.0191
vn 0.3409 -0.8324 -0.4370
vn 0.4434 -0.8805 0.1679
vn -0.0358 -0.8916 0.4514
vn -0.9505 -0.2824 0.1297
vn -0.4671 -0.1802 -0.8657
vn 0.6605 -0.2078 -0.7215
vn 0.8828 -0.2536 0.3953
vn -0.0849 -0.3038 0.9490
vn -0.8821 0.2339 -0.4088
vn 0.1191 0.2694 -0.9556
vn 0.9545 0.2375 -0.1803
vn 0.4783 0.1541 0.8646
vn -0.6187 0.1836 0.7639
vn -0.4444 0.8833 -0.1492
vn 0.0715 0.9061 -0.4169
vn 0.4965 0.8668 -0.0464
vn 0.2560 0.8242 0.5051
vn -0.3254 0.8300 0.4529
vn -0.5060 -0.8625 -0.0003
vn -0.1666 -0.8646 0.4741
vn -0.1696 -0.8608 -0.4798
vn 0.4126 -0.8666 -0.2806
vn 0.4334 -0.8580 0.2758
vn -0.3222 -0.2726 0.9066
vn -0.9707 -0.2401 0.0048
vn -0.3050 -0.2576 -0.9168
vn 0.7831 -0.2254 -0.5795
vn 0.8102 -0.2368 0.5361
vn -0.7934 0.2048 0.5732
vn -0.7976 0.2021 -0.5683
vn 0.2825 0.2243 -0.9327
vn 0.9767 0.2140 -0.0143
vn 0.3635 0.2365 0.9011
vn -0.3969 0.8707 0.2903
vn -0.3870 0.8748 -0.2913
vn 0.1429 0.8614 -0.4874
vn 0.5144 0.8575 -0.0122
vn 0.1911 0.8596 0.4739
vn -0.3868 -0.8199 -0.4222
vn -0.5230 -0.8224 0.2238
vn 0.2702 -0.8178 -0.5081
vn 0.5503 -0.8249 0.1296
vn 0.1014 -0.8143 0.5715
vn -0.8957 -0.2316 0.3795
vn -0.6654 -0.2035 -0.7182
vn 0.4741 -0.2186 -0.8529
vn 0.9637 -0.1908 0.1868
vn 0.1538 -0.2006 0.9675
vn -0.9647 0.1731 -0.1985
vn -0.1211 0.1708 -0.9778
vn 0.8849 0.1899 -0.4254
vn 0.6754 0.1810 0.7149
vn -0.4218 0.2003 0.8843
vn -0.5471 0.8299 -0.1092
vn -0.0533 0.8350 -0.5477
vn 0.5155 0.8185 -0.2535
vn 0.4029 0.8137 0.4189
vn -0.2487 0.8163 0.5213
vn -0.1897 -0.8563 -0.4803
vn -0.5328 -0.8462 -0.0086
vn 0.3711 -0.8745 -0.3122
vn 0.3654 -0.8801 0.3031
vn -0.1555 -0.8530 0.4982
vn -0.9710 -0.2383 -0.0200
vn -0.3189 -0.2290 -0.9197
vn 0.7643 -0.2849 -0.5785
vn 0.7884 -0.2536 0.5605
vn -0.2617 -0.2277 0.9379
vn -0.7863 0.2329 -0.5723
vn 0.2948 0.1918 -0.9361
vn 0.9815 0.1896 -0.0259
vn 0.3289 0.2025 0.9224
vn -0.7317 0.2626 0.6290
vn -0.3694 0.8844 -0.2851
vn 0.1854 0.8688 -0.4591
vn 0.5378 0.8429 -0.0180
vn 0.2040 0.8508 0.4843
vn -0.3587 0.8729 0.3307
usemtl mat1
s off
f 6/1/1 5/2/1 1/3/1 2/4/1
f 2/5/2 1/3/2 3/6/2 4/7/2
f 6/8/3 2/9/3 4/10/3 8/11/3
f 8/12/4 7/13/4 5/2/4 6/14/4
f 1/3/5 5/2/5 7/13/5 3/6/5
f 4/10/6 3/6/6 7/13/6 8/11/6
usemtl mat2
f 9/15/7 10/16/7 11/17/7
f 11/17/8 10/16/8 13/18/8
f 13/18/9 10/16/9 12/19/9
f 12/20/10 10/16/10 9/15/10
f 26/21/11 27/22/11 28/23/11
f 28/23/12 27/22/12 30/24/12
f 30/24/13 27/22/13 29/25/13
f 29/26/14 27/22/14 26/21/14
f 31/27/15 32/28/15 33/29/15
f 33/29/16 32/28/16 35/30/16
f 35/30/17 32/28/17 34/31/17
f 34/32/18 32/28/18 31/27/18
f 48/33/19 49/34/19 50/35/19
f 50/35/20 49/34/20 52/36/20
f 52/36/21 49/34/21 51/37/21
f 51/38/22 49/34/22 48/33/22
f 53/39/23 54/40/23 55/41/23
f 55/41/24 54/40/24 57/42/24
f 57/42/25 54/40/25 56/43/25
f 56/44/26 54/40/26 53/39/26
f 70/45/27 71/46/27 72/47/27
f 72/47/28 71/46/28 74/48/28
f 74/48/29 71/46/29 73/49/29
f 73/50/30 71/46/30 70/45/30
f 75/51/31 76/52/31 77/53/31
f 77/53/32 76/52/32 79/54/32
f 79/54/33 76/52/33 78/55/33
f 78/56/34 76/52/34 75/51/34
f 92/57/35 93/58/35 94/59/35
f 94/59/36 93/58/36 96/60/36
f 96/60/37 93/58/37 95/61/37
f 95/62/38 93/58/38 92/57/38
f 97/63/39 98/64/39 99/65/39
f 99/65/40 98/64/40 101/66/40
f 101/66/41 98/64/41 100/67/41
f 100/68/42 98/64/42 97/63/42
f 114/69/43 115/70/43 116/71/43
f 116/71/44 115/70/44 118/72/44
f 118/72/45 115/70/45 117/73/45
f 117/74/46 115/70/46 114/69/46
f 119/75/47 120/76/47 121/77/47
f 121/77/48 120/76/48 123/78/48
f 123/78/49 120/76/49 122/79/49
f 122/80/50 120/76/50 119/75/50
f 136/81/51 137/82/51 138/83/51
f 138/83/52 137/82/52 140/84/52
f 140/84/53 137/82/53 139/85/53
f 139/86/54 137/82/54 136/81/54
usemtl mat3
f 14/87/55 15/88/55 16/89/55
f 15/88/56 14/87/56 19/90/56
f 14/87/57 16/89/57 17/91/57
f 14/87/58 17/91/58 18/92/58
f 14/87/59 18/92/59 19/90/59
f 15/88/60 19/90/60 24/93/60
f 16/89/61 15/88/61 20/94/61
f 17/91/62 16/89/62 21/95/62
f 18/92/63 17/91/63 22/96/63
f 19/90/64 18/92/64 23/97/64
f 15/98/65 24/99/65 20/100/65
f 16/101/66 20/100/66 21/102/66
f 17/103/67 21/102/67 22/104/67
f 18/105/68 22/104/68 23/106/68
f 19/107/69 23/106/69 24/99/69
f 20/100/70 24/99/70 25/108/70
f 21/102/71 20/100/71 25/108/71
f 22/104/72 21/102/72 25/108/72
f 23/106/73 22/104/73 25/108/73
f 24/99/74 23/106/74 25/108/74
f 36/109/75 37/110/75 38/111/75
f 37/110/76 36/109/76 41/112/76
f 36/109/77 38/111/77 39/113/77
f 36/109/78 39/113/78 40/114/78
f 36/109/79 40/114/79 41/112/79
f 37/110/80 41/112/80 46/115/80
f 38/111/81 37/110/81 42/116/81
f 39/113/82 38/111/82 43/117/82
f 40/114/83 39/113/83 44/118/83
f 41/112/84 40/114/84 45/119/84
f 37/120/85 46/121/85 42/122/85
f 38/123/86 42/122/86 43/124/86
f 39/125/87 43/124/87 44/126/87
f 40/127/88 44/126/88 45/128/88
f 41/129/89 45/128/89 46/121/89
f 42/122/90 46/121/90 47/130/90
f 43/124/91 42/122/91 47/130/91
f 44/126/92 43/124/92 47/130/92
f 45/128/93 44/126/93 47/130/93
f 46/121/94 45/128/94 47/130/94
f 58/131/95 59/132/95 60/133/95
f 59/132/96 58/131/96 63/134/96
f 58/131/97 60/133/97 61/135/97
f 58/131/98 61/135/98 62/136/98
f 58/131/99 62/136/99 63/134/99
f 59/132/100 63/134/100 68/137/100
f 60/133/101 59/132/101 64/138/101
f 61/135/102 60/133/102 65/139/102
f 62/136/103 61/135/103 66/140/103
f 63/134/104 62/136/104 67/141/104
f 59/142/105 68/143/105 64/144/105
f 60/145/106 64/144/106 65/146/106
f 61/147/107 65/146/107 66/148/107
f 62/149/108 66/148/108 67/150/108
f 63/151/109 67/150/109 68/143/109
f 64/144/110 68/143/110 69/152/110
f 65/146/111 64/144/111 69/152/111
f 66/148/112 65/146/112 69/152/112
f 67/150/113 66/148/113 69/152/113
f 68/143/114 67/150/114 69/152/114
f 80/153/115 81/154/115 82/155/115
f 81/154/116 80/153/116 85/156/116
f 80/153/117 82/155/117 83/157/117
f 80/153/118 83/157/118 84/158/118
f 80/153/119 84/158/119 85/156/119
f 81/154/120 85/156/120 90/159/120
f 82/155/121 81/154/121 86/160/121
f 83/157/122 82/155/122 87/161/122
f 84/158/123 83/157/123 88/162/123
f 85/156/124 84/158/124 89/163/124
f 81/164/125 90/165/125 86/166/125
f 82/167/126 86/166/126 87/168/126
f 83/169/127 87/168/127 88/170/127
f 84/171/128 88/170/128 89/172/128
f 85/173/129 89/172/129 90/165/129
f 86/166/130 90/165/130 91/174/130
f 87/168/131 86/166/131 91/174/131
f 88/170/132 87/168/132 91/174/132
f 89/172/133 88/170/133 91/174/133
f 90/165/134 89/172/134 91/174/134
f 102/175/135 103/176/135 104/177/135
f 103/176/136 102/175/136 107/178/136
f 102/175/137 104/177/137 105/179/137
f 102/175/138 105/179/138 106/180/138
f 102/175/139 106/180/139 107/178/139
f 103/176/140 107/178/140 112/181/140
f 104/177/141 103/176/141 108/182/141
f 105/179/142 104/177/142 109/183/142
f 106/180/143 105/179/143 110/184/143
f 107/178/144 106/180/144 111/185/144
f 103/186/145 112/187/145 108/188/145
f 104/189/146 108/188/146 109/190/146
f 105/191/147 109/190/147 110/192/147
f 106/193/148 110/192/148 111/194/148
f 107/195/149 111/194/149 112/187/149
f 108/188/150 112/187/150 113/196/150
f 109/190/151 108/188/151 113/196/151
f 110/192/152 109/190/152 113/196/152
f 111/194/153 110/192/153 113/196/153
f 112/187/154 111/194/154 113/196/154
f 124/197/155 125/198/155 126/199/155
f 125/198/156 124/197/156 129/200/156
f 124/197/157 126/199/157 127/201/157
f 124/197/158 127/201/158 128/202/158
f 124/197/159 128/202/159 129/200/159
f 125/198/160 129/200/160 134/203/160
f 126/199/161 125/198/161 130/204/161
f 127/201/162 126/199/162 131/205/162
f 128/202/163 127/201/163 132/206/163
f 129/200/164 128/202/164 133/207/164
f 125/208/165 134/209/165 130/210/165
f 126/211/166 130/210/166 131/212/166
f 127/213/167 131/212/167 132/214/167
f 128/215/168 132/214/168 133/216/168
f 129/217/169 133/216/169 134/209/169
f 130/210/170 134/209/170 135/218/170
f 131/212/171 130/210/171 135/218/171
f 132/214/172 131/212/172 135/218/172
f 133/216/173 132/214/173 135/218/173
f 134/209/174 133/216/174 135/218/174
