# Blender v2.82 (sub 7) OBJ File: 'rotunda.blend'
# www.blender.org
mtllib rotunda.mtl
o rotunda
v 0.000000 -0.019669 0.000000
v 0.000000 1.488145 0.000000
v 0.994048 -0.019669 -2.382973
v 0.994048 1.488145 -2.382973
v 2.387915 -0.019669 -0.982119
v 2.387915 1.488145 -0.982119
v 2.382973 -0.019669 0.994048
v 2.382973 1.488145 0.994048
v 0.982119 -0.019669 2.387915
v 0.982119 1.488145 2.387915
v -0.994048 -0.019669 2.382973
v -0.994048 1.488145 2.382973
v -2.387914 -0.019669 0.982118
v -2.387914 1.488145 0.982118
v -2.382973 -0.019669 -0.994048
v -2.382973 1.488145 -0.994048
v -0.982119 -0.019669 -2.387914
v -0.982119 1.488145 -2.387914
v 0.965552 1.964391 -2.314661
v 0.926679 1.434744 -2.221474
v 2.223377 1.434744 -0.916686
v 2.217651 1.434744 0.925085
v 0.787326 1.434744 2.308891
v -0.771952 1.434744 2.347715
v -2.223377 1.434744 0.916686
v -2.217651 1.434744 -0.925085
v -0.912855 1.434744 -2.224953
v -1.008088 1.488145 7.997802
v -1.004064 1.488145 6.388601
v -1.008088 -0.019669 7.997802
v 0.968079 1.488145 8.002743
v 0.968079 -0.019669 8.002743
v -1.004064 -0.019669 6.388601
v -1.775258 0.841797 6.403687
v -2.658328 0.841797 7.994349
v 2.319461 1.964391 -0.953964
v 2.314661 1.964391 0.965552
v 0.873270 1.964391 2.365771
v -0.863499 1.964391 2.390304
v -2.319461 1.964391 0.953964
v -2.314661 1.964391 -0.965552
v -0.953964 1.964391 -2.319460
v 2.127294 1.964391 -0.879408
v 0.887807 1.964391 -2.128288
v 2.120641 1.964391 0.884617
v 0.701382 1.964391 2.252012
v -0.680404 1.964391 2.305126
v -2.127294 1.964391 0.879407
v -2.120641 1.964391 -0.884617
v -0.871746 1.964391 -2.130445
v -0.787073 1.434744 6.334527
v -0.876818 1.964391 6.380796
v -0.697329 1.964391 6.288259
v 0.824515 1.434744 7.840540
v 0.892885 1.964391 7.917658
v 0.756145 1.964391 7.763421
v -0.855542 1.434744 7.815977
v -0.925433 1.964391 7.891720
v -0.785650 1.964391 7.740235
v -2.658328 -0.019669 7.994349
v -1.775258 -0.019669 6.403687
v -2.389896 0.395701 5.805608
v -3.883623 0.395701 6.887874
v -3.883623 -0.019669 6.887874
v -2.389896 -0.019669 5.805608
v -2.396554 -0.019669 5.022199
v -3.886954 -0.019669 5.008895
v -0.893527 1.422451 0.877008
v -0.942321 3.884475 0.936996
v -0.976268 1.422451 1.209723
v -1.029470 3.884475 1.287438
v -1.223037 1.422451 0.971710
v -1.289387 3.884475 1.036744
v -1.188567 1.422451 -0.014641
v -1.253080 3.884475 -0.002159
v -1.487952 1.422451 0.152433
v -1.568416 3.884475 0.173817
v -1.482950 1.422451 -0.190379
v -1.563148 3.884475 -0.187260
v -0.907527 1.422451 -0.922786
v -0.957067 3.884475 -0.958690
v -1.240658 1.422451 -1.003834
v -1.307947 3.884475 -1.044055
v -1.003903 1.422451 -1.251811
v -1.058578 3.884475 -1.305244
v 0.895127 1.422451 0.892500
v 0.941631 3.884475 0.953313
v 1.228163 1.422451 0.973935
v 1.292411 3.884475 1.039087
v 0.991120 1.422451 1.221636
v 1.042739 3.884475 1.299986
v 1.259942 1.422451 -0.014255
v 1.325883 3.884475 -0.001752
v 1.558288 1.422451 -0.183178
v 1.640125 3.884475 -0.179675
v 1.555407 1.422451 0.159659
v 1.637090 3.884475 0.181428
v 0.983608 1.422451 -1.021735
v 1.034827 3.884475 -1.062911
v 1.068831 1.422451 -1.353823
v 1.124590 3.884475 -1.412692
v 1.313816 1.422451 -1.113974
v 1.382628 3.884475 -1.160064
v 0.007488 1.422451 -1.340538
v 0.006699 3.884475 -1.398698
v -0.166065 1.422451 -1.636214
v -0.176101 3.884475 -1.710128
v 0.176775 1.422451 -1.638677
v 0.185005 3.884475 -1.712723
v 0.000000 3.671725 -2.671285
v 0.000000 4.065068 -2.485419
v 1.888884 3.671725 -1.888883
v 1.757457 4.065068 -1.757456
v 2.671285 3.671725 0.000000
v 2.485419 4.065068 0.000000
v 1.888884 3.671725 1.888883
v 1.757457 4.065068 1.757456
v -0.000000 3.671725 2.671285
v -0.000000 4.065068 2.485419
v -1.888884 3.671725 1.888883
v -1.757457 4.065068 1.757456
v -2.671285 3.671725 -0.000000
v -2.485419 4.065068 -0.000000
v -1.888884 3.671725 -1.888883
v -1.757457 4.065068 -1.757456
v -0.000000 3.671725 -0.000000
v -2.032225 4.065068 -0.000000
v -1.437000 4.065068 1.437000
v -0.000000 4.065068 2.032225
v 1.437000 4.065068 1.437000
v 2.032225 4.065068 0.000000
v 1.437000 4.065068 -1.437000
v 0.000000 4.065068 -2.032225
v -1.437000 4.065068 -1.437000
v -1.837473 4.504971 -0.000000
v -1.299290 4.504971 1.299290
v -0.000000 4.504971 1.837473
v 1.299290 4.504971 1.299290
v 1.837473 4.504971 0.000000
v 1.299290 4.504971 -1.299290
v 0.000000 4.504971 -1.837473
v -1.299290 4.504971 -1.299290
v -1.335874 4.829490 -0.000000
v -0.944606 4.829490 0.944606
v -0.000000 4.829490 1.335874
v 0.944606 4.829490 0.944606
v 1.335874 4.829490 0.000000
v 0.944606 4.829490 -0.944606
v 0.000000 4.829490 -1.335874
v -0.944606 4.829490 -0.944606
v -0.549175 5.037633 -0.000000
v -0.388325 5.037633 0.388325
v -0.000000 5.037633 0.549175
v 0.388325 5.037633 0.388325
v 0.549175 5.037633 0.000000
v 0.388325 5.037633 -0.388325
v -0.000000 5.037633 -0.549175
v -0.388325 5.037633 -0.388325
v -0.000000 5.082408 0.000000
vn 0.0000 -1.0000 0.0000
vn 0.0000 1.0000 -0.0000
vn 0.7089 0.0000 -0.7053
vn 1.0000 0.0000 0.0025
vn 0.7053 0.0000 0.7089
vn -0.7089 0.0000 0.7053
vn -1.0000 0.0000 -0.0025
vn -0.7053 0.0000 -0.7089
vn 0.0025 0.0000 -1.0000
vn 0.9896 -0.1435 -0.0051
vn -0.0196 0.0000 -0.9998
vn 0.6974 0.0000 -0.7167
vn 0.4582 -0.0000 0.8888
vn 0.9857 -0.1684 0.0040
vn -0.0025 0.0000 1.0000
vn -0.6986 -0.1745 0.6939
vn 0.9838 -0.1793 0.0028
vn 0.6911 -0.1753 -0.7012
vn 0.6843 -0.1831 0.7059
vn -0.9838 -0.1793 -0.0034
vn 0.9838 -0.1793 0.0034
vn -0.6913 -0.1753 0.7010
vn -0.6829 -0.1829 -0.7073
vn -0.9838 -0.1793 -0.0028
vn 0.6946 -0.1793 0.6967
vn -0.6941 -0.1793 -0.6972
vn -0.0015 -0.1745 0.9847
vn 0.0022 -0.1745 -0.9847
vn 0.6982 -0.1745 -0.6943
vn -0.9857 -0.1684 -0.0035
vn -0.0143 -0.1428 0.9896
vn -0.9897 -0.1431 0.0082
vn -0.7349 0.0000 -0.6782
vn 0.0147 -0.1428 -0.9896
vn -0.0021 0.0000 1.0000
vn -0.3647 0.9311 -0.0009
vn -0.1543 0.9648 -0.2130
vn -0.6702 0.0000 0.7422
vn -0.2337 0.9636 -0.1297
vn 0.0042 0.8835 -0.4685
vn -1.0000 0.0000 0.0018
vn 1.0000 0.0000 -0.0085
vn -0.2739 0.8843 -0.3781
vn -0.6085 0.7181 -0.3378
vn 0.9704 0.0134 0.2413
vn -0.6937 -0.0377 0.7192
vn -0.2762 0.0179 -0.9609
vn 0.4873 0.0083 0.8732
vn -0.9994 -0.0325 -0.0146
vn 0.5125 0.0178 -0.8585
vn -0.2364 0.0094 0.9716
vn -0.7229 -0.0310 -0.6902
vn 0.9596 0.0152 -0.2811
vn 0.2375 0.0195 -0.9712
vn 0.7220 -0.0371 0.6909
vn -0.9599 0.0112 0.2800
vn -0.4926 0.0176 -0.8701
vn 0.9994 -0.0332 0.0084
vn -0.5072 0.0092 0.8618
vn -0.9685 0.0160 -0.2485
vn 0.6992 -0.0329 -0.7142
vn 0.2690 0.0105 0.9631
vn -0.8624 0.0117 0.5062
vn -0.0072 -0.0300 -0.9995
vn 0.8695 0.0119 0.4937
vn 0.3507 0.4001 -0.8467
vn 0.8467 0.4001 -0.3507
vn 0.8467 0.4001 0.3507
vn 0.3507 0.4001 0.8467
vn -0.3507 0.4001 0.8467
vn -0.8467 0.4001 0.3507
vn -0.8467 0.4001 -0.3507
vn -0.3507 0.4001 -0.8467
vn 0.3542 0.3786 -0.8551
vn 0.8551 0.3786 0.3542
vn -0.3542 0.3786 0.8551
vn -0.8551 0.3786 -0.3542
vn 0.8551 0.3786 -0.3542
vn 0.3542 0.3786 0.8551
vn -0.8551 0.3786 0.3542
vn -0.3542 0.3786 -0.8551
vn -0.5299 0.8191 -0.2195
vn 0.5299 0.8191 -0.2195
vn 0.2195 0.8191 0.5299
vn -0.5299 0.8191 0.2195
vn -0.2195 0.8191 -0.5300
vn 0.2195 0.8191 -0.5299
vn 0.5299 0.8191 0.2195
vn -0.2195 0.8191 0.5299
vn 0.1054 0.9614 -0.2544
vn 0.2544 0.9614 0.1054
vn -0.1054 0.9614 0.2544
vn -0.2544 0.9614 -0.1054
vn 0.2544 0.9614 -0.1054
vn 0.1054 0.9614 0.2544
vn -0.2544 0.9614 0.1054
vn -0.1054 0.9614 -0.2544
vn -0.0812 0.9961 0.0336
vn -0.0336 0.9961 -0.0812
vn 0.0336 0.9961 -0.0812
vn 0.0812 0.9961 0.0336
vn -0.0336 0.9961 0.0812
vn -0.0812 0.9961 -0.0336
vn 0.0812 0.9961 -0.0336
vn 0.0336 0.9961 0.0812
usemtl mat1
s off
f 1//1 3//1 5//1
f 2//2 6//2 4//2
f 3//3 4//3 6//3 5//3
f 1//1 5//1 7//1
f 2//2 8//2 6//2
f 5//4 6//4 8//4 7//4
f 1//1 7//1 9//1
f 2//2 10//2 8//2
f 7//5 8//5 10//5 9//5
f 1//1 9//1 11//1
f 2//2 12//2 10//2
f 10//2 12//2 29//2 31//2
f 1//1 11//1 13//1
f 2//2 14//2 12//2
f 11//6 12//6 14//6 13//6
f 1//1 13//1 15//1
f 2//2 16//2 14//2
f 13//7 14//7 16//7 15//7
f 1//1 15//1 17//1
f 2//2 18//2 16//2
f 15//8 16//8 18//8 17//8
f 1//1 17//1 3//1
f 2//2 4//2 18//2
f 17//9 18//9 4//9 3//9
f 49//2 50//2 42//2 41//2
f 48//2 49//2 41//2 40//2
f 47//2 48//2 40//2 39//2
f 23//10 38//10 55//10 54//10
f 45//2 46//2 38//2 37//2
f 43//2 45//2 37//2 36//2
f 44//2 43//2 36//2 19//2
f 50//2 44//2 19//2 42//2
f 29//11 33//11 61//11 34//11
f 33//1 32//1 30//1
f 34//12 61//12 65//12 62//12
f 52//13 51//13 53//13
f 24//14 47//14 53//14 51//14
f 12//7 11//7 33//7 29//7
f 11//1 9//1 32//1 33//1
f 32//15 31//15 28//15 30//15
f 20//16 21//16 43//16 44//16
f 22//17 21//17 36//17 37//17
f 24//18 25//18 48//18 47//18
f 23//19 22//19 37//19 38//19
f 21//20 22//20 45//20 43//20
f 9//4 10//4 31//4 32//4
f 25//21 26//21 49//21 48//21
f 25//22 24//22 39//22 40//22
f 22//23 23//23 46//23 45//23
f 26//24 25//24 40//24 41//24
f 26//25 27//25 50//25 49//25
f 27//26 26//26 41//26 42//26
f 27//27 20//27 44//27 50//27
f 31//2 29//2 28//2
f 20//28 27//28 42//28 19//28
f 21//29 20//29 19//29 36//29
f 39//30 24//30 51//30 52//30
f 47//2 39//2 52//2 53//2
f 54//31 55//31 58//31 57//31
f 38//2 46//2 56//2 55//2
f 46//32 23//32 54//32 56//32
f 57//33 58//33 59//33
f 55//2 56//2 59//2 58//2
f 56//34 54//34 57//34 59//34
f 33//1 30//1 60//1 61//1
f 30//35 28//35 35//35 60//35
f 29//36 35//36 28//36
f 62//37 67//37 63//37
f 60//38 35//38 63//38 64//38
f 61//1 60//1 64//1 65//1
f 34//39 63//39 35//39
f 62//40 66//40 67//40
f 64//41 63//41 67//41
f 62//42 65//42 66//42
f 65//1 64//1 67//1 66//1
f 34//43 62//43 63//43
f 29//44 34//44 35//44
f 68//45 69//45 71//45 70//45
f 70//46 71//46 73//46 72//46
f 72//47 73//47 69//47 68//47
f 74//48 75//48 77//48 76//48
f 76//49 77//49 79//49 78//49
f 78//50 79//50 75//50 74//50
f 80//51 81//51 83//51 82//51
f 82//52 83//52 85//52 84//52
f 84//53 85//53 81//53 80//53
f 86//54 87//54 89//54 88//54
f 88//55 89//55 91//55 90//55
f 90//56 91//56 87//56 86//56
f 92//57 93//57 95//57 94//57
f 94//58 95//58 97//58 96//58
f 96//59 97//59 93//59 92//59
f 98//60 99//60 101//60 100//60
f 100//61 101//61 103//61 102//61
f 102//62 103//62 99//62 98//62
f 104//63 105//63 107//63 106//63
f 106//64 107//64 109//64 108//64
f 108//65 109//65 105//65 104//65
f 110//66 111//66 113//66 112//66
f 112//67 113//67 115//67 114//67
f 114//68 115//68 117//68 116//68
f 116//69 117//69 119//69 118//69
f 118//70 119//70 121//70 120//70
f 120//71 121//71 123//71 122//71
f 122//72 123//72 125//72 124//72
f 124//73 125//73 111//73 110//73
f 120//1 122//1 126//1
f 116//1 118//1 126//1
f 122//1 124//1 126//1
f 112//1 114//1 126//1
f 118//1 120//1 126//1
f 124//1 110//1 126//1
f 110//1 112//1 126//1
f 114//1 116//1 126//1
f 115//2 113//2 132//2 131//2
f 121//2 119//2 129//2 128//2
f 111//2 125//2 134//2 133//2
f 117//2 115//2 131//2 130//2
f 123//2 121//2 128//2 127//2
f 113//2 111//2 133//2 132//2
f 119//2 117//2 130//2 129//2
f 125//2 123//2 127//2 134//2
usemtl mat2
f 132//74 133//74 141//74 140//74
f 130//75 131//75 139//75 138//75
f 128//76 129//76 137//76 136//76
f 134//77 127//77 135//77 142//77
f 131//78 132//78 140//78 139//78
f 129//79 130//79 138//79 137//79
f 127//80 128//80 136//80 135//80
f 133//81 134//81 142//81 141//81
f 142//82 135//82 143//82 150//82
f 139//83 140//83 148//83 147//83
f 137//84 138//84 146//84 145//84
f 135//85 136//85 144//85 143//85
f 141//86 142//86 150//86 149//86
f 140//87 141//87 149//87 148//87
f 138//88 139//88 147//88 146//88
f 136//89 137//89 145//89 144//89
f 148//90 149//90 157//90 156//90
f 146//91 147//91 155//91 154//91
f 144//92 145//92 153//92 152//92
f 150//93 143//93 151//93 158//93
f 147//94 148//94 156//94 155//94
f 145//95 146//95 154//95 153//95
f 143//96 144//96 152//96 151//96
f 149//97 150//97 158//97 157//97
f 151//98 152//98 159//98
f 157//99 158//99 159//99
f 156//100 157//100 159//100
f 154//101 155//101 159//101
f 152//102 153//102 159//102
f 158//103 151//103 159//103
f 155//104 156//104 159//104
f 153//105 154//105 159//105
