# Blender v2.82 (sub 7) OBJ File: 'wall_open.blend'
# www.blender.org
mtllib wall_open.mtl
o wall_open
v -2.016059 -0.015459 0.126265
v -2.016059 1.991989 0.126265
v -2.016059 -0.015459 -0.126265
v -2.016059 1.991989 -0.126265
v 2.016059 -0.015459 0.126265
v 2.016059 1.991989 0.126265
v 2.016059 -0.015459 -0.126265
v 2.016059 1.991989 -0.126265
v 0.216597 -0.015459 -0.126265
v 0.216597 -0.015459 0.126265
v -0.222156 -0.015459 -0.126265
v -0.222156 -0.015459 0.126265
v 0.216597 0.683802 0.126265
v 0.216597 0.683802 -0.126265
v -0.222156 0.683802 -0.126265
v -0.222156 0.683802 0.126265
vn 0.0000 -1.0000 0.0000
vn 1.0000 0.0000 0.0000
vn 0.0000 0.0000 -1.0000
vn 0.0000 1.0000 0.0000
vn 0.0000 0.0000 1.0000
vn -1.0000 0.0000 0.0000
usemtl mat1
s off
f 9//1 7//1 5//1 10//1
f 16//2 12//2 11//2 15//2
f 15//3 4//3 8//3 14//3
f 3//1 11//1 12//1 1//1
f 8//4 4//4 2//4 6//4
f 13//5 6//5 2//5 16//5
f 9//6 10//6 13//6 14//6
f 3//3 4//3 15//3 11//3
f 15//1 14//1 13//1 16//1
f 5//5 6//5 13//5 10//5
f 12//5 16//5 2//5 1//5
f 7//2 8//2 6//2 5//2
f 9//3 14//3 8//3 7//3
f 1//6 2//6 4//6 3//6
