# Blender v2.82 (sub 7) OBJ File: 'rock.blend'
# www.blender.org
mtllib rock.mtl
o rock
v -0.393041 -0.650576 0.907525
v -0.694694 -0.101362 1.431177
v -0.518599 0.558059 1.157896
v -0.397203 0.896201 0.776358
v 1.005544 -0.140085 0.858858
v 1.232677 0.428045 1.076028
v 0.423752 0.982969 0.232465
v 1.018004 -0.843833 -0.472673
v 1.566322 -0.324953 -0.784046
v 1.476885 0.349847 -0.945891
v 0.449635 0.818104 -0.848722
v -0.888853 -0.871529 -0.185609
v -0.049059 -0.725500 -1.356822
v -0.151381 -0.095905 -1.690158
v -1.522282 -0.361109 -0.588274
v -1.533338 0.290629 -0.222033
v -0.928779 0.819423 -0.287677
vn 0.5418 0.8399 0.0330
vn 0.0166 -0.3628 0.9317
vn 0.3437 -0.9385 0.0338
vn 0.1801 0.8922 0.4142
vn 0.2440 -0.5956 0.7653
vn 0.4012 0.9069 -0.1287
vn 0.7407 -0.5911 0.3193
vn 0.0859 0.7319 0.6760
vn 0.9039 -0.4091 0.1250
vn 0.0830 -0.8807 0.4663
vn 0.1956 0.5915 -0.7822
vn 0.3914 -0.3801 -0.8381
vn 0.3111 0.2918 0.9045
vn 0.4451 -0.1526 -0.8824
vn -0.0047 -0.9919 -0.1271
vn -0.2529 0.7400 -0.6232
vn -0.4970 -0.4677 -0.7309
vn -0.0609 0.9865 -0.1519
vn -0.6238 0.3748 -0.6859
vn 0.3807 -0.7372 -0.5581
vn -0.7217 0.6158 0.3161
vn -0.6392 -0.6848 0.3500
vn -0.1146 0.9933 -0.0144
vn -0.7714 0.4083 0.4881
vn 0.9347 0.1951 0.2971
vn -0.5395 0.5363 -0.6491
vn -0.4100 -0.8215 -0.3964
vn -0.6080 0.7330 0.3050
vn -0.7162 -0.5456 0.4351
vn -0.8880 -0.2367 0.3943
usemtl mat1
s off
f 7//1 6//1 10//1
f 3//2 5//2 6//2
f 1//3 12//3 5//3
f 4//4 6//4 7//4
f 2//5 1//5 5//5
f 7//6 10//6 11//6
f 5//7 8//7 9//7
f 4//8 3//8 6//8
f 5//9 10//9 6//9
f 5//10 12//10 8//10
f 11//11 10//11 14//11
f 9//12 13//12 14//12
f 3//13 2//13 5//13
f 10//14 9//14 14//14
f 8//15 12//15 13//15
f 14//16 17//16 11//16
f 13//17 15//17 14//17
f 7//18 11//18 17//18
f 14//19 15//19 16//19
f 9//20 8//20 13//20
f 17//21 3//21 4//21
f 15//22 1//22 2//22
f 7//23 17//23 4//23
f 16//24 2//24 3//24
f 5//25 9//25 10//25
f 14//26 16//26 17//26
f 13//27 12//27 15//27
f 17//28 16//28 3//28
f 15//29 12//29 1//29
f 16//30 15//30 2//30
